{"glyphs":{"0":{"ha":847,"x_min":69,"x_max":778,"o":"m 424 -14 q 165 108 260 -14 q 69 486 69 231 q 165 864 69 742 q 424 986 260 986 q 683 863 588 986 q 778 486 778 740 q 683 109 778 232 q 424 -14 588 -14 m 424 111 q 583 486 583 111 q 424 861 583 861 q 264 486 264 861 q 424 111 264 111 z "},"1":{"ha":569,"x_min":21,"x_max":542,"o":"m 69 0 l 69 125 l 208 125 l 208 778 l 97 701 l 21 806 l 222 972 l 403 972 l 403 125 l 542 125 l 542 0 l 69 0 z "},"2":{"ha":715,"x_min":28,"x_max":667,"o":"m 28 97 q 63 244 28 178 q 149 358 99 310 q 281 469 200 406 q 385 556 347 522 q 447 633 422 590 q 472 722 472 675 q 431 824 472 786 q 313 861 390 861 q 165 829 232 861 q 118 799 133 811 l 104 799 l 42 910 q 114 947 74 932 q 326 986 204 986 q 581 912 494 986 q 667 708 667 838 q 631 572 667 635 q 544 464 594 510 q 411 356 494 418 q 309 274 346 306 q 247 203 272 242 q 222 125 222 165 l 667 125 l 667 0 l 28 0 l 28 97 z "},"3":{"ha":722,"x_min":7,"x_max":674,"o":"m 292 -14 q 79 24 167 -14 q 7 63 38 40 l 69 174 l 83 174 q 131 142 97 160 q 278 111 194 111 q 479 278 479 111 q 278 458 479 458 l 118 458 l 118 583 l 410 847 l 28 847 l 28 972 l 632 972 l 632 847 l 326 583 q 515 544 438 583 q 633 435 593 504 q 674 278 674 365 q 578 65 674 143 q 292 -14 482 -14 z "},"4":{"ha":778,"x_min":14,"x_max":750,"o":"m 458 0 l 458 222 l 14 222 l 14 347 l 472 972 l 653 972 l 653 347 l 750 347 l 750 222 l 653 222 l 653 0 l 458 0 m 458 347 l 458 639 q 465 696 458 668 q 472 722 467 706 l 467 722 q 460 708 463 715 q 456 694 458 700 q 424 639 440 660 l 208 347 l 458 347 z "},"5":{"ha":750,"x_min":49,"x_max":701,"o":"m 333 -14 q 121 24 208 -14 q 49 63 79 40 l 111 174 l 125 174 q 172 142 139 160 q 319 111 236 111 q 507 299 507 111 q 319 486 507 486 l 144 486 l 90 543 l 90 972 l 651 972 l 651 861 l 285 861 l 285 611 l 340 611 q 611 530 521 611 q 701 299 701 449 q 609 68 701 150 q 333 -14 517 -14 z "},"6":{"ha":778,"x_min":63,"x_max":729,"o":"m 404 -14 q 149 72 236 -14 q 63 319 63 157 l 63 597 q 158 884 63 782 q 417 986 253 986 q 618 947 532 986 q 689 910 657 931 l 626 799 l 613 799 q 565 829 593 814 q 431 861 499 861 q 257 597 257 861 q 300 618 278 608 q 417 639 360 639 q 647 555 564 639 q 729 319 729 471 q 644 72 729 158 q 404 -14 560 -14 m 403 111 q 497 164 460 111 q 535 319 535 217 q 494 465 535 417 q 382 514 453 514 q 293 493 340 514 l 257 472 l 257 319 q 297 163 257 215 q 403 111 336 111 z "},"7":{"ha":667,"x_min":14,"x_max":653,"o":"m 208 125 q 281 532 208 344 q 458 847 353 719 l 14 847 l 14 972 l 653 972 l 653 847 q 475 532 547 719 q 403 125 403 344 l 403 0 l 208 0 l 208 125 z "},"8":{"ha":778,"x_min":35,"x_max":743,"o":"m 389 -14 q 195 21 275 -14 q 75 115 115 56 q 35 250 35 175 q 66 376 35 324 q 146 463 97 429 q 257 514 192 497 q 163 558 206 528 q 69 743 69 622 q 108 863 69 807 q 219 952 147 918 q 389 986 292 986 q 558 952 486 986 q 669 863 631 918 q 708 743 708 807 q 614 558 708 624 q 521 514 569 528 q 632 463 586 497 q 712 376 681 429 q 743 250 743 324 q 703 115 743 175 q 583 21 663 56 q 389 -14 503 -14 m 389 590 q 483 647 453 614 q 514 743 514 679 q 478 826 514 790 q 389 861 442 861 q 300 826 336 861 q 264 743 264 790 q 294 647 264 679 q 389 590 325 614 m 389 111 q 508 149 467 111 q 549 250 549 186 q 508 367 549 326 q 389 438 467 408 q 270 367 311 408 q 229 250 229 326 q 270 149 229 186 q 389 111 311 111 z "},"9":{"ha":778,"x_min":49,"x_max":715,"o":"m 361 -14 q 160 24 242 -14 q 89 63 118 42 l 151 174 l 165 174 q 213 142 183 157 q 347 111 276 111 q 521 375 521 111 q 478 354 501 363 q 361 333 425 333 q 131 417 214 333 q 49 653 49 501 q 133 900 49 814 q 374 986 218 986 q 628 901 542 986 q 715 653 715 815 l 715 375 q 620 88 715 190 q 361 -14 525 -14 m 396 458 q 485 479 443 458 q 521 500 506 489 l 521 653 q 481 809 521 757 q 375 861 442 861 q 281 808 318 861 q 243 653 243 756 q 284 507 243 556 q 396 458 325 458 z "},"\u0000":{"ha":0,"x_min":0,"x_max":0,"o":""},"\r":{"ha":417,"x_min":0,"x_max":0,"o":""}," ":{"ha":417,"x_min":0,"x_max":0,"o":""},"A":{"ha":833,"x_min":21,"x_max":813,"o":"m 21 0 l 306 972 l 528 972 l 813 0 l 618 0 l 556 222 l 278 222 l 215 0 l 21 0 m 521 347 l 438 639 q 429 676 433 654 q 424 707 425 697 l 419 743 l 414 743 l 408 707 q 402 673 406 694 q 396 639 399 651 l 313 347 l 521 347 z "},"Á":{"ha":833,"x_min":21,"x_max":813,"o":"m 21 0 l 306 972 l 528 972 l 813 0 l 618 0 l 556 222 l 278 222 l 215 0 l 21 0 m 521 347 l 438 639 q 429 676 433 654 q 424 707 425 697 l 419 743 l 414 743 l 408 707 q 402 673 406 694 q 396 639 399 651 l 313 347 l 521 347 m 329 1042 l 392 1250 l 579 1250 l 440 1042 l 329 1042 z "},"Ă":{"ha":833,"x_min":21,"x_max":813,"o":"m 21 0 l 306 972 l 528 972 l 813 0 l 618 0 l 556 222 l 278 222 l 215 0 l 21 0 m 521 347 l 438 639 q 429 676 433 654 q 424 707 425 697 l 419 743 l 414 743 l 408 707 q 402 673 406 694 q 396 639 399 651 l 313 347 l 521 347 m 417 1056 q 249 1105 303 1056 q 194 1250 194 1154 l 347 1250 q 417 1153 347 1153 q 486 1250 486 1153 l 639 1250 q 585 1105 639 1154 q 417 1056 531 1056 z "},"Â":{"ha":833,"x_min":21,"x_max":813,"o":"m 21 0 l 306 972 l 528 972 l 813 0 l 618 0 l 556 222 l 278 222 l 215 0 l 21 0 m 521 347 l 438 639 q 429 676 433 654 q 424 707 425 697 l 419 743 l 414 743 l 408 707 q 402 673 406 694 q 396 639 399 651 l 313 347 l 521 347 m 194 1042 l 347 1228 l 486 1228 l 639 1042 l 507 1042 l 417 1139 l 326 1042 l 194 1042 z "},"Ä":{"ha":833,"x_min":21,"x_max":813,"o":"m 21 0 l 306 972 l 528 972 l 813 0 l 618 0 l 556 222 l 278 222 l 215 0 l 21 0 m 521 347 l 438 639 q 429 676 433 654 q 424 707 425 697 l 419 743 l 414 743 l 408 707 q 402 673 406 694 q 396 639 399 651 l 313 347 l 521 347 m 278 1056 q 210 1085 239 1056 q 181 1153 181 1114 q 210 1221 181 1192 q 278 1250 239 1250 q 346 1221 317 1250 q 375 1153 375 1192 q 346 1085 375 1114 q 278 1056 317 1056 m 549 1056 q 481 1085 510 1056 q 451 1153 451 1114 q 481 1221 451 1192 q 549 1250 510 1250 q 617 1221 588 1250 q 646 1153 646 1192 q 617 1085 646 1114 q 549 1056 588 1056 z "},"À":{"ha":833,"x_min":21,"x_max":813,"o":"m 21 0 l 306 972 l 528 972 l 813 0 l 618 0 l 556 222 l 278 222 l 215 0 l 21 0 m 521 347 l 438 639 q 429 676 433 654 q 424 707 425 697 l 419 743 l 414 743 l 408 707 q 402 673 406 694 q 396 639 399 651 l 313 347 l 521 347 m 378 1042 l 239 1250 l 426 1250 l 489 1042 l 378 1042 z "},"Ā":{"ha":833,"x_min":21,"x_max":813,"o":"m 21 0 l 306 972 l 528 972 l 813 0 l 618 0 l 556 222 l 278 222 l 215 0 l 21 0 m 521 347 l 438 639 q 429 676 433 654 q 424 707 425 697 l 419 743 l 414 743 l 408 707 q 402 673 406 694 q 396 639 399 651 l 313 347 l 521 347 m 215 1056 l 215 1181 l 618 1181 l 618 1056 l 215 1056 z "},"Ą":{"ha":833,"x_min":21,"x_max":861,"o":"m 21 0 l 306 972 l 528 972 l 813 0 l 618 0 l 556 222 l 278 222 l 215 0 l 21 0 m 521 347 l 438 639 q 429 676 433 654 q 424 707 425 697 l 419 743 l 414 743 l 408 707 q 402 673 406 694 q 396 639 399 651 l 313 347 l 521 347 m 750 -257 q 635 -224 672 -257 q 597 -132 597 -192 q 636 -37 597 -82 q 675 0 654 -15 l 819 0 q 771 -32 793 -14 q 722 -111 722 -71 q 738 -146 722 -132 q 778 -160 753 -160 q 813 -153 796 -160 q 838 -139 829 -146 q 849 -129 847 -132 l 861 -129 l 861 -222 q 832 -240 846 -235 q 750 -257 796 -257 z "},"Å":{"ha":833,"x_min":21,"x_max":813,"o":"m 21 0 l 306 972 l 528 972 l 813 0 l 618 0 l 556 222 l 278 222 l 215 0 l 21 0 m 521 347 l 438 639 q 429 676 433 654 q 424 707 425 697 l 419 743 l 414 743 l 408 707 q 402 673 406 694 q 396 639 399 651 l 313 347 l 521 347 m 417 1035 q 307 1076 350 1035 q 264 1181 264 1118 q 307 1285 264 1243 q 417 1326 350 1326 q 526 1285 483 1326 q 569 1181 569 1243 q 526 1076 569 1118 q 417 1035 483 1035 m 417 1125 q 451 1140 438 1125 q 465 1181 465 1156 q 451 1221 465 1206 q 417 1236 438 1236 q 382 1221 396 1236 q 368 1181 368 1206 q 382 1140 368 1156 q 417 1125 396 1125 z "},"Ã":{"ha":833,"x_min":21,"x_max":813,"o":"m 21 0 l 306 972 l 528 972 l 813 0 l 618 0 l 556 222 l 278 222 l 215 0 l 21 0 m 521 347 l 438 639 q 429 676 433 654 q 424 707 425 697 l 419 743 l 414 743 l 408 707 q 402 673 406 694 q 396 639 399 651 l 313 347 l 521 347 m 625 1188 q 582 1090 619 1132 q 493 1049 544 1049 q 446 1058 465 1049 q 399 1085 426 1067 q 367 1105 379 1099 q 340 1111 356 1111 q 313 1099 325 1111 q 293 1073 300 1086 q 285 1056 286 1060 l 272 1056 l 194 1097 q 238 1194 200 1153 q 326 1236 275 1236 q 374 1227 354 1236 q 421 1200 393 1218 q 452 1180 440 1186 q 479 1174 464 1174 q 507 1185 494 1174 q 528 1213 519 1197 q 535 1229 536 1228 l 547 1229 l 625 1188 z "},"Æ":{"ha":1174,"x_min":-35,"x_max":1139,"o":"m -35 0 l 375 972 l 1139 972 l 1139 847 l 750 847 l 750 569 l 1056 569 l 1056 444 l 750 444 l 750 125 l 1139 125 l 1139 0 l 556 0 l 556 264 l 271 264 l 160 0 l -35 0 m 326 389 l 556 389 l 556 847 l 514 847 l 326 389 z "},"B":{"ha":847,"x_min":118,"x_max":778,"o":"m 118 972 l 410 972 q 659 904 575 972 q 743 722 743 836 q 656 550 743 610 q 569 514 617 524 q 674 474 626 504 q 748 394 718 444 q 778 271 778 344 q 410 0 778 0 l 118 0 l 118 972 m 410 569 q 510 608 472 569 q 549 708 549 646 q 510 809 549 771 q 410 847 472 847 l 313 847 l 313 569 l 410 569 m 410 125 q 583 285 583 125 q 410 444 583 444 l 313 444 l 313 125 l 410 125 z "},"C":{"ha":743,"x_min":69,"x_max":715,"o":"m 458 -14 q 169 107 269 -14 q 69 486 69 228 q 167 865 69 743 q 444 986 265 986 q 633 947 550 986 q 701 910 671 932 l 639 799 l 625 799 q 581 829 610 813 q 458 861 519 861 q 315 776 367 861 q 264 486 264 692 q 317 195 264 279 q 472 111 371 111 q 594 142 536 111 q 639 174 625 160 l 653 174 l 715 63 q 647 24 688 40 q 458 -14 567 -14 z "},"Ć":{"ha":743,"x_min":69,"x_max":715,"o":"m 458 -14 q 169 107 269 -14 q 69 486 69 228 q 167 865 69 743 q 444 986 265 986 q 633 947 550 986 q 701 910 671 932 l 639 799 l 625 799 q 581 829 610 813 q 458 861 519 861 q 315 776 367 861 q 264 486 264 692 q 317 195 264 279 q 472 111 371 111 q 594 142 536 111 q 639 174 625 160 l 653 174 l 715 63 q 647 24 688 40 q 458 -14 567 -14 m 375 1042 l 438 1250 l 625 1250 l 486 1042 l 375 1042 z "},"Č":{"ha":743,"x_min":69,"x_max":715,"o":"m 458 -14 q 169 107 269 -14 q 69 486 69 228 q 167 865 69 743 q 444 986 265 986 q 633 947 550 986 q 701 910 671 932 l 639 799 l 625 799 q 581 829 610 813 q 458 861 519 861 q 315 776 367 861 q 264 486 264 692 q 317 195 264 279 q 472 111 371 111 q 594 142 536 111 q 639 174 625 160 l 653 174 l 715 63 q 647 24 688 40 q 458 -14 567 -14 m 350 1064 l 197 1250 l 329 1250 l 419 1153 l 510 1250 l 642 1250 l 489 1064 l 350 1064 z "},"Ç":{"ha":743,"x_min":69,"x_max":715,"o":"m 647 24 q 465 -14 574 -12 l 465 -35 q 560 -69 522 -35 q 597 -153 597 -104 q 556 -237 597 -203 q 444 -271 515 -271 q 360 -257 401 -271 q 326 -243 338 -250 l 356 -174 l 368 -174 q 378 -180 369 -175 q 401 -190 386 -185 q 431 -194 415 -194 q 466 -184 453 -194 q 479 -153 479 -174 q 466 -122 479 -133 q 431 -111 453 -111 l 361 -111 l 361 -6 q 69 486 69 54 q 167 865 69 743 q 444 986 265 986 q 633 947 550 986 q 701 910 671 932 l 639 799 l 625 799 q 581 829 610 813 q 458 861 519 861 q 315 776 367 861 q 264 486 264 692 q 317 195 264 279 q 472 111 371 111 q 594 142 536 111 q 639 174 625 160 l 653 174 l 715 63 q 647 24 688 40 z "},"D":{"ha":854,"x_min":118,"x_max":785,"o":"m 118 972 l 354 972 q 785 486 785 972 q 354 0 785 0 l 118 0 l 118 972 m 354 125 q 485 158 433 125 q 564 271 538 192 q 590 486 590 350 q 564 701 590 622 q 485 814 538 781 q 354 847 433 847 l 313 847 l 313 125 l 354 125 z "},"Ð":{"ha":861,"x_min":49,"x_max":792,"o":"m 125 431 l 49 431 l 49 569 l 125 569 l 125 972 l 361 972 q 792 486 792 972 q 361 0 792 0 l 125 0 l 125 431 m 361 125 q 492 158 440 125 q 571 271 544 192 q 597 486 597 350 q 571 701 597 622 q 492 814 544 781 q 361 847 440 847 l 319 847 l 319 569 l 451 569 l 451 431 l 319 431 l 319 125 l 361 125 z "},"Ď":{"ha":854,"x_min":118,"x_max":785,"o":"m 118 972 l 354 972 q 785 486 785 972 q 354 0 785 0 l 118 0 l 118 972 m 354 125 q 485 158 433 125 q 564 271 538 192 q 590 486 590 350 q 564 701 590 622 q 485 814 538 781 q 354 847 433 847 l 313 847 l 313 125 l 354 125 m 322 1064 l 169 1250 l 301 1250 l 392 1153 l 482 1250 l 614 1250 l 461 1064 l 322 1064 z "},"Đ":{"ha":861,"x_min":49,"x_max":792,"o":"m 125 431 l 49 431 l 49 569 l 125 569 l 125 972 l 361 972 q 792 486 792 972 q 361 0 792 0 l 125 0 l 125 431 m 361 125 q 492 158 440 125 q 571 271 544 192 q 597 486 597 350 q 571 701 597 622 q 492 814 544 781 q 361 847 440 847 l 319 847 l 319 569 l 451 569 l 451 431 l 319 431 l 319 125 l 361 125 z "},"E":{"ha":736,"x_min":118,"x_max":701,"o":"m 118 0 l 118 972 l 701 972 l 701 847 l 313 847 l 313 569 l 618 569 l 618 444 l 313 444 l 313 125 l 701 125 l 701 0 l 118 0 z "},"É":{"ha":736,"x_min":118,"x_max":701,"o":"m 118 0 l 118 972 l 701 972 l 701 847 l 313 847 l 313 569 l 618 569 l 618 444 l 313 444 l 313 125 l 701 125 l 701 0 l 118 0 m 319 1042 l 382 1250 l 569 1250 l 431 1042 l 319 1042 z "},"Ě":{"ha":736,"x_min":118,"x_max":701,"o":"m 118 0 l 118 972 l 701 972 l 701 847 l 313 847 l 313 569 l 618 569 l 618 444 l 313 444 l 313 125 l 701 125 l 701 0 l 118 0 m 364 1064 l 211 1250 l 343 1250 l 433 1153 l 524 1250 l 656 1250 l 503 1064 l 364 1064 z "},"Ê":{"ha":736,"x_min":118,"x_max":701,"o":"m 118 0 l 118 972 l 701 972 l 701 847 l 313 847 l 313 569 l 618 569 l 618 444 l 313 444 l 313 125 l 701 125 l 701 0 l 118 0 m 197 1056 l 350 1242 l 489 1242 l 642 1056 l 510 1056 l 419 1153 l 329 1056 l 197 1056 z "},"Ë":{"ha":736,"x_min":118,"x_max":701,"o":"m 118 0 l 118 972 l 701 972 l 701 847 l 313 847 l 313 569 l 618 569 l 618 444 l 313 444 l 313 125 l 701 125 l 701 0 l 118 0 m 281 1069 q 213 1099 242 1069 q 183 1167 183 1128 q 213 1235 183 1206 q 281 1264 242 1264 q 349 1235 319 1264 q 378 1167 378 1206 q 349 1099 378 1128 q 281 1069 319 1069 m 551 1069 q 483 1099 513 1069 q 454 1167 454 1128 q 483 1235 454 1206 q 551 1264 513 1264 q 619 1235 590 1264 q 649 1167 649 1206 q 619 1099 649 1128 q 551 1069 590 1069 z "},"Ė":{"ha":722,"x_min":118,"x_max":701,"o":"m 118 0 l 118 972 l 701 972 l 701 847 l 313 847 l 313 569 l 618 569 l 618 444 l 313 444 l 313 125 l 701 125 l 701 0 l 118 0 m 419 1056 q 347 1087 378 1056 q 315 1160 315 1118 q 347 1233 315 1201 q 419 1264 378 1264 q 492 1233 461 1264 q 524 1160 524 1201 q 492 1087 524 1118 q 419 1056 461 1056 z "},"È":{"ha":736,"x_min":118,"x_max":701,"o":"m 118 0 l 118 972 l 701 972 l 701 847 l 313 847 l 313 569 l 618 569 l 618 444 l 313 444 l 313 125 l 701 125 l 701 0 l 118 0 m 396 1042 l 257 1250 l 444 1250 l 507 1042 l 396 1042 z "},"Ē":{"ha":722,"x_min":118,"x_max":701,"o":"m 118 0 l 118 972 l 701 972 l 701 847 l 313 847 l 313 569 l 618 569 l 618 444 l 313 444 l 313 125 l 701 125 l 701 0 l 118 0 m 204 1069 l 204 1194 l 607 1194 l 607 1069 l 204 1069 z "},"Ę":{"ha":736,"x_min":118,"x_max":701,"o":"m 118 0 l 118 972 l 701 972 l 701 847 l 313 847 l 313 569 l 618 569 l 618 444 l 313 444 l 313 125 l 701 125 l 701 0 l 118 0 m 451 -257 q 336 -224 374 -257 q 299 -132 299 -192 q 338 -37 299 -82 q 376 0 356 -15 l 521 0 q 472 -32 494 -14 q 424 -111 424 -71 q 439 -146 424 -132 q 479 -160 454 -160 q 514 -153 497 -160 q 540 -139 531 -146 q 550 -129 549 -132 l 563 -129 l 563 -222 q 533 -240 547 -235 q 451 -257 497 -257 z "},"F":{"ha":729,"x_min":118,"x_max":701,"o":"m 118 0 l 118 972 l 701 972 l 701 847 l 313 847 l 313 556 l 618 556 l 618 431 l 313 431 l 313 0 l 118 0 z "},"G":{"ha":819,"x_min":69,"x_max":736,"o":"m 458 -14 q 169 107 269 -14 q 69 486 69 228 q 167 865 69 743 q 444 986 265 986 q 633 947 550 986 q 701 910 671 932 l 639 799 l 625 799 q 581 829 610 813 q 458 861 519 861 q 315 776 367 861 q 264 486 264 692 q 317 195 264 279 q 472 111 371 111 q 519 118 496 111 q 542 125 529 119 l 542 417 l 396 417 l 396 542 l 681 542 l 736 486 l 736 63 q 665 24 708 42 q 458 -14 578 -14 z "},"Ğ":{"ha":819,"x_min":69,"x_max":736,"o":"m 458 -14 q 169 107 269 -14 q 69 486 69 228 q 167 865 69 743 q 444 986 265 986 q 633 947 550 986 q 701 910 671 932 l 639 799 l 625 799 q 581 829 610 813 q 458 861 519 861 q 315 776 367 861 q 264 486 264 692 q 317 195 264 279 q 472 111 371 111 q 519 118 496 111 q 542 125 529 119 l 542 417 l 396 417 l 396 542 l 681 542 l 736 486 l 736 63 q 665 24 708 42 q 458 -14 578 -14 m 433 1042 q 265 1091 319 1042 q 211 1236 211 1140 l 364 1236 q 433 1139 364 1139 q 503 1236 503 1139 l 656 1236 q 601 1091 656 1140 q 433 1042 547 1042 z "},"Ģ":{"ha":819,"x_min":69,"x_max":736,"o":"m 458 -14 q 169 107 269 -14 q 69 486 69 228 q 167 865 69 743 q 444 986 265 986 q 633 947 550 986 q 701 910 671 932 l 639 799 l 625 799 q 581 829 610 813 q 458 861 519 861 q 315 776 367 861 q 264 486 264 692 q 317 195 264 279 q 472 111 371 111 q 519 118 496 111 q 542 125 529 119 l 542 417 l 396 417 l 396 542 l 681 542 l 736 486 l 736 63 q 665 24 708 42 q 458 -14 578 -14 m 392 -354 q 429 -321 413 -340 q 468 -242 468 -282 q 398 -217 425 -242 q 371 -158 371 -193 q 396 -94 371 -121 q 454 -68 421 -68 q 525 -96 499 -68 q 551 -172 551 -124 q 492 -347 551 -271 q 433 -401 467 -381 l 392 -354 z "},"H":{"ha":917,"x_min":118,"x_max":799,"o":"m 118 0 l 118 972 l 313 972 l 313 556 l 604 556 l 604 972 l 799 972 l 799 0 l 604 0 l 604 431 l 313 431 l 313 0 l 118 0 z "},"I":{"ha":431,"x_min":118,"x_max":313,"o":"m 118 0 l 118 972 l 313 972 l 313 0 l 118 0 z "},"Í":{"ha":399,"x_min":118,"x_max":378,"o":"m 118 0 l 118 972 l 313 972 l 313 0 l 118 0 m 128 1042 l 190 1250 l 378 1250 l 239 1042 l 128 1042 z "},"Î":{"ha":403,"x_min":-19,"x_max":425,"o":"m 118 0 l 118 972 l 313 972 l 313 0 l 118 0 m -19 1056 l 133 1242 l 272 1242 l 425 1056 l 293 1056 l 203 1153 l 113 1056 l -19 1056 z "},"Ï":{"ha":431,"x_min":-19,"x_max":446,"o":"m 118 0 l 118 972 l 313 972 l 313 0 l 118 0 m 78 1069 q 10 1099 39 1069 q -19 1167 -19 1128 q 10 1235 -19 1206 q 78 1264 39 1264 q 146 1235 117 1264 q 175 1167 175 1206 q 146 1099 175 1128 q 78 1069 117 1069 m 349 1069 q 281 1099 310 1069 q 251 1167 251 1128 q 281 1235 251 1206 q 349 1264 310 1264 q 417 1235 388 1264 q 446 1167 446 1206 q 417 1099 446 1128 q 349 1069 388 1069 z "},"İ":{"ha":417,"x_min":104,"x_max":313,"o":"m 118 0 l 118 972 l 313 972 l 313 0 l 118 0 m 208 1056 q 135 1087 167 1056 q 104 1160 104 1118 q 135 1233 104 1201 q 208 1264 167 1264 q 281 1233 250 1264 q 313 1160 313 1201 q 281 1087 313 1118 q 208 1056 250 1056 z "},"Ì":{"ha":400,"x_min":21,"x_max":313,"o":"m 118 0 l 118 972 l 313 972 l 313 0 l 118 0 m 160 1042 l 21 1250 l 208 1250 l 271 1042 l 160 1042 z "},"Ī":{"ha":417,"x_min":8,"x_max":411,"o":"m 118 0 l 118 972 l 313 972 l 313 0 l 118 0 m 8 1056 l 8 1181 l 411 1181 l 411 1056 l 8 1056 z "},"Į":{"ha":438,"x_min":97,"x_max":361,"o":"m 118 0 l 118 972 l 313 972 l 313 0 l 118 0 m 250 -257 q 135 -224 172 -257 q 97 -132 97 -192 q 136 -37 97 -82 q 175 0 154 -15 l 319 0 q 271 -32 293 -14 q 222 -111 222 -71 q 238 -146 222 -132 q 278 -160 253 -160 q 313 -153 296 -160 q 338 -139 329 -146 q 349 -129 347 -132 l 361 -129 l 361 -222 q 332 -240 346 -235 q 250 -257 296 -257 z "},"Ĩ":{"ha":424,"x_min":-6,"x_max":425,"o":"m 118 0 l 118 972 l 313 972 l 313 0 l 118 0 m 425 1229 q 382 1132 419 1174 q 293 1090 344 1090 q 246 1099 265 1090 q 199 1126 226 1108 q 167 1147 179 1140 q 140 1153 156 1153 q 113 1140 125 1153 q 93 1115 100 1128 q 85 1097 86 1101 l 72 1097 l -6 1139 q 38 1236 0 1194 q 126 1278 75 1278 q 174 1269 154 1278 q 221 1242 193 1260 q 252 1222 240 1228 q 279 1215 264 1215 q 307 1227 294 1215 q 328 1254 319 1239 q 335 1271 336 1269 l 347 1271 l 425 1229 z "},"J":{"ha":625,"x_min":0,"x_max":521,"o":"m 208 -14 q 63 17 138 -14 q 0 49 22 33 l 56 167 l 69 167 q 108 139 94 147 q 194 111 151 111 q 326 264 326 111 l 326 972 l 521 972 l 521 264 q 439 61 521 136 q 208 -14 357 -14 z "},"Ĵ":{"ha":625,"x_min":0,"x_max":639,"o":"m 208 -14 q 63 17 138 -14 q 0 49 22 33 l 56 167 l 69 167 q 108 139 94 147 q 194 111 151 111 q 326 264 326 111 l 326 972 l 521 972 l 521 264 q 439 61 521 136 q 208 -14 357 -14 m 194 1028 l 347 1214 l 486 1214 l 639 1028 l 507 1028 l 417 1125 l 326 1028 l 194 1028 z "},"K":{"ha":813,"x_min":118,"x_max":806,"o":"m 118 0 l 118 972 l 313 972 l 313 542 l 569 972 l 785 972 l 493 507 l 806 0 l 583 0 l 313 458 l 313 0 l 118 0 z "},"Ķ":{"ha":813,"x_min":118,"x_max":806,"o":"m 118 0 l 118 972 l 313 972 l 313 542 l 569 972 l 785 972 l 493 507 l 806 0 l 583 0 l 313 458 l 313 0 l 118 0 m 371 -286 q 408 -253 392 -272 q 447 -174 447 -214 q 377 -149 404 -174 q 350 -90 350 -125 q 375 -26 350 -53 q 433 0 400 0 q 504 -28 478 0 q 531 -104 531 -56 q 471 -279 531 -203 q 413 -333 446 -312 l 371 -286 z "},"L":{"ha":701,"x_min":118,"x_max":688,"o":"m 118 0 l 118 972 l 313 972 l 313 125 l 688 125 l 688 0 l 118 0 z "},"Ĺ":{"ha":701,"x_min":118,"x_max":688,"o":"m 118 0 l 118 972 l 313 972 l 313 125 l 688 125 l 688 0 l 118 0 m 167 1042 l 229 1250 l 417 1250 l 278 1042 l 167 1042 z "},"Ľ":{"ha":701,"x_min":118,"x_max":688,"o":"m 118 0 l 118 972 l 313 972 l 313 125 l 688 125 l 688 0 l 118 0 m 410 686 q 447 719 431 701 q 486 799 486 758 q 416 823 443 799 q 389 882 389 847 q 414 946 389 919 q 472 972 439 972 q 543 944 517 972 q 569 868 569 917 q 510 693 569 769 q 451 639 485 660 l 410 686 z "},"Ļ":{"ha":701,"x_min":118,"x_max":688,"o":"m 118 0 l 118 972 l 313 972 l 313 125 l 688 125 l 688 0 l 118 0 m 350 -354 q 388 -321 371 -340 q 426 -242 426 -282 q 356 -217 383 -242 q 329 -158 329 -193 q 354 -94 329 -121 q 413 -68 379 -68 q 483 -96 457 -68 q 510 -172 510 -124 q 450 -347 510 -271 q 392 -401 425 -381 l 350 -354 z "},"Ł":{"ha":708,"x_min":49,"x_max":694,"o":"m 125 0 l 125 347 l 49 292 l 49 472 l 125 528 l 125 972 l 319 972 l 319 671 l 444 764 l 444 583 l 319 490 l 319 125 l 694 125 l 694 0 l 125 0 z "},"M":{"ha":1208,"x_min":118,"x_max":1090,"o":"m 118 972 l 306 972 l 576 424 q 594 378 590 393 l 601 354 l 607 354 l 614 378 q 632 424 618 393 l 903 972 l 1090 972 l 1090 0 l 896 0 l 896 576 q 899 638 896 619 l 903 668 l 897 668 q 888 638 890 644 q 861 576 871 596 l 646 160 l 549 160 l 347 563 q 321 624 331 597 q 311 654 318 631 l 306 654 l 308 624 q 313 563 313 569 l 313 0 l 118 0 l 118 972 z "},"N":{"ha":917,"x_min":118,"x_max":799,"o":"m 118 972 l 326 972 l 569 389 l 594 328 l 606 299 l 611 299 l 607 328 q 604 389 604 344 l 604 972 l 799 972 l 799 0 l 590 0 l 347 583 l 322 644 l 311 674 l 306 674 l 308 644 q 313 583 313 590 l 313 0 l 118 0 l 118 972 z "},"Ń":{"ha":917,"x_min":118,"x_max":799,"o":"m 118 972 l 326 972 l 569 389 l 594 328 l 606 299 l 611 299 l 607 328 q 604 389 604 344 l 604 972 l 799 972 l 799 0 l 590 0 l 347 583 l 322 644 l 311 674 l 306 674 l 308 644 q 313 583 313 590 l 313 0 l 118 0 l 118 972 m 371 1028 l 433 1236 l 621 1236 l 482 1028 l 371 1028 z "},"Ň":{"ha":917,"x_min":118,"x_max":799,"o":"m 118 972 l 326 972 l 569 389 l 594 328 l 606 299 l 611 299 l 607 328 q 604 389 604 344 l 604 972 l 799 972 l 799 0 l 590 0 l 347 583 l 322 644 l 311 674 l 306 674 l 308 644 q 313 583 313 590 l 313 0 l 118 0 l 118 972 m 389 1050 l 236 1236 l 368 1236 l 458 1139 l 549 1236 l 681 1236 l 528 1050 l 389 1050 z "},"Ņ":{"ha":917,"x_min":118,"x_max":799,"o":"m 118 972 l 326 972 l 569 389 l 594 328 l 606 299 l 611 299 l 607 328 q 604 389 604 344 l 604 972 l 799 972 l 799 0 l 590 0 l 347 583 l 322 644 l 311 674 l 306 674 l 308 644 q 313 583 313 590 l 313 0 l 118 0 l 118 972 m 389 -286 q 426 -253 410 -272 q 465 -174 465 -214 q 395 -149 422 -174 q 368 -90 368 -125 q 393 -26 368 -53 q 451 0 418 0 q 522 -28 496 0 q 549 -104 549 -56 q 489 -279 549 -203 q 431 -333 464 -312 l 389 -286 z "},"Ñ":{"ha":889,"x_min":118,"x_max":799,"o":"m 118 972 l 326 972 l 569 389 l 594 328 l 606 299 l 611 299 l 607 328 q 604 389 604 344 l 604 972 l 799 972 l 799 0 l 590 0 l 347 583 l 322 644 l 311 674 l 306 674 l 308 644 q 313 583 313 590 l 313 0 l 118 0 l 118 972 m 653 1188 q 610 1090 647 1132 q 521 1049 572 1049 q 474 1058 493 1049 q 426 1085 454 1067 q 395 1105 407 1099 q 368 1111 383 1111 q 340 1099 353 1111 q 321 1073 328 1086 q 313 1056 314 1060 l 300 1056 l 222 1097 q 265 1194 228 1153 q 354 1236 303 1236 q 401 1227 382 1236 q 449 1200 421 1218 q 480 1180 468 1186 q 507 1174 492 1174 q 535 1185 522 1174 q 556 1213 547 1197 q 563 1229 564 1228 l 575 1229 l 653 1188 z "},"O":{"ha":875,"x_min":69,"x_max":806,"o":"m 438 -14 q 167 108 264 -14 q 69 486 69 229 q 167 865 69 743 q 438 986 264 986 q 708 865 611 986 q 806 486 806 743 q 708 108 806 229 q 438 -14 611 -14 m 438 111 q 563 197 514 111 q 611 486 611 283 q 563 775 611 689 q 438 861 514 861 q 313 775 361 861 q 264 486 264 689 q 313 197 264 283 q 438 111 361 111 z "},"Ó":{"ha":875,"x_min":69,"x_max":806,"o":"m 438 -14 q 167 108 264 -14 q 69 486 69 229 q 167 865 69 743 q 438 986 264 986 q 708 865 611 986 q 806 486 806 743 q 708 108 806 229 q 438 -14 611 -14 m 438 111 q 563 197 514 111 q 611 486 611 283 q 563 775 611 689 q 438 861 514 861 q 313 775 361 861 q 264 486 264 689 q 313 197 264 283 q 438 111 361 111 m 350 1042 l 413 1250 l 600 1250 l 461 1042 l 350 1042 z "},"Ô":{"ha":875,"x_min":69,"x_max":806,"o":"m 438 -14 q 167 108 264 -14 q 69 486 69 229 q 167 865 69 743 q 438 986 264 986 q 708 865 611 986 q 806 486 806 743 q 708 108 806 229 q 438 -14 611 -14 m 438 111 q 563 197 514 111 q 611 486 611 283 q 563 775 611 689 q 438 861 514 861 q 313 775 361 861 q 264 486 264 689 q 313 197 264 283 q 438 111 361 111 m 215 1056 l 368 1242 l 507 1242 l 660 1056 l 528 1056 l 438 1153 l 347 1056 l 215 1056 z "},"Ö":{"ha":875,"x_min":69,"x_max":806,"o":"m 438 -14 q 167 108 264 -14 q 69 486 69 229 q 167 865 69 743 q 438 986 264 986 q 708 865 611 986 q 806 486 806 743 q 708 108 806 229 q 438 -14 611 -14 m 438 111 q 563 197 514 111 q 611 486 611 283 q 563 775 611 689 q 438 861 514 861 q 313 775 361 861 q 264 486 264 689 q 313 197 264 283 q 438 111 361 111 m 299 1069 q 231 1099 260 1069 q 201 1167 201 1128 q 231 1235 201 1206 q 299 1264 260 1264 q 367 1235 338 1264 q 396 1167 396 1206 q 367 1099 396 1128 q 299 1069 338 1069 m 569 1069 q 501 1099 531 1069 q 472 1167 472 1128 q 501 1235 472 1206 q 569 1264 531 1264 q 638 1235 608 1264 q 667 1167 667 1206 q 638 1099 667 1128 q 569 1069 608 1069 z "},"Ò":{"ha":875,"x_min":69,"x_max":806,"o":"m 438 -14 q 167 108 264 -14 q 69 486 69 229 q 167 865 69 743 q 438 986 264 986 q 708 865 611 986 q 806 486 806 743 q 708 108 806 229 q 438 -14 611 -14 m 438 111 q 563 197 514 111 q 611 486 611 283 q 563 775 611 689 q 438 861 514 861 q 313 775 361 861 q 264 486 264 689 q 313 197 264 283 q 438 111 361 111 m 413 1042 l 274 1250 l 461 1250 l 524 1042 l 413 1042 z "},"Ő":{"ha":875,"x_min":69,"x_max":806,"o":"m 438 -14 q 167 108 264 -14 q 69 486 69 229 q 167 865 69 743 q 438 986 264 986 q 708 865 611 986 q 806 486 806 743 q 708 108 806 229 q 438 -14 611 -14 m 438 111 q 563 197 514 111 q 611 486 611 283 q 563 775 611 689 q 438 861 514 861 q 313 775 361 861 q 264 486 264 689 q 313 197 264 283 q 438 111 361 111 m 281 1042 l 343 1250 l 496 1250 l 371 1042 l 281 1042 m 496 1042 l 558 1250 l 711 1250 l 586 1042 l 496 1042 z "},"Ō":{"ha":875,"x_min":69,"x_max":806,"o":"m 438 -14 q 167 108 264 -14 q 69 486 69 229 q 167 865 69 743 q 438 986 264 986 q 708 865 611 986 q 806 486 806 743 q 708 108 806 229 q 438 -14 611 -14 m 438 111 q 563 197 514 111 q 611 486 611 283 q 563 775 611 689 q 438 861 514 861 q 313 775 361 861 q 264 486 264 689 q 313 197 264 283 q 438 111 361 111 m 236 1069 l 236 1194 l 639 1194 l 639 1069 l 236 1069 z "},"Ø":{"ha":875,"x_min":69,"x_max":806,"o":"m 438 -14 q 249 33 329 -14 l 229 0 l 69 0 l 149 133 q 69 486 69 260 q 167 865 69 743 q 438 986 264 986 q 625 939 549 986 l 646 972 l 806 972 l 726 839 q 806 486 806 710 q 708 108 806 229 q 438 -14 611 -14 m 544 803 q 438 861 501 861 q 313 775 361 861 q 264 486 264 689 q 272 342 264 403 l 544 803 m 438 111 q 563 197 514 111 q 611 486 611 283 q 603 629 611 569 l 329 169 q 438 111 372 111 z "},"Õ":{"ha":875,"x_min":69,"x_max":806,"o":"m 438 -14 q 167 108 264 -14 q 69 486 69 229 q 167 865 69 743 q 438 986 264 986 q 708 865 611 986 q 806 486 806 743 q 708 108 806 229 q 438 -14 611 -14 m 438 111 q 563 197 514 111 q 611 486 611 283 q 563 775 611 689 q 438 861 514 861 q 313 775 361 861 q 264 486 264 689 q 313 197 264 283 q 438 111 361 111 m 646 1201 q 603 1104 640 1146 q 514 1063 565 1063 q 467 1072 486 1063 q 419 1099 447 1081 q 388 1119 400 1113 q 361 1125 376 1125 q 333 1113 346 1125 q 314 1087 321 1100 q 306 1069 307 1074 l 293 1069 l 215 1111 q 258 1208 221 1167 q 347 1250 296 1250 q 394 1241 375 1250 q 442 1214 414 1232 q 473 1194 461 1200 q 500 1188 485 1188 q 528 1199 515 1188 q 549 1226 540 1211 q 556 1243 557 1242 l 568 1243 l 646 1201 z "},"Œ":{"ha":1160,"x_min":69,"x_max":1125,"o":"m 514 0 q 181 119 292 0 q 69 486 69 239 q 181 853 69 733 q 514 972 292 972 l 1125 972 l 1125 847 l 750 847 l 750 569 l 1042 569 l 1042 444 l 750 444 l 750 125 l 1125 125 l 1125 0 l 514 0 m 556 125 l 556 847 l 514 847 q 372 814 426 847 q 291 702 318 781 q 264 486 264 624 q 291 270 264 349 q 372 158 318 192 q 514 125 426 125 l 556 125 z "},"P":{"ha":826,"x_min":118,"x_max":771,"o":"m 118 972 l 396 972 q 681 892 592 972 q 771 646 771 811 q 681 400 771 481 q 396 319 592 319 l 313 319 l 313 0 l 118 0 l 118 972 m 396 444 q 534 491 492 444 q 576 646 576 538 q 534 801 576 754 q 396 847 492 847 l 313 847 l 313 444 l 396 444 z "},"Þ":{"ha":896,"x_min":118,"x_max":840,"o":"m 118 1000 l 313 1000 l 313 903 l 410 903 q 640 852 543 903 q 789 708 738 801 q 840 486 840 614 q 789 265 840 358 q 640 120 738 171 q 410 69 543 69 l 313 69 l 313 -28 l 118 -28 l 118 1000 m 410 194 q 582 269 518 194 q 646 486 646 344 q 582 703 646 628 q 410 778 518 778 l 313 778 l 313 194 l 410 194 z "},"Q":{"ha":875,"x_min":69,"x_max":806,"o":"m 590 -229 q 460 -199 517 -229 q 372 -117 403 -169 q 340 0 340 -65 q 69 486 69 65 q 167 865 69 743 q 438 986 264 986 q 708 865 611 986 q 806 486 806 743 q 535 0 806 65 q 556 -77 535 -50 q 604 -104 576 -104 q 640 -97 629 -104 q 651 -90 642 -97 l 665 -90 l 701 -201 q 672 -215 692 -208 q 590 -229 631 -229 m 438 111 q 563 197 514 111 q 611 486 611 283 q 563 775 611 689 q 438 861 514 861 q 313 775 361 861 q 264 486 264 689 q 313 197 264 283 q 438 111 361 111 z "},"R":{"ha":833,"x_min":118,"x_max":813,"o":"m 118 972 l 382 972 q 666 893 575 972 q 757 660 757 814 q 667 435 757 517 q 576 382 626 399 l 813 0 l 590 0 l 389 347 l 313 347 l 313 0 l 118 0 l 118 972 m 382 472 q 520 516 478 472 q 563 660 563 560 q 520 803 563 760 q 382 847 478 847 l 313 847 l 313 472 l 382 472 z "},"Ŕ":{"ha":833,"x_min":118,"x_max":813,"o":"m 118 972 l 382 972 q 666 893 575 972 q 757 660 757 814 q 667 435 757 517 q 576 382 626 399 l 813 0 l 590 0 l 389 347 l 313 347 l 313 0 l 118 0 l 118 972 m 382 472 q 520 516 478 472 q 563 660 563 560 q 520 803 563 760 q 382 847 478 847 l 313 847 l 313 472 l 382 472 m 326 1042 l 389 1250 l 576 1250 l 438 1042 l 326 1042 z "},"Ř":{"ha":833,"x_min":118,"x_max":813,"o":"m 118 972 l 382 972 q 666 893 575 972 q 757 660 757 814 q 667 435 757 517 q 576 382 626 399 l 813 0 l 590 0 l 389 347 l 313 347 l 313 0 l 118 0 l 118 972 m 382 472 q 520 516 478 472 q 563 660 563 560 q 520 803 563 760 q 382 847 478 847 l 313 847 l 313 472 l 382 472 m 329 1064 l 176 1250 l 308 1250 l 399 1153 l 489 1250 l 621 1250 l 468 1064 l 329 1064 z "},"Ŗ":{"ha":819,"x_min":118,"x_max":813,"o":"m 118 972 l 382 972 q 666 893 575 972 q 757 660 757 814 q 667 435 757 517 q 576 382 626 399 l 813 0 l 590 0 l 389 347 l 313 347 l 313 0 l 118 0 l 118 972 m 382 472 q 520 516 478 472 q 563 660 563 560 q 520 803 563 760 q 382 847 478 847 l 313 847 l 313 472 l 382 472 m 343 -286 q 381 -253 364 -272 q 419 -174 419 -214 q 349 -149 376 -174 q 322 -90 322 -125 q 347 -26 322 -53 q 406 0 372 0 q 476 -28 450 0 q 503 -104 503 -56 q 443 -279 503 -203 q 385 -333 418 -312 l 343 -286 z "},"S":{"ha":743,"x_min":49,"x_max":694,"o":"m 347 -14 q 122 24 213 -14 q 49 63 75 42 l 111 174 l 125 174 q 175 142 143 158 q 333 111 242 111 q 458 149 415 111 q 500 250 500 186 q 476 320 500 290 q 417 372 453 350 q 318 422 381 393 q 182 495 235 461 q 92 585 129 529 q 56 722 56 640 q 94 856 56 796 q 207 951 133 917 q 382 986 281 986 q 594 947 504 986 q 667 910 635 932 l 604 799 l 590 799 q 543 829 575 811 q 396 861 476 861 q 292 823 335 861 q 250 736 250 785 q 274 666 250 696 q 333 615 297 636 q 432 564 369 593 q 568 491 515 525 q 658 401 621 457 q 694 264 694 346 q 655 120 694 183 q 537 22 615 57 q 347 -14 458 -14 z "},"Ś":{"ha":743,"x_min":49,"x_max":694,"o":"m 347 -14 q 122 24 213 -14 q 49 63 75 42 l 111 174 l 125 174 q 175 142 143 158 q 333 111 242 111 q 458 149 415 111 q 500 250 500 186 q 476 320 500 290 q 417 372 453 350 q 318 422 381 393 q 182 495 235 461 q 92 585 129 529 q 56 722 56 640 q 94 856 56 796 q 207 951 133 917 q 382 986 281 986 q 594 947 504 986 q 667 910 635 932 l 604 799 l 590 799 q 543 829 575 811 q 396 861 476 861 q 292 823 335 861 q 250 736 250 785 q 274 666 250 696 q 333 615 297 636 q 432 564 369 593 q 568 491 515 525 q 658 401 621 457 q 694 264 694 346 q 655 120 694 183 q 537 22 615 57 q 347 -14 458 -14 m 299 1042 l 361 1250 l 549 1250 l 410 1042 l 299 1042 z "},"Š":{"ha":743,"x_min":49,"x_max":694,"o":"m 347 -14 q 122 24 213 -14 q 49 63 75 42 l 111 174 l 125 174 q 175 142 143 158 q 333 111 242 111 q 458 149 415 111 q 500 250 500 186 q 476 320 500 290 q 417 372 453 350 q 318 422 381 393 q 182 495 235 461 q 92 585 129 529 q 56 722 56 640 q 94 856 56 796 q 207 951 133 917 q 382 986 281 986 q 594 947 504 986 q 667 910 635 932 l 604 799 l 590 799 q 543 829 575 811 q 396 861 476 861 q 292 823 335 861 q 250 736 250 785 q 274 666 250 696 q 333 615 297 636 q 432 564 369 593 q 568 491 515 525 q 658 401 621 457 q 694 264 694 346 q 655 120 694 183 q 537 22 615 57 q 347 -14 458 -14 m 301 1064 l 149 1250 l 281 1250 l 371 1153 l 461 1250 l 593 1250 l 440 1064 l 301 1064 z "},"Ş":{"ha":743,"x_min":49,"x_max":694,"o":"m 694 264 q 619 77 694 151 q 403 -11 543 3 l 403 -35 q 497 -69 460 -35 q 535 -153 535 -104 q 494 -237 535 -203 q 382 -271 453 -271 q 297 -257 339 -271 q 264 -243 275 -250 l 293 -174 l 306 -174 q 315 -180 307 -175 q 338 -190 324 -185 q 368 -194 353 -194 q 403 -184 390 -194 q 417 -153 417 -174 q 403 -122 417 -133 q 368 -111 390 -111 l 299 -111 l 299 -12 q 122 24 199 -7 q 49 63 75 42 l 111 174 l 125 174 q 175 142 143 158 q 333 111 242 111 q 458 149 415 111 q 500 250 500 186 q 476 320 500 290 q 417 372 453 350 q 318 422 381 393 q 182 495 235 461 q 92 585 129 529 q 56 722 56 640 q 94 856 56 796 q 207 951 133 917 q 382 986 281 986 q 594 947 504 986 q 667 910 635 932 l 604 799 l 590 799 q 543 829 575 811 q 396 861 476 861 q 292 823 335 861 q 250 736 250 785 q 274 666 250 696 q 333 615 297 636 q 432 564 369 593 q 568 491 515 525 q 658 401 621 457 q 694 264 694 346 z "},"Ș":{"ha":743,"x_min":49,"x_max":694,"o":"m 347 -14 q 122 24 213 -14 q 49 63 75 42 l 111 174 l 125 174 q 175 142 143 158 q 333 111 242 111 q 458 149 415 111 q 500 250 500 186 q 476 320 500 290 q 417 372 453 350 q 318 422 381 393 q 182 495 235 461 q 92 585 129 529 q 56 722 56 640 q 94 856 56 796 q 207 951 133 917 q 382 986 281 986 q 594 947 504 986 q 667 910 635 932 l 604 799 l 590 799 q 543 829 575 811 q 396 861 476 861 q 292 823 335 861 q 250 736 250 785 q 274 666 250 696 q 333 615 297 636 q 432 564 369 593 q 568 491 515 525 q 658 401 621 457 q 694 264 694 346 q 655 120 694 183 q 537 22 615 57 q 347 -14 458 -14 m 326 -347 q 364 -314 347 -333 q 403 -235 403 -275 q 333 -210 360 -235 q 306 -151 306 -186 q 331 -87 306 -114 q 389 -61 356 -61 q 460 -89 433 -61 q 486 -165 486 -117 q 426 -340 486 -264 q 368 -394 401 -374 l 326 -347 z "},"T":{"ha":708,"x_min":14,"x_max":694,"o":"m 257 0 l 257 847 l 14 847 l 14 972 l 694 972 l 694 847 l 451 847 l 451 0 l 257 0 z "},"Ť":{"ha":708,"x_min":14,"x_max":694,"o":"m 257 0 l 257 847 l 14 847 l 14 972 l 694 972 l 694 847 l 451 847 l 451 0 l 257 0 m 285 1064 l 132 1250 l 264 1250 l 354 1153 l 444 1250 l 576 1250 l 424 1064 l 285 1064 z "},"Ț":{"ha":708,"x_min":14,"x_max":694,"o":"m 257 0 l 257 847 l 14 847 l 14 972 l 694 972 l 694 847 l 451 847 l 451 0 l 257 0 m 285 -354 q 322 -321 306 -340 q 361 -242 361 -282 q 291 -217 318 -242 q 264 -158 264 -193 q 289 -94 264 -121 q 347 -68 314 -68 q 418 -96 392 -68 q 444 -172 444 -124 q 385 -347 444 -271 q 326 -401 360 -381 l 285 -354 z "},"U":{"ha":889,"x_min":104,"x_max":785,"o":"m 444 -14 q 193 74 282 -14 q 104 319 104 161 l 104 972 l 299 972 l 299 319 q 338 163 299 215 q 444 111 378 111 q 551 163 511 111 q 590 319 590 215 l 590 972 l 785 972 l 785 319 q 696 74 785 161 q 444 -14 607 -14 z "},"Ú":{"ha":889,"x_min":104,"x_max":785,"o":"m 444 -14 q 193 74 282 -14 q 104 319 104 161 l 104 972 l 299 972 l 299 319 q 338 163 299 215 q 444 111 378 111 q 551 163 511 111 q 590 319 590 215 l 590 972 l 785 972 l 785 319 q 696 74 785 161 q 444 -14 607 -14 m 371 1014 l 433 1222 l 621 1222 l 482 1014 l 371 1014 z "},"Û":{"ha":889,"x_min":104,"x_max":785,"o":"m 444 -14 q 193 74 282 -14 q 104 319 104 161 l 104 972 l 299 972 l 299 319 q 338 163 299 215 q 444 111 378 111 q 551 163 511 111 q 590 319 590 215 l 590 972 l 785 972 l 785 319 q 696 74 785 161 q 444 -14 607 -14 m 222 1056 l 375 1242 l 514 1242 l 667 1056 l 535 1056 l 444 1153 l 354 1056 l 222 1056 z "},"Ü":{"ha":889,"x_min":104,"x_max":785,"o":"m 444 -14 q 193 74 282 -14 q 104 319 104 161 l 104 972 l 299 972 l 299 319 q 338 163 299 215 q 444 111 378 111 q 551 163 511 111 q 590 319 590 215 l 590 972 l 785 972 l 785 319 q 696 74 785 161 q 444 -14 607 -14 m 306 1069 q 238 1099 267 1069 q 208 1167 208 1128 q 238 1235 208 1206 q 306 1264 267 1264 q 374 1235 344 1264 q 403 1167 403 1206 q 374 1099 403 1128 q 306 1069 344 1069 m 576 1069 q 508 1099 538 1069 q 479 1167 479 1128 q 508 1235 479 1206 q 576 1264 538 1264 q 644 1235 615 1264 q 674 1167 674 1206 q 644 1099 674 1128 q 576 1069 615 1069 z "},"Ù":{"ha":889,"x_min":104,"x_max":785,"o":"m 444 -14 q 193 74 282 -14 q 104 319 104 161 l 104 972 l 299 972 l 299 319 q 338 163 299 215 q 444 111 378 111 q 551 163 511 111 q 590 319 590 215 l 590 972 l 785 972 l 785 319 q 696 74 785 161 q 444 -14 607 -14 m 419 1014 l 281 1222 l 468 1222 l 531 1014 l 419 1014 z "},"Ű":{"ha":889,"x_min":104,"x_max":785,"o":"m 444 -14 q 193 74 282 -14 q 104 319 104 161 l 104 972 l 299 972 l 299 319 q 338 163 299 215 q 444 111 378 111 q 551 163 511 111 q 590 319 590 215 l 590 972 l 785 972 l 785 319 q 696 74 785 161 q 444 -14 607 -14 m 274 1028 l 336 1236 l 489 1236 l 364 1028 l 274 1028 m 489 1028 l 551 1236 l 704 1236 l 579 1028 l 489 1028 z "},"Ū":{"ha":889,"x_min":104,"x_max":785,"o":"m 444 -14 q 193 74 282 -14 q 104 319 104 161 l 104 972 l 299 972 l 299 319 q 338 163 299 215 q 444 111 378 111 q 551 163 511 111 q 590 319 590 215 l 590 972 l 785 972 l 785 319 q 696 74 785 161 q 444 -14 607 -14 m 243 1056 l 243 1181 l 646 1181 l 646 1056 l 243 1056 z "},"Ų":{"ha":889,"x_min":104,"x_max":785,"o":"m 785 972 l 785 319 q 716 97 785 182 q 519 -8 647 11 q 486 -32 499 -22 q 438 -111 438 -71 q 453 -146 438 -132 q 493 -160 468 -160 q 528 -153 511 -160 q 553 -139 544 -146 q 564 -129 563 -132 l 576 -129 l 576 -222 q 547 -240 561 -235 q 465 -257 511 -257 q 350 -224 388 -257 q 313 -132 313 -192 q 351 -37 313 -82 q 378 -10 368 -18 q 175 94 246 8 q 104 319 104 179 l 104 972 l 299 972 l 299 319 q 338 163 299 215 q 444 111 378 111 q 551 163 511 111 q 590 319 590 215 l 590 972 l 785 972 z "},"Ů":{"ha":889,"x_min":104,"x_max":785,"o":"m 444 -14 q 193 74 282 -14 q 104 319 104 161 l 104 972 l 299 972 l 299 319 q 338 163 299 215 q 444 111 378 111 q 551 163 511 111 q 590 319 590 215 l 590 972 l 785 972 l 785 319 q 696 74 785 161 q 444 -14 607 -14 m 444 1021 q 335 1063 378 1021 q 292 1167 292 1104 q 335 1271 292 1229 q 444 1313 378 1313 q 554 1271 511 1313 q 597 1167 597 1229 q 554 1063 597 1104 q 444 1021 511 1021 m 444 1111 q 479 1126 465 1111 q 493 1167 493 1142 q 479 1207 493 1192 q 444 1222 465 1222 q 410 1207 424 1222 q 396 1167 396 1192 q 410 1126 396 1142 q 444 1111 424 1111 z "},"V":{"ha":819,"x_min":38,"x_max":774,"o":"m 38 972 l 215 972 l 389 333 q 397 295 394 313 q 401 265 399 278 l 407 229 l 413 229 l 417 264 q 422 297 418 275 q 431 333 426 318 l 604 972 l 774 972 l 496 0 l 315 0 l 38 972 z "},"W":{"ha":1231,"x_min":38,"x_max":1185,"o":"m 38 972 l 232 972 l 371 361 q 379 307 376 335 l 382 278 l 388 278 l 390 307 q 399 361 393 335 l 553 972 l 689 972 l 843 361 q 851 307 850 333 l 854 278 l 860 278 l 863 307 q 871 361 864 333 l 1010 972 l 1185 972 l 949 0 l 774 0 l 628 604 q 619 663 622 626 l 617 694 l 611 694 l 608 663 q 600 604 606 626 l 454 0 l 274 0 l 38 972 z "},"X":{"ha":778,"x_min":14,"x_max":764,"o":"m 257 493 l 21 972 l 229 972 l 368 674 l 382 632 l 386 611 l 392 611 l 396 632 q 401 651 397 638 q 410 674 406 664 l 549 972 l 757 972 l 521 493 l 764 0 l 556 0 l 410 313 q 401 335 406 322 q 396 354 397 349 l 392 375 l 386 375 l 382 354 l 368 313 l 222 0 l 14 0 l 257 493 z "},"Y":{"ha":792,"x_min":0,"x_max":792,"o":"m 299 319 l 0 972 l 201 972 l 383 535 l 397 493 l 401 472 l 407 472 l 411 493 l 425 535 l 601 972 l 792 972 l 493 319 l 493 0 l 299 0 l 299 319 z "},"Ý":{"ha":792,"x_min":0,"x_max":792,"o":"m 299 319 l 0 972 l 201 972 l 383 535 l 397 493 l 401 472 l 407 472 l 411 493 l 425 535 l 601 972 l 792 972 l 493 319 l 493 0 l 299 0 l 299 319 m 322 1014 l 385 1222 l 572 1222 l 433 1014 l 322 1014 z "},"Ÿ":{"ha":792,"x_min":0,"x_max":792,"o":"m 299 319 l 0 972 l 201 972 l 383 535 l 397 493 l 401 472 l 407 472 l 411 493 l 425 535 l 601 972 l 792 972 l 493 319 l 493 0 l 299 0 l 299 319 m 257 1069 q 189 1099 218 1069 q 160 1167 160 1128 q 189 1235 160 1206 q 257 1264 218 1264 q 325 1235 296 1264 q 354 1167 354 1206 q 325 1099 354 1128 q 257 1069 296 1069 m 528 1069 q 460 1099 489 1069 q 431 1167 431 1128 q 460 1235 431 1206 q 528 1264 489 1264 q 596 1235 567 1264 q 625 1167 625 1206 q 596 1099 625 1128 q 528 1069 567 1069 z "},"Z":{"ha":729,"x_min":49,"x_max":681,"o":"m 49 0 l 49 132 l 451 847 l 49 847 l 49 972 l 674 972 l 674 840 l 271 125 l 681 125 l 681 0 l 49 0 z "},"Ź":{"ha":729,"x_min":49,"x_max":681,"o":"m 49 0 l 49 132 l 451 847 l 49 847 l 49 972 l 674 972 l 674 840 l 271 125 l 681 125 l 681 0 l 49 0 m 278 1042 l 340 1250 l 528 1250 l 389 1042 l 278 1042 z "},"Ž":{"ha":729,"x_min":49,"x_max":681,"o":"m 49 0 l 49 132 l 451 847 l 49 847 l 49 972 l 674 972 l 674 840 l 271 125 l 681 125 l 681 0 l 49 0 m 294 1064 l 142 1250 l 274 1250 l 364 1153 l 454 1250 l 586 1250 l 433 1064 l 294 1064 z "},"Ż":{"ha":729,"x_min":49,"x_max":681,"o":"m 49 0 l 49 132 l 451 847 l 49 847 l 49 972 l 674 972 l 674 840 l 271 125 l 681 125 l 681 0 l 49 0 m 364 1056 q 291 1087 322 1056 q 260 1160 260 1118 q 291 1233 260 1201 q 364 1264 322 1264 q 437 1233 406 1264 q 468 1160 468 1201 q 437 1087 468 1118 q 364 1056 406 1056 z "},"a":{"ha":750,"x_min":56,"x_max":660,"o":"m 313 -14 q 123 45 190 -14 q 56 201 56 104 q 131 365 56 306 q 368 424 207 424 l 465 424 l 465 444 q 433 551 465 518 q 333 583 401 583 q 226 556 275 583 q 188 528 207 546 l 174 528 l 111 639 q 176 674 144 661 q 347 708 267 708 q 515 674 444 708 q 623 581 586 640 q 660 444 660 521 l 660 0 l 521 0 l 507 83 l 500 83 q 453 35 476 53 q 313 -14 394 -14 m 347 118 q 432 160 390 118 q 465 201 451 179 l 465 299 l 368 299 q 250 201 250 299 q 276 141 250 164 q 347 118 301 118 z "},"á":{"ha":750,"x_min":56,"x_max":660,"o":"m 313 -14 q 123 45 190 -14 q 56 201 56 104 q 131 365 56 306 q 368 424 207 424 l 465 424 l 465 444 q 433 551 465 518 q 333 583 401 583 q 226 556 275 583 q 188 528 207 546 l 174 528 l 111 639 q 176 674 144 661 q 347 708 267 708 q 515 674 444 708 q 623 581 586 640 q 660 444 660 521 l 660 0 l 521 0 l 507 83 l 500 83 q 453 35 476 53 q 313 -14 394 -14 m 347 118 q 432 160 390 118 q 465 201 451 179 l 465 299 l 368 299 q 250 201 250 299 q 276 141 250 164 q 347 118 301 118 m 288 764 l 350 972 l 538 972 l 399 764 l 288 764 z "},"ă":{"ha":750,"x_min":56,"x_max":660,"o":"m 313 -14 q 123 45 190 -14 q 56 201 56 104 q 131 365 56 306 q 368 424 207 424 l 465 424 l 465 444 q 433 551 465 518 q 333 583 401 583 q 226 556 275 583 q 188 528 207 546 l 174 528 l 111 639 q 176 674 144 661 q 347 708 267 708 q 515 674 444 708 q 623 581 586 640 q 660 444 660 521 l 660 0 l 521 0 l 507 83 l 500 83 q 453 35 476 53 q 313 -14 394 -14 m 347 118 q 432 160 390 118 q 465 201 451 179 l 465 299 l 368 299 q 250 201 250 299 q 276 141 250 164 q 347 118 301 118 m 375 765 q 207 815 261 765 q 153 960 153 864 l 306 960 q 375 863 306 863 q 444 960 444 863 l 597 960 q 543 815 597 864 q 375 765 489 765 z "},"â":{"ha":750,"x_min":56,"x_max":660,"o":"m 313 -14 q 123 45 190 -14 q 56 201 56 104 q 131 365 56 306 q 368 424 207 424 l 465 424 l 465 444 q 433 551 465 518 q 333 583 401 583 q 226 556 275 583 q 188 528 207 546 l 174 528 l 111 639 q 176 674 144 661 q 347 708 267 708 q 515 674 444 708 q 623 581 586 640 q 660 444 660 521 l 660 0 l 521 0 l 507 83 l 500 83 q 453 35 476 53 q 313 -14 394 -14 m 347 118 q 432 160 390 118 q 465 201 451 179 l 465 299 l 368 299 q 250 201 250 299 q 276 141 250 164 q 347 118 301 118 m 153 778 l 306 964 l 444 964 l 597 778 l 465 778 l 375 875 l 285 778 l 153 778 z "},"ä":{"ha":750,"x_min":56,"x_max":660,"o":"m 313 -14 q 123 45 190 -14 q 56 201 56 104 q 131 365 56 306 q 368 424 207 424 l 465 424 l 465 444 q 433 551 465 518 q 333 583 401 583 q 226 556 275 583 q 188 528 207 546 l 174 528 l 111 639 q 176 674 144 661 q 347 708 267 708 q 515 674 444 708 q 623 581 586 640 q 660 444 660 521 l 660 0 l 521 0 l 507 83 l 500 83 q 453 35 476 53 q 313 -14 394 -14 m 347 118 q 432 160 390 118 q 465 201 451 179 l 465 299 l 368 299 q 250 201 250 299 q 276 141 250 164 q 347 118 301 118 m 236 792 q 168 821 197 792 q 139 889 139 850 q 168 957 139 928 q 236 986 197 986 q 304 957 275 986 q 333 889 333 928 q 304 821 333 850 q 236 792 275 792 m 507 792 q 439 821 468 792 q 410 889 410 850 q 439 957 410 928 q 507 986 468 986 q 575 957 546 986 q 604 889 604 928 q 575 821 604 850 q 507 792 546 792 z "},"à":{"ha":750,"x_min":56,"x_max":660,"o":"m 313 -14 q 123 45 190 -14 q 56 201 56 104 q 131 365 56 306 q 368 424 207 424 l 465 424 l 465 444 q 433 551 465 518 q 333 583 401 583 q 226 556 275 583 q 188 528 207 546 l 174 528 l 111 639 q 176 674 144 661 q 347 708 267 708 q 515 674 444 708 q 623 581 586 640 q 660 444 660 521 l 660 0 l 521 0 l 507 83 l 500 83 q 453 35 476 53 q 313 -14 394 -14 m 347 118 q 432 160 390 118 q 465 201 451 179 l 465 299 l 368 299 q 250 201 250 299 q 276 141 250 164 q 347 118 301 118 m 336 764 l 197 972 l 385 972 l 447 764 l 336 764 z "},"ā":{"ha":750,"x_min":56,"x_max":660,"o":"m 313 -14 q 123 45 190 -14 q 56 201 56 104 q 131 365 56 306 q 368 424 207 424 l 465 424 l 465 444 q 433 551 465 518 q 333 583 401 583 q 226 556 275 583 q 188 528 207 546 l 174 528 l 111 639 q 176 674 144 661 q 347 708 267 708 q 515 674 444 708 q 623 581 586 640 q 660 444 660 521 l 660 0 l 521 0 l 507 83 l 500 83 q 453 35 476 53 q 313 -14 394 -14 m 347 118 q 432 160 390 118 q 465 201 451 179 l 465 299 l 368 299 q 250 201 250 299 q 276 141 250 164 q 347 118 301 118 m 188 792 l 188 917 l 590 917 l 590 792 l 188 792 z "},"ą":{"ha":736,"x_min":56,"x_max":708,"o":"m 708 -129 l 708 -222 q 679 -240 693 -235 q 597 -257 643 -257 q 482 -224 519 -257 q 444 -132 444 -192 q 483 -37 444 -82 q 522 0 501 -15 l 521 0 l 507 83 l 500 83 q 453 35 476 53 q 313 -14 394 -14 q 123 45 190 -14 q 56 201 56 104 q 131 365 56 306 q 368 424 207 424 l 465 424 l 465 444 q 433 551 465 518 q 333 583 401 583 q 226 556 275 583 q 188 528 207 546 l 174 528 l 111 639 q 176 674 144 661 q 347 708 267 708 q 515 674 444 708 q 623 581 586 640 q 660 444 660 521 l 660 0 l 667 0 q 618 -32 640 -14 q 569 -111 569 -71 q 585 -146 569 -132 q 625 -160 600 -160 q 660 -153 643 -160 q 685 -139 676 -146 q 696 -129 694 -132 l 708 -129 m 465 299 l 368 299 q 250 201 250 299 q 276 141 250 164 q 347 118 301 118 q 432 160 390 118 q 465 201 451 179 l 465 299 z "},"å":{"ha":753,"x_min":56,"x_max":660,"o":"m 313 -14 q 123 45 190 -14 q 56 201 56 104 q 131 365 56 306 q 368 424 207 424 l 465 424 l 465 444 q 433 551 465 518 q 333 583 401 583 q 226 556 275 583 q 188 528 207 546 l 174 528 l 111 639 q 176 674 144 661 q 347 708 267 708 q 515 674 444 708 q 623 581 586 640 q 660 444 660 521 l 660 0 l 521 0 l 507 83 l 500 83 q 453 35 476 53 q 313 -14 394 -14 m 347 118 q 432 160 390 118 q 465 201 451 179 l 465 299 l 368 299 q 250 201 250 299 q 276 141 250 164 q 347 118 301 118 m 375 771 q 265 813 308 771 q 222 917 222 854 q 265 1021 222 979 q 375 1063 308 1063 q 485 1021 442 1063 q 528 917 528 979 q 485 813 528 854 q 375 771 442 771 m 375 861 q 410 876 396 861 q 424 917 424 892 q 410 957 424 942 q 375 972 396 972 q 340 957 354 972 q 326 917 326 942 q 340 876 326 892 q 375 861 354 861 z "},"ã":{"ha":750,"x_min":56,"x_max":660,"o":"m 313 -14 q 123 45 190 -14 q 56 201 56 104 q 131 365 56 306 q 368 424 207 424 l 465 424 l 465 444 q 433 551 465 518 q 333 583 401 583 q 226 556 275 583 q 188 528 207 546 l 174 528 l 111 639 q 176 674 144 661 q 347 708 267 708 q 515 674 444 708 q 623 581 586 640 q 660 444 660 521 l 660 0 l 521 0 l 507 83 l 500 83 q 453 35 476 53 q 313 -14 394 -14 m 347 118 q 432 160 390 118 q 465 201 451 179 l 465 299 l 368 299 q 250 201 250 299 q 276 141 250 164 q 347 118 301 118 m 583 925 q 540 828 578 869 q 451 786 503 786 q 404 795 424 786 q 357 822 385 804 q 326 842 338 836 q 299 849 314 849 q 271 836 283 849 q 251 810 258 824 q 243 793 244 797 l 231 793 l 153 835 q 196 932 158 890 q 285 974 233 974 q 332 965 313 974 q 379 938 351 956 q 410 917 399 924 q 438 911 422 911 q 465 923 453 911 q 486 950 478 935 q 493 967 494 965 l 506 967 l 583 925 z "},"æ":{"ha":1132,"x_min":56,"x_max":1076,"o":"m 313 -14 q 123 45 190 -14 q 56 201 56 104 q 131 365 56 306 q 368 424 207 424 l 465 424 l 465 444 q 433 551 465 518 q 333 583 401 583 q 226 556 275 583 q 188 528 207 546 l 174 528 l 111 639 q 176 674 144 661 q 347 708 267 708 q 479 686 428 708 q 569 625 531 664 q 655 685 607 663 q 771 708 703 708 q 995 619 914 708 q 1076 361 1076 531 l 1076 326 l 1035 285 l 660 285 q 826 111 660 111 q 933 139 885 111 q 972 167 953 149 l 986 167 l 1049 56 q 982 21 1010 32 q 813 -14 899 -14 q 658 15 722 -14 q 556 86 593 44 q 457 15 517 44 q 313 -14 397 -14 m 882 410 q 849 538 882 493 q 771 583 817 583 q 692 538 725 583 q 660 410 660 493 l 882 410 m 347 118 q 432 160 390 118 q 465 201 451 179 l 465 299 l 368 299 q 250 201 250 299 q 276 141 250 164 q 347 118 301 118 z "},"b":{"ha":778,"x_min":97,"x_max":722,"o":"m 444 -14 q 304 35 363 -14 q 257 83 275 57 l 250 83 l 236 0 l 97 0 l 97 917 l 153 972 l 292 972 l 292 667 q 329 688 306 676 q 431 708 379 708 q 644 617 565 708 q 722 347 722 525 q 646 78 722 171 q 444 -14 569 -14 m 410 118 q 495 172 463 118 q 528 347 528 226 q 493 529 528 475 q 396 583 458 583 q 321 563 360 583 l 292 542 l 292 201 q 322 160 308 176 q 410 118 364 118 z "},"c":{"ha":660,"x_min":56,"x_max":632,"o":"m 396 -14 q 56 347 56 -14 q 139 618 56 528 q 382 708 222 708 q 551 674 461 708 q 618 639 579 663 l 556 528 l 542 528 q 503 556 522 546 q 396 583 454 583 q 288 530 325 583 q 250 347 250 476 q 289 164 250 217 q 410 111 328 111 q 517 139 468 111 q 556 167 536 149 l 569 167 l 632 56 q 565 21 593 32 q 396 -14 482 -14 z "},"ć":{"ha":660,"x_min":56,"x_max":632,"o":"m 396 -14 q 56 347 56 -14 q 139 618 56 528 q 382 708 222 708 q 551 674 461 708 q 618 639 579 663 l 556 528 l 542 528 q 503 556 522 546 q 396 583 454 583 q 288 530 325 583 q 250 347 250 476 q 289 164 250 217 q 410 111 328 111 q 517 139 468 111 q 556 167 536 149 l 569 167 l 632 56 q 565 21 593 32 q 396 -14 482 -14 m 288 764 l 350 972 l 538 972 l 399 764 l 288 764 z "},"č":{"ha":660,"x_min":56,"x_max":632,"o":"m 396 -14 q 56 347 56 -14 q 139 618 56 528 q 382 708 222 708 q 551 674 461 708 q 618 639 579 663 l 556 528 l 542 528 q 503 556 522 546 q 396 583 454 583 q 288 530 325 583 q 250 347 250 476 q 289 164 250 217 q 410 111 328 111 q 517 139 468 111 q 556 167 536 149 l 569 167 l 632 56 q 565 21 593 32 q 396 -14 482 -14 m 292 786 l 139 972 l 271 972 l 361 875 l 451 972 l 583 972 l 431 786 l 292 786 z "},"ç":{"ha":660,"x_min":56,"x_max":632,"o":"m 565 21 q 406 -14 482 -12 l 406 -35 q 500 -69 463 -35 q 538 -153 538 -104 q 497 -237 538 -203 q 385 -271 456 -271 q 300 -257 342 -271 q 267 -243 278 -250 l 296 -174 l 308 -174 q 318 -180 310 -175 q 341 -190 326 -185 q 371 -194 356 -194 q 406 -184 393 -194 q 419 -153 419 -174 q 406 -122 419 -133 q 371 -111 393 -111 l 301 -111 l 301 -6 q 56 347 56 40 q 139 618 56 528 q 382 708 222 708 q 551 674 461 708 q 618 639 579 663 l 556 528 l 542 528 q 503 556 522 546 q 396 583 454 583 q 288 530 325 583 q 250 347 250 476 q 289 164 250 217 q 410 111 328 111 q 517 139 468 111 q 556 167 536 149 l 569 167 l 632 56 q 565 21 593 32 z "},"d":{"ha":778,"x_min":56,"x_max":681,"o":"m 333 -14 q 132 78 208 -14 q 56 347 56 171 q 134 617 56 525 q 347 708 213 708 q 398 703 376 708 q 447 688 419 697 l 486 667 l 486 917 l 542 972 l 681 972 l 681 0 l 542 0 l 528 83 l 521 83 q 474 35 497 53 q 333 -14 415 -14 m 368 118 q 456 160 414 118 q 486 201 469 176 l 486 542 l 457 563 q 382 583 418 583 q 285 529 319 583 q 250 347 250 475 q 283 172 250 226 q 368 118 315 118 z "},"ð":{"ha":757,"x_min":49,"x_max":688,"o":"m 368 -14 q 133 71 217 -14 q 49 313 49 156 q 85 488 49 414 q 185 601 121 563 q 333 639 250 639 q 444 616 393 639 q 528 556 494 593 q 436 763 528 692 l 403 681 l 285 729 l 321 817 l 278 828 l 181 847 l 208 965 l 299 944 q 367 926 340 935 l 403 1014 l 521 965 l 483 876 q 638 716 589 818 q 688 451 688 614 l 688 313 q 603 71 688 156 q 368 -14 519 -14 m 368 111 q 459 160 425 111 q 493 313 493 208 q 459 459 493 411 q 368 507 425 507 q 277 459 311 507 q 243 313 243 411 q 277 160 243 208 q 368 111 311 111 z "},"ď":{"ha":910,"x_min":56,"x_max":896,"o":"m 333 -14 q 132 78 208 -14 q 56 347 56 171 q 134 617 56 525 q 347 708 213 708 q 398 703 376 708 q 447 688 419 697 l 486 667 l 486 917 l 542 972 l 681 972 l 681 0 l 542 0 l 528 83 l 521 83 q 474 35 497 53 q 333 -14 415 -14 m 743 715 q 778 746 768 735 q 813 819 813 789 q 765 842 786 819 q 743 896 743 864 q 765 950 743 928 q 813 972 786 972 q 873 948 850 972 q 896 883 896 924 q 840 722 896 792 q 785 672 815 690 l 743 715 m 368 118 q 456 160 414 118 q 486 201 469 176 l 486 542 l 457 563 q 382 583 418 583 q 285 529 319 583 q 250 347 250 475 q 283 172 250 226 q 368 118 315 118 z "},"đ":{"ha":778,"x_min":56,"x_max":757,"o":"m 333 -14 q 190 26 253 -14 q 91 142 126 65 q 56 326 56 218 q 135 578 56 489 q 347 667 214 667 q 398 661 376 667 q 447 646 419 656 l 486 625 l 486 722 l 354 722 l 354 847 l 486 847 l 486 917 l 542 972 l 681 972 l 681 847 l 757 847 l 757 722 l 681 722 l 681 0 l 542 0 l 528 83 l 521 83 q 474 35 497 53 q 333 -14 415 -14 m 368 118 q 456 160 414 118 q 486 201 469 176 l 486 500 l 457 521 q 382 542 418 542 q 250 326 250 542 q 283 169 250 219 q 368 118 317 118 z "},"e":{"ha":722,"x_min":56,"x_max":667,"o":"m 403 -14 q 56 347 56 -14 q 136 617 56 525 q 361 708 217 708 q 585 619 504 708 q 667 361 667 531 l 667 326 l 625 285 l 250 285 q 417 111 250 111 q 524 139 475 111 q 563 167 543 149 l 576 167 l 639 56 q 572 21 600 32 q 403 -14 489 -14 m 472 410 q 440 538 472 493 q 361 583 407 583 q 283 538 315 583 q 250 410 250 493 l 472 410 z "},"é":{"ha":722,"x_min":56,"x_max":667,"o":"m 403 -14 q 56 347 56 -14 q 136 617 56 525 q 361 708 217 708 q 585 619 504 708 q 667 361 667 531 l 667 326 l 625 285 l 250 285 q 417 111 250 111 q 524 139 475 111 q 563 167 543 149 l 576 167 l 639 56 q 572 21 600 32 q 403 -14 489 -14 m 472 410 q 440 538 472 493 q 361 583 407 583 q 283 538 315 583 q 250 410 250 493 l 472 410 m 292 764 l 354 972 l 542 972 l 403 764 l 292 764 z "},"ě":{"ha":722,"x_min":56,"x_max":667,"o":"m 403 -14 q 56 347 56 -14 q 136 617 56 525 q 361 708 217 708 q 585 619 504 708 q 667 361 667 531 l 667 326 l 625 285 l 250 285 q 417 111 250 111 q 524 139 475 111 q 563 167 543 149 l 576 167 l 639 56 q 572 21 600 32 q 403 -14 489 -14 m 472 410 q 440 538 472 493 q 361 583 407 583 q 283 538 315 583 q 250 410 250 493 l 472 410 m 294 786 l 142 972 l 274 972 l 364 875 l 454 972 l 586 972 l 433 786 l 294 786 z "},"ê":{"ha":722,"x_min":56,"x_max":667,"o":"m 403 -14 q 56 347 56 -14 q 136 617 56 525 q 361 708 217 708 q 585 619 504 708 q 667 361 667 531 l 667 326 l 625 285 l 250 285 q 417 111 250 111 q 524 139 475 111 q 563 167 543 149 l 576 167 l 639 56 q 572 21 600 32 q 403 -14 489 -14 m 472 410 q 440 538 472 493 q 361 583 407 583 q 283 538 315 583 q 250 410 250 493 l 472 410 m 142 778 l 294 964 l 433 964 l 586 778 l 454 778 l 364 875 l 274 778 l 142 778 z "},"ë":{"ha":722,"x_min":56,"x_max":667,"o":"m 403 -14 q 56 347 56 -14 q 136 617 56 525 q 361 708 217 708 q 585 619 504 708 q 667 361 667 531 l 667 326 l 625 285 l 250 285 q 417 111 250 111 q 524 139 475 111 q 563 167 543 149 l 576 167 l 639 56 q 572 21 600 32 q 403 -14 489 -14 m 472 410 q 440 538 472 493 q 361 583 407 583 q 283 538 315 583 q 250 410 250 493 l 472 410 m 225 792 q 157 821 186 792 q 128 889 128 850 q 157 957 128 928 q 225 986 186 986 q 293 957 264 986 q 322 889 322 928 q 293 821 322 850 q 225 792 264 792 m 496 792 q 428 821 457 792 q 399 889 399 850 q 428 957 399 928 q 496 986 457 986 q 564 957 535 986 q 593 889 593 928 q 564 821 593 850 q 496 792 535 792 z "},"ė":{"ha":722,"x_min":56,"x_max":667,"o":"m 403 -14 q 56 347 56 -14 q 136 617 56 525 q 361 708 217 708 q 585 619 504 708 q 667 361 667 531 l 667 326 l 625 285 l 250 285 q 417 111 250 111 q 524 139 475 111 q 563 167 543 149 l 576 167 l 639 56 q 572 21 600 32 q 403 -14 489 -14 m 472 410 q 440 538 472 493 q 361 583 407 583 q 283 538 315 583 q 250 410 250 493 l 472 410 m 364 778 q 291 809 322 778 q 260 882 260 840 q 291 955 260 924 q 364 986 322 986 q 437 955 406 986 q 468 882 468 924 q 437 809 468 840 q 364 778 406 778 z "},"è":{"ha":722,"x_min":56,"x_max":667,"o":"m 403 -14 q 56 347 56 -14 q 136 617 56 525 q 361 708 217 708 q 585 619 504 708 q 667 361 667 531 l 667 326 l 625 285 l 250 285 q 417 111 250 111 q 524 139 475 111 q 563 167 543 149 l 576 167 l 639 56 q 572 21 600 32 q 403 -14 489 -14 m 472 410 q 440 538 472 493 q 361 583 407 583 q 283 538 315 583 q 250 410 250 493 l 472 410 m 326 764 l 188 972 l 375 972 l 438 764 l 326 764 z "},"ē":{"ha":722,"x_min":56,"x_max":667,"o":"m 403 -14 q 56 347 56 -14 q 136 617 56 525 q 361 708 217 708 q 585 619 504 708 q 667 361 667 531 l 667 326 l 625 285 l 250 285 q 417 111 250 111 q 524 139 475 111 q 563 167 543 149 l 576 167 l 639 56 q 572 21 600 32 q 403 -14 489 -14 m 472 410 q 440 538 472 493 q 361 583 407 583 q 283 538 315 583 q 250 410 250 493 l 472 410 m 176 792 l 176 917 l 579 917 l 579 792 l 176 792 z "},"ę":{"ha":722,"x_min":56,"x_max":667,"o":"m 625 285 l 250 285 q 417 111 250 111 q 524 139 475 111 q 563 167 543 149 l 576 167 l 639 56 q 572 21 600 32 q 453 -11 515 -4 q 424 -32 424 -32 q 375 -111 375 -71 q 390 -146 375 -132 q 431 -160 406 -160 q 465 -153 449 -160 q 491 -139 482 -146 q 501 -129 500 -132 l 514 -129 l 514 -222 q 485 -240 499 -235 q 403 -257 449 -257 q 288 -224 325 -257 q 250 -132 250 -192 q 289 -37 250 -82 q 318 -8 301 -21 q 56 347 56 33 q 136 617 56 525 q 361 708 217 708 q 585 619 504 708 q 667 361 667 531 l 667 326 l 625 285 m 472 410 q 440 538 472 493 q 361 583 407 583 q 283 538 315 583 q 250 410 250 493 l 472 410 z "},"f":{"ha":507,"x_min":28,"x_max":583,"o":"m 104 569 l 28 569 l 28 694 l 104 694 l 104 750 q 176 922 104 857 q 375 986 247 986 q 521 951 440 986 q 583 917 547 940 l 521 806 l 507 806 q 471 833 489 821 q 389 861 431 861 q 325 831 351 861 q 299 750 299 801 l 299 694 l 472 694 l 472 569 l 299 569 l 299 0 l 104 0 l 104 569 z "},"g":{"ha":778,"x_min":56,"x_max":681,"o":"m 354 -292 q 178 -257 261 -292 q 111 -222 146 -244 l 174 -111 l 188 -111 q 228 -139 206 -126 q 340 -167 276 -167 q 447 -127 408 -167 q 486 -14 486 -87 l 486 28 q 447 7 467 14 q 347 -14 397 -14 q 134 78 213 -14 q 56 347 56 169 q 132 616 56 524 q 333 708 208 708 q 474 660 408 708 q 521 611 501 636 l 528 611 l 542 694 l 681 694 l 681 -14 q 642 -158 681 -94 q 529 -256 603 -221 q 354 -292 456 -292 m 382 111 q 457 132 424 111 q 486 153 472 140 l 486 493 q 456 535 469 518 q 368 576 414 576 q 283 522 315 576 q 250 347 250 468 q 285 165 250 219 q 382 111 319 111 z "},"ğ":{"ha":819,"x_min":56,"x_max":681,"o":"m 354 -292 q 178 -257 261 -292 q 111 -222 146 -244 l 174 -111 l 188 -111 q 228 -139 206 -126 q 340 -167 276 -167 q 447 -127 408 -167 q 486 -14 486 -87 l 486 28 q 447 7 467 14 q 347 -14 397 -14 q 134 78 213 -14 q 56 347 56 169 q 132 616 56 524 q 333 708 208 708 q 474 660 408 708 q 521 611 501 636 l 528 611 l 542 694 l 681 694 l 681 -14 q 642 -158 681 -94 q 529 -256 603 -221 q 354 -292 456 -292 m 382 111 q 457 132 424 111 q 486 153 472 140 l 486 493 q 456 535 469 518 q 368 576 414 576 q 283 522 315 576 q 250 347 250 468 q 285 165 250 219 q 382 111 319 111 m 426 778 q 258 827 313 778 q 204 972 204 876 l 357 972 q 426 875 357 875 q 496 972 496 875 l 649 972 q 594 827 649 876 q 426 778 540 778 z "},"ģ":{"ha":778,"x_min":56,"x_max":681,"o":"m 410 1064 q 372 1031 389 1050 q 333 951 333 992 q 403 927 376 951 q 431 868 431 903 q 406 804 431 831 q 347 778 381 778 q 276 806 303 778 q 250 882 250 833 q 310 1057 250 981 q 368 1111 335 1090 l 410 1064 m 354 -292 q 178 -257 261 -292 q 111 -222 146 -244 l 174 -111 l 188 -111 q 228 -139 206 -126 q 340 -167 276 -167 q 447 -127 408 -167 q 486 -14 486 -87 l 486 28 q 447 7 467 14 q 347 -14 397 -14 q 134 78 213 -14 q 56 347 56 169 q 132 616 56 524 q 333 708 208 708 q 474 660 408 708 q 521 611 501 636 l 528 611 l 542 694 l 681 694 l 681 -14 q 642 -158 681 -94 q 529 -256 603 -221 q 354 -292 456 -292 m 382 111 q 457 132 424 111 q 486 153 472 140 l 486 493 q 456 535 469 518 q 368 576 414 576 q 283 522 315 576 q 250 347 250 468 q 285 165 250 219 q 382 111 319 111 z "},"h":{"ha":799,"x_min":97,"x_max":708,"o":"m 97 917 l 153 972 l 292 972 l 292 646 q 332 676 306 660 q 444 708 388 708 q 640 640 571 708 q 708 444 708 571 l 708 0 l 514 0 l 514 444 q 486 543 514 510 q 410 576 458 576 q 322 535 364 576 q 292 493 308 518 l 292 0 l 97 0 l 97 917 z "},"ħ":{"ha":799,"x_min":28,"x_max":715,"o":"m 104 694 l 28 694 l 28 819 l 104 819 l 104 917 l 160 972 l 299 972 l 299 819 l 472 819 l 472 694 l 299 694 l 299 563 q 339 593 313 576 q 451 625 394 625 q 647 556 578 625 q 715 361 715 488 l 715 0 l 521 0 l 521 361 q 493 460 521 426 q 417 493 465 493 q 329 451 371 493 q 299 410 315 435 l 299 0 l 104 0 l 104 694 z "},"i":{"ha":389,"x_min":90,"x_max":299,"o":"m 194 785 q 122 816 153 785 q 90 889 90 847 q 122 962 90 931 q 194 993 153 993 q 267 962 236 993 q 299 889 299 931 q 267 816 299 847 q 194 785 236 785 m 97 0 l 97 694 l 292 694 l 292 0 l 97 0 z "},"ı":{"ha":389,"x_min":97,"x_max":292,"o":"m 97 0 l 97 694 l 292 694 l 292 0 l 97 0 z "},"í":{"ha":392,"x_min":97,"x_max":371,"o":"m 121 764 l 183 972 l 371 972 l 232 764 l 121 764 m 97 0 l 97 694 l 292 694 l 292 0 l 97 0 z "},"î":{"ha":403,"x_min":-21,"x_max":424,"o":"m -21 778 l 132 964 l 271 964 l 424 778 l 292 778 l 201 875 l 111 778 l -21 778 m 104 0 l 104 694 l 299 694 l 299 0 l 104 0 z "},"ï":{"ha":417,"x_min":-28,"x_max":438,"o":"m 69 792 q 1 821 31 792 q -28 889 -28 850 q 1 957 -28 928 q 69 986 31 986 q 138 957 108 986 q 167 889 167 928 q 138 821 167 850 q 69 792 108 792 m 340 792 q 272 821 301 792 q 243 889 243 850 q 272 957 243 928 q 340 986 301 986 q 408 957 379 986 q 438 889 438 928 q 408 821 438 850 q 340 792 379 792 m 111 0 l 111 694 l 306 694 l 306 0 l 111 0 z "},"ì":{"ha":393,"x_min":21,"x_max":296,"o":"m 160 764 l 21 972 l 208 972 l 271 764 l 160 764 m 101 0 l 101 694 l 296 694 l 296 0 l 101 0 z "},"ĳ":{"ha":743,"x_min":90,"x_max":653,"o":"m 194 785 q 122 816 153 785 q 90 889 90 847 q 122 962 90 931 q 194 993 153 993 q 267 962 236 993 q 299 889 299 931 q 267 816 299 847 q 194 785 236 785 m 549 785 q 476 816 507 785 q 444 889 444 847 q 476 962 444 931 q 549 993 507 993 q 622 962 590 993 q 653 889 653 931 q 622 816 653 847 q 549 785 590 785 m 375 -278 q 267 -257 319 -278 q 222 -236 240 -249 l 271 -118 l 285 -118 q 307 -136 299 -132 q 361 -153 333 -153 q 451 -42 451 -153 l 451 569 l 292 569 l 292 0 l 97 0 l 97 694 l 646 694 l 646 -42 q 574 -213 646 -149 q 375 -278 503 -278 z "},"ī":{"ha":403,"x_min":0,"x_max":403,"o":"m 0 778 l 0 903 l 403 903 l 403 778 l 0 778 m 104 0 l 104 694 l 299 694 l 299 0 l 104 0 z "},"į":{"ha":403,"x_min":76,"x_max":340,"o":"m 194 785 q 122 816 153 785 q 90 889 90 847 q 122 962 90 931 q 194 993 153 993 q 267 962 236 993 q 299 889 299 931 q 267 816 299 847 q 194 785 236 785 m 97 0 l 97 694 l 292 694 l 292 0 l 97 0 m 229 -257 q 114 -224 151 -257 q 76 -132 76 -192 q 115 -37 76 -82 q 154 0 133 -15 l 299 0 q 250 -32 272 -14 q 201 -111 201 -71 q 217 -146 201 -132 q 257 -160 232 -160 q 292 -153 275 -160 q 317 -139 308 -146 q 328 -129 326 -132 l 340 -129 l 340 -222 q 311 -240 325 -235 q 229 -257 275 -257 z "},"ĩ":{"ha":396,"x_min":-21,"x_max":410,"o":"m 410 951 q 367 854 404 896 q 278 813 329 813 q 231 822 250 813 q 183 849 211 831 q 152 869 164 863 q 125 875 140 875 q 97 863 110 875 q 78 837 85 850 q 69 819 71 824 l 57 819 l -21 861 q 22 958 -15 917 q 111 1000 60 1000 q 158 991 139 1000 q 206 964 178 982 q 237 944 225 950 q 264 938 249 938 q 292 949 279 938 q 313 976 304 961 q 319 993 321 992 l 332 993 l 410 951 m 104 0 l 104 694 l 299 694 l 299 0 l 104 0 z "},"j":{"ha":417,"x_min":-104,"x_max":326,"o":"m 222 785 q 149 816 181 785 q 118 889 118 847 q 149 962 118 931 q 222 993 181 993 q 295 962 264 993 q 326 889 326 931 q 295 816 326 847 q 222 785 264 785 m 49 -278 q -60 -257 -7 -278 q -104 -236 -86 -249 l -56 -118 l -42 -118 q -19 -136 -28 -132 q 35 -153 7 -153 q 125 -42 125 -153 l 125 694 l 319 694 l 319 -42 q 248 -213 319 -149 q 49 -278 176 -278 z "},"ĵ":{"ha":414,"x_min":-104,"x_max":435,"o":"m -10 764 l 143 950 l 282 950 l 435 764 l 303 764 l 213 861 l 122 764 l -10 764 m 49 -278 q -60 -257 -7 -278 q -104 -236 -86 -249 l -56 -118 l -42 -118 q -19 -136 -28 -132 q 35 -153 7 -153 q 125 -42 125 -153 l 125 694 l 319 694 l 319 -42 q 248 -213 319 -149 q 49 -278 176 -278 z "},"k":{"ha":708,"x_min":97,"x_max":701,"o":"m 97 0 l 97 917 l 153 972 l 292 972 l 292 396 l 472 694 l 688 694 l 465 361 l 701 0 l 486 0 l 292 326 l 292 0 l 97 0 z "},"ķ":{"ha":708,"x_min":97,"x_max":701,"o":"m 97 0 l 97 917 l 153 972 l 292 972 l 292 396 l 472 694 l 688 694 l 465 361 l 701 0 l 486 0 l 292 326 l 292 0 l 97 0 m 315 -300 q 353 -267 336 -286 q 392 -187 392 -228 q 322 -163 349 -187 q 294 -104 294 -139 q 319 -40 294 -67 q 378 -14 344 -14 q 449 -42 422 -14 q 475 -118 475 -69 q 415 -293 475 -217 q 357 -347 390 -326 l 315 -300 z "},"ĸ":{"ha":708,"x_min":97,"x_max":701,"o":"m 97 0 l 97 639 l 153 694 l 292 694 l 292 396 l 472 694 l 688 694 l 465 361 l 701 0 l 486 0 l 292 326 l 292 0 l 97 0 z "},"l":{"ha":389,"x_min":97,"x_max":292,"o":"m 97 0 l 97 917 l 153 972 l 292 972 l 292 0 l 97 0 z "},"ĺ":{"ha":392,"x_min":97,"x_max":385,"o":"m 97 0 l 97 917 l 153 972 l 292 972 l 292 0 l 97 0 m 135 1042 l 197 1250 l 385 1250 l 246 1042 l 135 1042 z "},"ľ":{"ha":569,"x_min":97,"x_max":556,"o":"m 97 0 l 97 917 l 153 972 l 292 972 l 292 0 l 97 0 m 396 686 q 433 719 417 701 q 472 799 472 758 q 402 823 429 799 q 375 882 375 847 q 400 946 375 919 q 458 972 425 972 q 529 944 503 972 q 556 868 556 917 q 496 693 556 769 q 438 639 471 660 l 396 686 z "},"ļ":{"ha":389,"x_min":97,"x_max":292,"o":"m 97 0 l 97 917 l 153 972 l 292 972 l 292 0 l 97 0 m 125 -354 q 163 -321 146 -340 q 201 -242 201 -282 q 131 -217 158 -242 q 104 -158 104 -193 q 129 -94 104 -121 q 188 -68 154 -68 q 258 -96 232 -68 q 285 -172 285 -124 q 225 -347 285 -271 q 167 -401 200 -381 l 125 -354 z "},"ŀ":{"ha":576,"x_min":97,"x_max":563,"o":"m 97 0 l 97 917 l 153 972 l 292 972 l 292 0 l 97 0 m 458 382 q 385 413 417 382 q 354 486 354 444 q 385 559 354 528 q 458 590 417 590 q 531 559 500 590 q 563 486 563 528 q 531 413 563 444 q 458 382 500 382 z "},"ł":{"ha":451,"x_min":63,"x_max":424,"o":"m 132 0 l 132 347 l 63 292 l 63 472 l 132 528 l 132 917 l 188 972 l 326 972 l 326 685 l 424 764 l 424 583 l 326 504 l 326 0 l 132 0 z "},"m":{"ha":1160,"x_min":97,"x_max":1069,"o":"m 97 694 l 236 694 l 250 611 l 257 611 q 301 660 272 633 q 431 708 361 708 q 572 660 515 708 q 611 611 597 636 q 665 660 631 635 q 819 708 743 708 q 1003 639 936 708 q 1069 444 1069 569 l 1069 0 l 875 0 l 875 444 q 849 542 875 508 q 785 576 824 576 q 710 542 747 576 q 681 507 700 532 l 681 0 l 486 0 l 486 444 q 460 542 486 508 q 396 576 435 576 q 318 535 351 576 q 292 493 300 511 l 292 0 l 97 0 l 97 694 z "},"n":{"ha":799,"x_min":97,"x_max":708,"o":"m 97 694 l 236 694 l 250 611 l 257 611 q 304 660 271 632 q 444 708 369 708 q 640 640 571 708 q 708 444 708 571 l 708 0 l 514 0 l 514 444 q 486 543 514 510 q 410 576 458 576 q 322 535 364 576 q 292 493 308 518 l 292 0 l 97 0 l 97 694 z "},"ń":{"ha":799,"x_min":97,"x_max":708,"o":"m 97 694 l 236 694 l 250 611 l 257 611 q 304 660 271 632 q 444 708 369 708 q 640 640 571 708 q 708 444 708 571 l 708 0 l 514 0 l 514 444 q 486 543 514 510 q 410 576 458 576 q 322 535 364 576 q 292 493 308 518 l 292 0 l 97 0 l 97 694 m 326 764 l 389 972 l 576 972 l 438 764 l 326 764 z "},"ň":{"ha":799,"x_min":97,"x_max":708,"o":"m 97 694 l 236 694 l 250 611 l 257 611 q 304 660 271 632 q 444 708 369 708 q 640 640 571 708 q 708 444 708 571 l 708 0 l 514 0 l 514 444 q 486 543 514 510 q 410 576 458 576 q 322 535 364 576 q 292 493 308 518 l 292 0 l 97 0 l 97 694 m 329 786 l 176 972 l 308 972 l 399 875 l 489 972 l 621 972 l 468 786 l 329 786 z "},"ņ":{"ha":799,"x_min":97,"x_max":708,"o":"m 97 694 l 236 694 l 250 611 l 257 611 q 304 660 271 632 q 444 708 369 708 q 640 640 571 708 q 708 444 708 571 l 708 0 l 514 0 l 514 444 q 486 543 514 510 q 410 576 458 576 q 322 535 364 576 q 292 493 308 518 l 292 0 l 97 0 l 97 694 m 336 -300 q 374 -267 357 -286 q 413 -187 413 -228 q 342 -163 369 -187 q 315 -104 315 -139 q 340 -40 315 -67 q 399 -14 365 -14 q 469 -42 443 -14 q 496 -118 496 -69 q 436 -293 496 -217 q 378 -347 411 -326 l 336 -300 z "},"ñ":{"ha":799,"x_min":97,"x_max":708,"o":"m 97 694 l 236 694 l 250 611 l 257 611 q 304 660 271 632 q 444 708 369 708 q 640 640 571 708 q 708 444 708 571 l 708 0 l 514 0 l 514 444 q 486 543 514 510 q 410 576 458 576 q 322 535 364 576 q 292 493 308 518 l 292 0 l 97 0 l 97 694 m 621 939 q 578 842 615 883 q 489 800 540 800 q 442 809 461 800 q 394 836 422 818 q 363 856 375 850 q 336 863 351 863 q 308 850 321 863 q 289 824 296 838 q 281 807 282 811 l 268 807 l 190 849 q 233 946 196 904 q 322 988 271 988 q 369 978 350 988 q 417 951 389 969 q 448 931 436 938 q 475 925 460 925 q 503 937 490 925 q 524 964 515 949 q 531 981 532 979 l 543 981 l 621 939 z "},"o":{"ha":750,"x_min":56,"x_max":694,"o":"m 375 -14 q 138 76 221 -14 q 56 347 56 167 q 138 618 56 528 q 375 708 221 708 q 612 618 529 708 q 694 347 694 528 q 612 76 694 167 q 375 -14 529 -14 m 375 111 q 500 347 500 111 q 375 583 500 583 q 250 347 250 583 q 375 111 250 111 z "},"ó":{"ha":750,"x_min":56,"x_max":694,"o":"m 375 -14 q 138 76 221 -14 q 56 347 56 167 q 138 618 56 528 q 375 708 221 708 q 612 618 529 708 q 694 347 694 528 q 612 76 694 167 q 375 -14 529 -14 m 375 111 q 500 347 500 111 q 375 583 500 583 q 250 347 250 583 q 375 111 250 111 m 301 764 l 364 972 l 551 972 l 413 764 l 301 764 z "},"ô":{"ha":750,"x_min":56,"x_max":694,"o":"m 375 -14 q 138 76 221 -14 q 56 347 56 167 q 138 618 56 528 q 375 708 221 708 q 612 618 529 708 q 694 347 694 528 q 612 76 694 167 q 375 -14 529 -14 m 375 111 q 500 347 500 111 q 375 583 500 583 q 250 347 250 583 q 375 111 250 111 m 153 778 l 306 964 l 444 964 l 597 778 l 465 778 l 375 875 l 285 778 l 153 778 z "},"ö":{"ha":750,"x_min":56,"x_max":694,"o":"m 375 -14 q 138 76 221 -14 q 56 347 56 167 q 138 618 56 528 q 375 708 221 708 q 612 618 529 708 q 694 347 694 528 q 612 76 694 167 q 375 -14 529 -14 m 375 111 q 500 347 500 111 q 375 583 500 583 q 250 347 250 583 q 375 111 250 111 m 236 792 q 168 821 197 792 q 139 889 139 850 q 168 957 139 928 q 236 986 197 986 q 304 957 275 986 q 333 889 333 928 q 304 821 333 850 q 236 792 275 792 m 507 792 q 439 821 468 792 q 410 889 410 850 q 439 957 410 928 q 507 986 468 986 q 575 957 546 986 q 604 889 604 928 q 575 821 604 850 q 507 792 546 792 z "},"ò":{"ha":750,"x_min":56,"x_max":694,"o":"m 375 -14 q 138 76 221 -14 q 56 347 56 167 q 138 618 56 528 q 375 708 221 708 q 612 618 529 708 q 694 347 694 528 q 612 76 694 167 q 375 -14 529 -14 m 375 111 q 500 347 500 111 q 375 583 500 583 q 250 347 250 583 q 375 111 250 111 m 336 764 l 197 972 l 385 972 l 447 764 l 336 764 z "},"ő":{"ha":750,"x_min":56,"x_max":694,"o":"m 375 -14 q 138 76 221 -14 q 56 347 56 167 q 138 618 56 528 q 375 708 221 708 q 612 618 529 708 q 694 347 694 528 q 612 76 694 167 q 375 -14 529 -14 m 375 111 q 500 347 500 111 q 375 583 500 583 q 250 347 250 583 q 375 111 250 111 m 204 764 l 267 972 l 419 972 l 294 764 l 204 764 m 419 764 l 482 972 l 635 972 l 510 764 l 419 764 z "},"ō":{"ha":750,"x_min":56,"x_max":694,"o":"m 375 -14 q 138 76 221 -14 q 56 347 56 167 q 138 618 56 528 q 375 708 221 708 q 612 618 529 708 q 694 347 694 528 q 612 76 694 167 q 375 -14 529 -14 m 375 111 q 500 347 500 111 q 375 583 500 583 q 250 347 250 583 q 375 111 250 111 m 174 792 l 174 917 l 576 917 l 576 792 l 174 792 z "},"ø":{"ha":750,"x_min":56,"x_max":694,"o":"m 375 -14 q 204 24 275 -14 l 188 0 l 56 0 l 124 94 q 56 347 56 185 q 138 618 56 528 q 375 708 221 708 q 544 669 476 708 l 563 694 l 693 694 l 625 600 q 694 347 694 507 q 612 76 694 167 q 375 -14 529 -14 m 454 546 q 375 583 424 583 q 250 347 250 583 q 250 314 250 339 q 253 271 250 289 l 454 546 m 375 111 q 500 347 500 111 q 496 424 500 389 l 296 149 q 375 111 324 111 z "},"õ":{"ha":750,"x_min":56,"x_max":694,"o":"m 375 -14 q 138 76 221 -14 q 56 347 56 167 q 138 618 56 528 q 375 708 221 708 q 612 618 529 708 q 694 347 694 528 q 612 76 694 167 q 375 -14 529 -14 m 375 111 q 500 347 500 111 q 375 583 500 583 q 250 347 250 583 q 375 111 250 111 m 583 925 q 540 828 578 869 q 451 786 503 786 q 404 795 424 786 q 357 822 385 804 q 326 842 338 836 q 299 849 314 849 q 271 836 283 849 q 251 810 258 824 q 243 793 244 797 l 231 793 l 153 835 q 196 932 158 890 q 285 974 233 974 q 332 965 313 974 q 379 938 351 956 q 410 917 399 924 q 438 911 422 911 q 465 923 453 911 q 486 950 478 935 q 493 967 494 965 l 506 967 l 583 925 z "},"œ":{"ha":1174,"x_min":56,"x_max":1118,"o":"m 375 -14 q 138 76 221 -14 q 56 347 56 167 q 138 618 56 528 q 375 708 221 708 q 497 683 439 708 q 597 611 556 657 q 694 683 639 658 q 813 708 750 708 q 1037 619 956 708 q 1118 361 1118 531 l 1118 326 l 1076 285 l 701 285 q 868 111 701 111 q 975 139 926 111 q 1014 167 994 149 l 1028 167 l 1090 56 q 1024 21 1051 32 q 854 -14 940 -14 q 705 11 771 -14 q 597 83 639 36 q 501 10 554 35 q 375 -14 447 -14 m 375 111 q 500 347 500 111 q 375 583 500 583 q 250 347 250 583 q 375 111 250 111 m 924 410 q 891 538 924 493 q 813 583 858 583 q 734 538 767 583 q 701 410 701 493 l 924 410 z "},"p":{"ha":778,"x_min":97,"x_max":722,"o":"m 97 694 l 236 694 l 250 611 l 257 611 q 304 660 271 632 q 444 708 369 708 q 646 616 569 708 q 722 347 722 524 q 644 78 722 169 q 431 -14 565 -14 q 329 7 374 -14 q 292 28 307 15 l 292 -222 l 236 -278 l 97 -278 l 97 694 m 396 111 q 493 165 458 111 q 528 347 528 219 q 495 522 528 468 q 410 576 463 576 q 322 535 364 576 q 292 493 308 518 l 292 153 q 321 132 307 140 q 396 111 354 111 z "},"þ":{"ha":778,"x_min":97,"x_max":722,"o":"m 97 917 l 153 972 l 292 972 l 292 667 q 329 688 306 676 q 431 708 379 708 q 644 617 565 708 q 722 347 722 525 q 644 78 722 169 q 431 -14 565 -14 q 329 7 374 -14 q 292 28 307 15 l 292 -278 l 97 -278 l 97 917 m 396 111 q 493 165 458 111 q 528 347 528 219 q 493 529 528 475 q 396 583 458 583 q 321 563 360 583 l 292 542 l 292 153 q 321 132 307 140 q 396 111 354 111 z "},"q":{"ha":778,"x_min":56,"x_max":681,"o":"m 486 -222 l 486 28 q 447 7 467 14 q 347 -14 397 -14 q 134 78 213 -14 q 56 347 56 169 q 132 616 56 524 q 333 708 208 708 q 474 660 408 708 q 521 611 501 636 l 528 611 l 542 694 l 681 694 l 681 -278 l 542 -278 l 486 -222 m 382 111 q 457 132 424 111 q 486 153 472 140 l 486 493 q 456 535 469 518 q 368 576 414 576 q 283 522 315 576 q 250 347 250 468 q 285 165 250 219 q 382 111 319 111 z "},"r":{"ha":549,"x_min":97,"x_max":549,"o":"m 97 694 l 236 694 l 250 611 l 257 611 q 304 660 271 632 q 444 708 369 708 q 515 701 481 708 q 549 694 538 696 l 521 556 l 507 556 q 476 563 494 557 q 410 569 446 569 q 322 528 364 569 q 292 486 308 511 l 292 0 l 97 0 l 97 694 z "},"ŕ":{"ha":549,"x_min":97,"x_max":549,"o":"m 97 694 l 236 694 l 250 611 l 257 611 q 304 660 271 632 q 444 708 369 708 q 515 701 481 708 q 549 694 538 696 l 521 556 l 507 556 q 476 563 494 557 q 410 569 446 569 q 322 528 364 569 q 292 486 308 511 l 292 0 l 97 0 l 97 694 m 239 764 l 301 972 l 489 972 l 350 764 l 239 764 z "},"ř":{"ha":563,"x_min":97,"x_max":549,"o":"m 97 694 l 236 694 l 250 611 l 257 611 q 304 660 271 632 q 444 708 369 708 q 515 701 481 708 q 549 694 538 696 l 521 556 l 507 556 q 476 563 494 557 q 410 569 446 569 q 322 528 364 569 q 292 486 308 511 l 292 0 l 97 0 l 97 694 m 257 786 l 104 972 l 236 972 l 326 875 l 417 972 l 549 972 l 396 786 l 257 786 z "},"ŗ":{"ha":549,"x_min":97,"x_max":549,"o":"m 97 694 l 236 694 l 250 611 l 257 611 q 304 660 271 632 q 444 708 369 708 q 515 701 481 708 q 549 694 538 696 l 521 556 l 507 556 q 476 563 494 557 q 410 569 446 569 q 322 528 364 569 q 292 486 308 511 l 292 0 l 97 0 l 97 694 m 125 -340 q 163 -307 146 -326 q 201 -228 201 -268 q 131 -203 158 -228 q 104 -144 104 -179 q 129 -81 104 -107 q 188 -54 154 -54 q 258 -82 232 -54 q 285 -158 285 -110 q 225 -333 285 -257 q 167 -387 200 -367 l 125 -340 z "},"s":{"ha":674,"x_min":42,"x_max":632,"o":"m 326 -14 q 121 21 217 -14 q 42 56 85 33 l 104 167 l 118 167 q 168 139 144 150 q 306 111 226 111 q 406 133 375 111 q 438 189 438 154 q 403 242 438 222 q 296 283 368 261 q 172 331 219 308 q 90 394 125 353 q 56 500 56 436 q 129 651 56 593 q 347 708 203 708 q 536 674 435 708 q 611 639 571 661 l 549 528 l 535 528 q 488 556 510 546 q 361 583 429 583 q 278 563 307 583 q 250 514 250 543 q 284 463 250 482 q 392 419 318 443 q 514 373 465 396 q 597 308 563 350 q 632 203 632 267 q 557 44 632 103 q 326 -14 482 -14 z "},"ś":{"ha":674,"x_min":42,"x_max":632,"o":"m 326 -14 q 121 21 217 -14 q 42 56 85 33 l 104 167 l 118 167 q 168 139 144 150 q 306 111 226 111 q 406 133 375 111 q 438 189 438 154 q 403 242 438 222 q 296 283 368 261 q 172 331 219 308 q 90 394 125 353 q 56 500 56 436 q 129 651 56 593 q 347 708 203 708 q 536 674 435 708 q 611 639 571 661 l 549 528 l 535 528 q 488 556 510 546 q 361 583 429 583 q 278 563 307 583 q 250 514 250 543 q 284 463 250 482 q 392 419 318 443 q 514 373 465 396 q 597 308 563 350 q 632 203 632 267 q 557 44 632 103 q 326 -14 482 -14 m 246 764 l 308 972 l 496 972 l 357 764 l 246 764 z "},"š":{"ha":674,"x_min":42,"x_max":632,"o":"m 326 -14 q 121 21 217 -14 q 42 56 85 33 l 104 167 l 118 167 q 168 139 144 150 q 306 111 226 111 q 406 133 375 111 q 438 189 438 154 q 403 242 438 222 q 296 283 368 261 q 172 331 219 308 q 90 394 125 353 q 56 500 56 436 q 129 651 56 593 q 347 708 203 708 q 536 674 435 708 q 611 639 571 661 l 549 528 l 535 528 q 488 556 510 546 q 361 583 429 583 q 278 563 307 583 q 250 514 250 543 q 284 463 250 482 q 392 419 318 443 q 514 373 465 396 q 597 308 563 350 q 632 203 632 267 q 557 44 632 103 q 326 -14 482 -14 m 264 786 l 111 972 l 243 972 l 333 875 l 424 972 l 556 972 l 403 786 l 264 786 z "},"ş":{"ha":674,"x_min":42,"x_max":632,"o":"m 632 203 q 569 55 632 113 q 378 -12 506 -3 l 378 -35 q 472 -69 435 -35 q 510 -153 510 -104 q 469 -237 510 -203 q 357 -271 428 -271 q 272 -257 314 -271 q 239 -243 250 -250 l 268 -174 l 281 -174 q 290 -180 282 -175 q 313 -190 299 -185 q 343 -194 328 -194 q 378 -184 365 -194 q 392 -153 392 -174 q 378 -122 392 -133 q 343 -111 365 -111 l 274 -111 l 274 -11 q 121 21 196 -6 q 42 56 85 33 l 104 167 l 118 167 q 168 139 144 150 q 306 111 226 111 q 406 133 375 111 q 438 189 438 154 q 403 242 438 222 q 296 283 368 261 q 172 331 219 308 q 90 394 125 353 q 56 500 56 436 q 129 651 56 593 q 347 708 203 708 q 536 674 435 708 q 611 639 571 661 l 549 528 l 535 528 q 488 556 510 546 q 361 583 429 583 q 278 563 307 583 q 250 514 250 543 q 284 463 250 482 q 392 419 318 443 q 514 373 465 396 q 597 308 563 350 q 632 203 632 267 z "},"ș":{"ha":660,"x_min":42,"x_max":632,"o":"m 326 -14 q 121 21 217 -14 q 42 56 85 33 l 104 167 l 118 167 q 168 139 144 150 q 306 111 226 111 q 406 133 375 111 q 438 189 438 154 q 403 242 438 222 q 296 283 368 261 q 172 331 219 308 q 90 394 125 353 q 56 500 56 436 q 129 651 56 593 q 347 708 203 708 q 536 674 435 708 q 611 639 571 661 l 549 528 l 535 528 q 488 556 510 546 q 361 583 429 583 q 278 563 307 583 q 250 514 250 543 q 284 463 250 482 q 392 419 318 443 q 514 373 465 396 q 597 308 563 350 q 632 203 632 267 q 557 44 632 103 q 326 -14 482 -14 m 271 -347 q 308 -314 292 -333 q 347 -235 347 -275 q 277 -210 304 -235 q 250 -151 250 -186 q 275 -87 250 -114 q 333 -61 300 -61 q 404 -89 378 -61 q 431 -165 431 -117 q 371 -340 431 -264 q 313 -394 346 -374 l 271 -347 z "},"ß":{"ha":861,"x_min":28,"x_max":833,"o":"m 535 -14 q 415 7 469 -14 q 368 28 392 15 l 417 146 l 431 146 q 454 128 444 132 q 521 111 481 111 q 639 236 639 111 q 613 307 639 278 q 533 378 588 336 q 431 470 467 426 q 396 583 396 514 q 403 635 396 613 q 425 690 411 658 q 444 736 438 717 q 451 778 451 756 q 429 838 451 814 q 375 861 407 861 q 320 835 342 861 q 299 764 299 810 l 299 0 l 104 0 l 104 569 l 28 569 l 28 694 l 104 694 l 104 764 q 137 874 104 822 q 228 956 169 925 q 361 986 288 986 q 513 956 447 986 q 612 878 578 926 q 646 778 646 831 q 636 726 646 749 q 608 671 626 703 q 584 625 592 644 q 576 583 576 606 q 602 521 576 547 q 681 458 628 494 q 760 399 729 425 q 812 331 790 372 q 833 236 833 290 q 755 56 833 125 q 535 -14 676 -14 z "},"t":{"ha":576,"x_min":21,"x_max":576,"o":"m 368 -14 q 180 51 249 -14 q 111 222 111 117 l 111 569 l 21 569 l 21 653 l 229 861 l 306 861 l 306 694 l 465 694 l 465 569 l 306 569 l 306 222 q 326 139 306 167 q 382 111 347 111 q 464 139 424 111 q 500 167 482 151 l 514 167 l 576 56 q 514 21 540 32 q 368 -14 439 -14 z "},"ť":{"ha":708,"x_min":21,"x_max":694,"o":"m 368 -14 q 180 51 249 -14 q 111 222 111 117 l 111 569 l 21 569 l 21 653 l 229 861 l 306 861 l 306 694 l 465 694 l 465 569 l 306 569 l 306 222 q 326 139 306 167 q 382 111 347 111 q 464 139 424 111 q 500 167 482 151 l 514 167 l 576 56 q 514 21 540 32 q 368 -14 439 -14 m 535 575 q 572 608 556 589 q 611 688 611 647 q 541 712 568 688 q 514 771 514 736 q 539 835 514 808 q 597 861 564 861 q 668 833 642 861 q 694 757 694 806 q 635 582 694 658 q 576 528 610 549 l 535 575 z "},"ț":{"ha":576,"x_min":21,"x_max":576,"o":"m 368 -14 q 180 51 249 -14 q 111 222 111 117 l 111 569 l 21 569 l 21 653 l 229 861 l 306 861 l 306 694 l 465 694 l 465 569 l 306 569 l 306 222 q 326 139 306 167 q 382 111 347 111 q 464 139 424 111 q 500 167 482 151 l 514 167 l 576 56 q 514 21 540 32 q 368 -14 439 -14 m 278 -354 q 315 -321 299 -340 q 354 -242 354 -282 q 284 -217 311 -242 q 257 -158 257 -193 q 282 -94 257 -121 q 340 -68 307 -68 q 411 -96 385 -68 q 438 -172 438 -124 q 378 -347 438 -271 q 319 -401 353 -381 l 278 -354 z "},"u":{"ha":806,"x_min":97,"x_max":708,"o":"m 361 -14 q 166 55 235 -14 q 97 250 97 124 l 97 694 l 292 694 l 292 250 q 319 151 292 185 q 396 118 347 118 q 483 160 442 118 q 514 201 497 176 l 514 694 l 708 694 l 708 0 l 569 0 l 556 83 l 549 83 q 501 35 525 53 q 361 -14 443 -14 z "},"ú":{"ha":806,"x_min":97,"x_max":708,"o":"m 361 -14 q 166 55 235 -14 q 97 250 97 124 l 97 694 l 292 694 l 292 250 q 319 151 292 185 q 396 118 347 118 q 483 160 442 118 q 514 201 497 176 l 514 694 l 708 694 l 708 0 l 569 0 l 556 83 l 549 83 q 501 35 525 53 q 361 -14 443 -14 m 329 751 l 392 960 l 579 960 l 440 751 l 329 751 z "},"û":{"ha":806,"x_min":97,"x_max":708,"o":"m 361 -14 q 166 55 235 -14 q 97 250 97 124 l 97 694 l 292 694 l 292 250 q 319 151 292 185 q 396 118 347 118 q 483 160 442 118 q 514 201 497 176 l 514 694 l 708 694 l 708 0 l 569 0 l 556 83 l 549 83 q 501 35 525 53 q 361 -14 443 -14 m 181 778 l 333 964 l 472 964 l 625 778 l 493 778 l 403 875 l 313 778 l 181 778 z "},"ü":{"ha":806,"x_min":97,"x_max":708,"o":"m 361 -14 q 166 55 235 -14 q 97 250 97 124 l 97 694 l 292 694 l 292 250 q 319 151 292 185 q 396 118 347 118 q 483 160 442 118 q 514 201 497 176 l 514 694 l 708 694 l 708 0 l 569 0 l 556 83 l 549 83 q 501 35 525 53 q 361 -14 443 -14 m 264 792 q 196 821 225 792 q 167 889 167 850 q 196 957 167 928 q 264 986 225 986 q 332 957 303 986 q 361 889 361 928 q 332 821 361 850 q 264 792 303 792 m 535 792 q 467 821 496 792 q 438 889 438 850 q 467 957 438 928 q 535 986 496 986 q 603 957 574 986 q 632 889 632 928 q 603 821 632 850 q 535 792 574 792 z "},"ù":{"ha":806,"x_min":97,"x_max":708,"o":"m 361 -14 q 166 55 235 -14 q 97 250 97 124 l 97 694 l 292 694 l 292 250 q 319 151 292 185 q 396 118 347 118 q 483 160 442 118 q 514 201 497 176 l 514 694 l 708 694 l 708 0 l 569 0 l 556 83 l 549 83 q 501 35 525 53 q 361 -14 443 -14 m 378 751 l 239 960 l 426 960 l 489 751 l 378 751 z "},"ű":{"ha":806,"x_min":97,"x_max":708,"o":"m 361 -14 q 166 55 235 -14 q 97 250 97 124 l 97 694 l 292 694 l 292 250 q 319 151 292 185 q 396 118 347 118 q 483 160 442 118 q 514 201 497 176 l 514 694 l 708 694 l 708 0 l 569 0 l 556 83 l 549 83 q 501 35 525 53 q 361 -14 443 -14 m 232 751 l 294 960 l 447 960 l 322 751 l 232 751 m 447 751 l 510 960 l 663 960 l 538 751 l 447 751 z "},"ū":{"ha":806,"x_min":97,"x_max":708,"o":"m 361 -14 q 166 55 235 -14 q 97 250 97 124 l 97 694 l 292 694 l 292 250 q 319 151 292 185 q 396 118 347 118 q 483 160 442 118 q 514 201 497 176 l 514 694 l 708 694 l 708 0 l 569 0 l 556 83 l 549 83 q 501 35 525 53 q 361 -14 443 -14 m 201 779 l 201 904 l 604 904 l 604 779 l 201 779 z "},"ų":{"ha":813,"x_min":97,"x_max":757,"o":"m 757 -129 l 757 -222 q 728 -240 742 -235 q 646 -257 692 -257 q 531 -224 568 -257 q 493 -132 493 -192 q 532 -37 493 -82 q 571 0 550 -15 l 569 0 l 556 83 l 549 83 q 501 35 525 53 q 361 -14 443 -14 q 166 55 235 -14 q 97 250 97 124 l 97 694 l 292 694 l 292 250 q 319 151 292 185 q 396 118 347 118 q 483 160 442 118 q 514 201 497 176 l 514 694 l 708 694 l 708 0 l 715 0 q 667 -32 689 -14 q 618 -111 618 -71 q 633 -146 618 -132 q 674 -160 649 -160 q 708 -153 692 -160 q 734 -139 725 -146 q 744 -129 743 -132 l 757 -129 z "},"ů":{"ha":819,"x_min":97,"x_max":708,"o":"m 361 -14 q 166 55 235 -14 q 97 250 97 124 l 97 694 l 292 694 l 292 250 q 319 151 292 185 q 396 118 347 118 q 483 160 442 118 q 514 201 497 176 l 514 694 l 708 694 l 708 0 l 569 0 l 556 83 l 549 83 q 501 35 525 53 q 361 -14 443 -14 m 410 757 q 300 799 343 757 q 257 903 257 840 q 300 1007 257 965 q 410 1049 343 1049 q 519 1007 476 1049 q 563 903 563 965 q 519 799 563 840 q 410 757 476 757 m 410 847 q 444 863 431 847 q 458 903 458 878 q 444 943 458 928 q 410 958 431 958 q 375 943 389 958 q 361 903 361 928 q 375 863 361 878 q 410 847 389 847 z "},"v":{"ha":682,"x_min":21,"x_max":661,"o":"m 21 694 l 204 694 l 329 264 q 338 215 335 243 l 340 188 l 346 188 l 349 215 q 357 264 351 242 l 482 694 l 661 694 l 432 0 l 250 0 l 21 694 z "},"w":{"ha":1001,"x_min":21,"x_max":981,"o":"m 21 694 l 201 694 l 299 313 q 307 264 304 292 l 310 236 l 315 236 l 318 264 q 326 313 321 290 l 435 694 l 568 694 l 675 313 q 683 264 681 292 l 686 236 l 692 236 l 694 264 q 703 313 697 292 l 800 694 l 981 694 l 793 0 l 621 0 l 510 410 q 501 458 504 432 l 499 486 l 493 486 l 490 458 q 482 410 488 432 l 371 0 l 208 0 l 21 694 z "},"x":{"ha":681,"x_min":14,"x_max":667,"o":"m 222 354 l 21 694 l 222 694 l 319 514 q 328 492 325 501 q 335 475 332 482 l 338 458 l 343 458 l 346 475 q 351 492 347 481 q 361 514 354 504 l 458 694 l 660 694 l 458 354 l 667 0 l 465 0 l 361 188 q 351 210 354 199 q 346 225 347 221 q 343 243 343 236 l 338 243 q 335 225 338 236 q 319 188 332 214 l 215 0 l 14 0 l 222 354 z "},"y":{"ha":701,"x_min":26,"x_max":688,"o":"m 201 -292 q 93 -271 146 -292 q 49 -250 67 -262 l 97 -132 l 111 -132 q 133 -150 125 -146 q 188 -167 160 -167 q 249 -142 221 -167 q 289 -69 276 -117 l 308 0 l 256 0 l 26 694 l 208 694 l 347 243 q 356 194 353 221 l 358 167 l 364 167 l 367 194 q 375 243 369 221 l 493 694 l 688 694 l 458 -69 q 201 -292 389 -292 z "},"ý":{"ha":688,"x_min":26,"x_max":688,"o":"m 201 -292 q 93 -271 146 -292 q 49 -250 67 -262 l 97 -132 l 111 -132 q 133 -150 125 -146 q 188 -167 160 -167 q 249 -142 221 -167 q 289 -69 276 -117 l 308 0 l 256 0 l 26 694 l 208 694 l 347 243 q 356 194 353 221 l 358 167 l 364 167 l 367 194 q 375 243 369 221 l 493 694 l 688 694 l 458 -69 q 201 -292 389 -292 m 271 751 l 333 960 l 521 960 l 382 751 l 271 751 z "},"ÿ":{"ha":688,"x_min":26,"x_max":688,"o":"m 201 -292 q 93 -271 146 -292 q 49 -250 67 -262 l 97 -132 l 111 -132 q 133 -150 125 -146 q 188 -167 160 -167 q 249 -142 221 -167 q 289 -69 276 -117 l 308 0 l 256 0 l 26 694 l 208 694 l 347 243 q 356 194 353 221 l 358 167 l 364 167 l 367 194 q 375 243 369 221 l 493 694 l 688 694 l 458 -69 q 201 -292 389 -292 m 204 792 q 136 821 165 792 q 107 889 107 850 q 136 957 107 928 q 204 986 165 986 q 272 957 243 986 q 301 889 301 928 q 272 821 301 850 q 204 792 243 792 m 475 792 q 407 821 436 792 q 378 889 378 850 q 407 957 378 928 q 475 986 436 986 q 543 957 514 986 q 572 889 572 928 q 543 821 572 850 q 475 792 514 792 z "},"z":{"ha":653,"x_min":49,"x_max":604,"o":"m 49 0 l 49 132 l 389 569 l 49 569 l 49 694 l 597 694 l 597 563 l 243 125 l 604 125 l 604 0 l 49 0 z "},"ź":{"ha":653,"x_min":49,"x_max":604,"o":"m 49 0 l 49 132 l 389 569 l 49 569 l 49 694 l 597 694 l 597 563 l 243 125 l 604 125 l 604 0 l 49 0 m 232 764 l 294 972 l 482 972 l 343 764 l 232 764 z "},"ž":{"ha":653,"x_min":49,"x_max":604,"o":"m 49 0 l 49 132 l 389 569 l 49 569 l 49 694 l 597 694 l 597 563 l 243 125 l 604 125 l 604 0 l 49 0 m 250 786 l 97 972 l 229 972 l 319 875 l 410 972 l 542 972 l 389 786 l 250 786 z "},"ż":{"ha":653,"x_min":49,"x_max":604,"o":"m 49 0 l 49 132 l 389 569 l 49 569 l 49 694 l 597 694 l 597 563 l 243 125 l 604 125 l 604 0 l 49 0 m 319 778 q 247 809 278 778 q 215 882 215 840 q 247 955 215 924 q 319 986 278 986 q 392 955 361 986 q 424 882 424 924 q 392 809 424 840 q 319 778 361 778 z "},"ª":{"ha":528,"x_min":35,"x_max":479,"o":"m 201 486 q 79 527 124 486 q 35 632 35 568 q 88 744 35 703 q 257 785 142 785 l 313 785 l 313 806 q 229 882 313 882 q 161 861 200 882 l 131 840 l 117 840 l 67 924 q 119 954 85 938 q 257 986 189 986 q 424 939 369 986 q 479 806 479 892 l 479 500 l 349 500 l 340 549 l 333 549 q 301 517 324 533 q 201 486 257 486 m 250 597 q 294 614 275 597 q 313 632 301 618 l 313 681 l 257 681 q 194 639 194 681 q 250 597 194 597 z "},"º":{"ha":583,"x_min":49,"x_max":535,"o":"m 292 486 q 168 519 224 486 q 81 608 113 551 q 49 736 49 665 q 81 864 49 807 q 168 953 113 921 q 292 986 224 986 q 415 953 360 986 q 503 864 471 921 q 535 736 535 807 q 503 608 535 665 q 415 519 471 551 q 292 486 360 486 m 292 597 q 347 631 325 597 q 368 736 368 664 q 347 842 368 808 q 292 875 325 875 q 215 736 215 875 q 292 597 215 597 z "},"А":{"ha":833,"x_min":21,"x_max":813,"o":"m 21 0 l 306 972 l 528 972 l 813 0 l 618 0 l 556 222 l 278 222 l 215 0 l 21 0 m 521 347 l 438 639 q 429 676 433 654 q 424 707 425 697 l 419 743 l 414 743 l 408 707 q 402 673 406 694 q 396 639 399 651 l 313 347 l 521 347 z "},"Б":{"ha":833,"x_min":118,"x_max":778,"o":"m 118 972 l 701 972 l 701 847 l 313 847 l 313 597 l 403 597 q 685 517 592 597 q 778 299 778 436 q 403 0 778 0 l 118 0 l 118 972 m 403 125 q 540 167 497 125 q 583 299 583 210 q 540 430 583 388 q 403 472 497 472 l 313 472 l 313 125 l 403 125 z "},"В":{"ha":847,"x_min":118,"x_max":778,"o":"m 118 972 l 410 972 q 659 904 575 972 q 743 722 743 836 q 656 550 743 610 q 569 514 617 524 q 674 474 626 504 q 748 394 718 444 q 778 271 778 344 q 410 0 778 0 l 118 0 l 118 972 m 410 569 q 510 608 472 569 q 549 708 549 646 q 510 809 549 771 q 410 847 472 847 l 313 847 l 313 569 l 410 569 m 410 125 q 583 285 583 125 q 410 444 583 444 l 313 444 l 313 125 l 410 125 z "},"Г":{"ha":715,"x_min":118,"x_max":701,"o":"m 118 0 l 118 972 l 701 972 l 701 847 l 313 847 l 313 0 l 118 0 z "},"Ѓ":{"ha":715,"x_min":118,"x_max":701,"o":"m 118 0 l 118 972 l 701 972 l 701 847 l 313 847 l 313 0 l 118 0 m 372 1042 l 435 1250 l 622 1250 l 483 1042 l 372 1042 z "},"Ґ":{"ha":715,"x_min":118,"x_max":701,"o":"m 118 0 l 118 972 l 549 972 l 569 1125 l 701 1125 l 701 847 l 313 847 l 313 0 l 118 0 z "},"Д":{"ha":910,"x_min":7,"x_max":854,"o":"m 7 125 l 76 125 q 111 172 99 147 q 153 333 147 240 l 188 972 l 764 972 l 764 125 l 854 125 l 854 -208 l 708 -208 l 681 0 l 188 0 l 160 -208 l 7 -208 l 7 125 m 569 125 l 569 847 l 368 847 l 340 333 q 299 172 335 240 q 264 125 286 147 l 569 125 z "},"Е":{"ha":736,"x_min":118,"x_max":701,"o":"m 118 0 l 118 972 l 701 972 l 701 847 l 313 847 l 313 569 l 618 569 l 618 444 l 313 444 l 313 125 l 701 125 l 701 0 l 118 0 z "},"Ѐ":{"ha":736,"x_min":118,"x_max":701,"o":"m 118 0 l 118 972 l 701 972 l 701 847 l 313 847 l 313 569 l 618 569 l 618 444 l 313 444 l 313 125 l 701 125 l 701 0 l 118 0 m 379 1042 l 240 1250 l 428 1250 l 490 1042 l 379 1042 z "},"Ё":{"ha":736,"x_min":118,"x_max":701,"o":"m 118 0 l 118 972 l 701 972 l 701 847 l 313 847 l 313 569 l 618 569 l 618 444 l 313 444 l 313 125 l 701 125 l 701 0 l 118 0 m 299 1069 q 231 1099 260 1069 q 201 1167 201 1128 q 231 1235 201 1206 q 299 1264 260 1264 q 367 1235 338 1264 q 396 1167 396 1206 q 367 1099 396 1128 q 299 1069 338 1069 m 569 1069 q 501 1099 531 1069 q 472 1167 472 1128 q 501 1235 472 1206 q 569 1264 531 1264 q 638 1235 608 1264 q 667 1167 667 1206 q 638 1099 667 1128 q 569 1069 608 1069 z "},"Ж":{"ha":1250,"x_min":35,"x_max":1215,"o":"m 153 -14 q 65 -4 101 -14 l 35 7 l 49 118 l 56 118 l 64 114 q 82 111 75 111 q 132 160 121 111 l 174 354 q 264 481 193 439 q 333 507 299 501 q 271 532 300 514 q 188 653 207 572 l 153 813 q 104 861 142 861 q 85 857 101 861 q 76 854 76 854 l 69 854 l 56 965 l 89 975 q 174 986 131 986 q 289 947 244 986 q 347 847 333 908 l 389 660 q 424 584 400 606 q 500 563 447 563 l 528 563 l 528 972 l 722 972 l 722 563 l 750 563 q 826 584 803 563 q 861 660 850 606 l 903 847 q 961 947 917 908 q 1076 986 1006 986 q 1161 975 1119 986 l 1194 965 l 1181 854 l 1174 854 q 1165 857 1174 854 q 1146 861 1149 861 q 1097 813 1108 861 l 1063 653 q 979 532 1043 572 q 917 507 950 514 q 986 481 951 501 q 1076 354 1057 439 l 1118 160 q 1168 111 1129 111 q 1194 118 1183 111 l 1201 118 l 1215 7 q 1158 -10 1185 -6 q 1097 -14 1132 -14 q 982 25 1026 -14 q 924 125 938 64 l 875 347 q 840 417 864 396 q 771 438 817 438 l 722 438 l 722 0 l 528 0 l 528 438 l 479 438 q 410 417 433 438 q 375 347 386 396 l 326 125 q 268 25 313 64 q 153 -14 224 -14 z "},"З":{"ha":743,"x_min":21,"x_max":681,"o":"m 306 -14 q 93 24 181 -14 q 21 63 51 40 l 83 174 l 97 174 q 144 142 111 160 q 292 111 208 111 q 440 152 394 111 q 486 278 486 193 q 442 403 486 363 q 306 444 399 444 l 174 444 l 174 569 l 306 569 q 424 608 383 569 q 465 715 465 646 q 299 861 465 861 q 164 829 231 861 q 118 799 135 814 l 104 799 l 42 910 q 113 947 74 931 q 313 986 199 986 q 572 915 483 986 q 660 729 660 844 q 565 551 660 614 q 472 514 524 524 q 576 472 531 504 q 681 264 681 401 q 588 60 681 133 q 306 -14 496 -14 z "},"И":{"ha":917,"x_min":118,"x_max":799,"o":"m 118 972 l 313 972 l 313 424 q 308 363 313 417 l 306 332 l 311 332 q 321 363 318 356 q 347 424 338 404 l 611 972 l 799 972 l 799 0 l 604 0 l 604 549 q 607 610 604 574 l 611 640 l 606 640 q 596 610 599 617 q 569 549 586 583 l 306 0 l 118 0 l 118 972 z "},"Й":{"ha":917,"x_min":118,"x_max":799,"o":"m 118 972 l 313 972 l 313 424 q 308 363 313 417 l 306 332 l 311 332 q 321 363 318 356 q 347 424 338 404 l 611 972 l 799 972 l 799 0 l 604 0 l 604 549 q 607 610 604 574 l 611 640 l 606 640 q 596 610 599 617 q 569 549 586 583 l 306 0 l 118 0 l 118 972 m 458 1042 q 290 1091 344 1042 q 236 1236 236 1140 l 389 1236 q 458 1139 389 1139 q 528 1236 528 1139 l 681 1236 q 626 1091 681 1140 q 458 1042 572 1042 z "},"Ѝ":{"ha":917,"x_min":118,"x_max":799,"o":"m 118 972 l 313 972 l 313 424 q 308 363 313 417 l 306 332 l 311 332 q 321 363 318 356 q 347 424 338 404 l 611 972 l 799 972 l 799 0 l 604 0 l 604 549 q 607 610 604 574 l 611 640 l 606 640 q 596 610 599 617 q 569 549 586 583 l 306 0 l 118 0 l 118 972 m 403 1042 l 264 1250 l 451 1250 l 514 1042 l 403 1042 z "},"К":{"ha":854,"x_min":118,"x_max":819,"o":"m 701 -14 q 586 25 631 -14 q 528 125 542 64 l 479 347 q 444 417 468 396 q 375 438 421 438 l 313 438 l 313 0 l 118 0 l 118 972 l 313 972 l 313 563 l 354 563 q 431 584 407 563 q 465 660 454 606 l 507 847 q 565 947 521 908 q 681 986 610 986 q 765 975 724 986 l 799 965 l 785 854 l 778 854 q 769 857 778 854 q 750 861 753 861 q 701 813 713 861 l 667 653 q 583 532 647 572 q 521 507 554 514 q 590 481 556 501 q 681 354 661 439 l 722 160 q 772 111 733 111 l 790 114 l 799 118 l 806 118 l 819 7 l 789 -4 q 701 -14 753 -14 z "},"Ќ":{"ha":854,"x_min":118,"x_max":819,"o":"m 701 -14 q 586 25 631 -14 q 528 125 542 64 l 479 347 q 444 417 468 396 q 375 438 421 438 l 313 438 l 313 0 l 118 0 l 118 972 l 313 972 l 313 563 l 354 563 q 431 584 407 563 q 465 660 454 606 l 507 847 q 565 947 521 908 q 681 986 610 986 q 765 975 724 986 l 799 965 l 785 854 l 778 854 q 769 857 778 854 q 750 861 753 861 q 701 813 713 861 l 667 653 q 583 532 647 572 q 521 507 554 514 q 590 481 556 501 q 681 354 661 439 l 722 160 q 772 111 733 111 l 790 114 l 799 118 l 806 118 l 819 7 l 789 -4 q 701 -14 753 -14 m 358 1042 l 421 1250 l 608 1250 l 469 1042 l 358 1042 z "},"Л":{"ha":882,"x_min":7,"x_max":764,"o":"m 104 -14 q 38 -4 69 -14 l 7 7 l 21 118 l 35 118 l 47 114 l 69 111 q 113 137 97 111 q 132 222 129 163 l 174 972 l 764 972 l 764 0 l 569 0 l 569 847 l 361 847 l 326 222 q 264 46 319 106 q 104 -14 208 -14 z "},"М":{"ha":1208,"x_min":118,"x_max":1090,"o":"m 118 972 l 306 972 l 576 424 q 594 378 590 393 l 601 354 l 607 354 l 614 378 q 632 424 618 393 l 903 972 l 1090 972 l 1090 0 l 896 0 l 896 576 q 899 638 896 619 l 903 668 l 897 668 q 888 638 890 644 q 861 576 871 596 l 646 160 l 549 160 l 347 563 q 321 624 331 597 q 311 654 318 631 l 306 654 l 308 624 q 313 563 313 569 l 313 0 l 118 0 l 118 972 z "},"Н":{"ha":917,"x_min":118,"x_max":799,"o":"m 118 0 l 118 972 l 313 972 l 313 556 l 604 556 l 604 972 l 799 972 l 799 0 l 604 0 l 604 431 l 313 431 l 313 0 l 118 0 z "},"О":{"ha":875,"x_min":69,"x_max":806,"o":"m 438 -14 q 167 108 264 -14 q 69 486 69 229 q 167 865 69 743 q 438 986 264 986 q 708 865 611 986 q 806 486 806 743 q 708 108 806 229 q 438 -14 611 -14 m 438 111 q 563 197 514 111 q 611 486 611 283 q 563 775 611 689 q 438 861 514 861 q 313 775 361 861 q 264 486 264 689 q 313 197 264 283 q 438 111 361 111 z "},"П":{"ha":917,"x_min":118,"x_max":799,"o":"m 118 0 l 118 972 l 799 972 l 799 0 l 604 0 l 604 847 l 313 847 l 313 0 l 118 0 z "},"Р":{"ha":826,"x_min":118,"x_max":771,"o":"m 118 972 l 396 972 q 681 892 592 972 q 771 646 771 811 q 681 400 771 481 q 396 319 592 319 l 313 319 l 313 0 l 118 0 l 118 972 m 396 444 q 534 491 492 444 q 576 646 576 538 q 534 801 576 754 q 396 847 492 847 l 313 847 l 313 444 l 396 444 z "},"С":{"ha":743,"x_min":69,"x_max":715,"o":"m 458 -14 q 169 107 269 -14 q 69 486 69 228 q 167 865 69 743 q 444 986 265 986 q 633 947 550 986 q 701 910 671 932 l 639 799 l 625 799 q 581 829 610 813 q 458 861 519 861 q 315 776 367 861 q 264 486 264 692 q 317 195 264 279 q 472 111 371 111 q 594 142 536 111 q 639 174 625 160 l 653 174 l 715 63 q 647 24 688 40 q 458 -14 567 -14 z "},"Т":{"ha":708,"x_min":14,"x_max":694,"o":"m 257 0 l 257 847 l 14 847 l 14 972 l 694 972 l 694 847 l 451 847 l 451 0 l 257 0 z "},"У":{"ha":799,"x_min":14,"x_max":785,"o":"m 264 -21 q 150 0 204 -21 q 104 21 125 8 l 153 139 l 167 139 q 190 121 181 125 q 250 104 217 104 q 310 127 285 104 q 347 188 335 150 l 368 257 l 311 257 l 14 972 l 215 972 l 396 507 q 415 436 407 475 q 421 403 418 425 l 426 403 q 429 436 426 414 q 434 467 431 446 q 444 507 438 488 l 583 972 l 785 972 l 535 188 q 436 36 504 93 q 264 -21 368 -21 z "},"Ў":{"ha":799,"x_min":14,"x_max":785,"o":"m 264 -21 q 150 0 204 -21 q 104 21 125 8 l 153 139 l 167 139 q 190 121 181 125 q 250 104 217 104 q 310 127 285 104 q 347 188 335 150 l 368 257 l 311 257 l 14 972 l 215 972 l 396 507 q 415 436 407 475 q 421 403 418 425 l 426 403 q 429 436 426 414 q 434 467 431 446 q 444 507 438 488 l 583 972 l 785 972 l 535 188 q 436 36 504 93 q 264 -21 368 -21 m 400 1042 q 232 1091 286 1042 q 178 1236 178 1140 l 331 1236 q 400 1139 331 1139 q 469 1236 469 1139 l 622 1236 q 568 1091 622 1140 q 400 1042 514 1042 z "},"Ф":{"ha":1097,"x_min":49,"x_max":1049,"o":"m 451 56 q 155 178 261 67 q 49 486 49 290 q 155 794 49 682 q 451 917 261 906 l 451 1014 l 646 1014 l 646 917 q 942 794 836 906 q 1049 486 1049 682 q 942 178 1049 290 q 646 56 836 67 l 646 -42 l 451 -42 l 451 56 m 451 792 q 297 707 351 779 q 243 486 243 635 q 297 265 243 338 q 451 181 351 193 l 451 792 m 646 181 q 800 265 746 193 q 854 486 854 338 q 800 707 854 635 q 646 792 746 779 l 646 181 z "},"Х":{"ha":778,"x_min":14,"x_max":764,"o":"m 257 493 l 21 972 l 229 972 l 368 674 l 382 632 l 386 611 l 392 611 l 396 632 q 401 651 397 638 q 410 674 406 664 l 549 972 l 757 972 l 521 493 l 764 0 l 556 0 l 410 313 q 401 335 406 322 q 396 354 397 349 l 392 375 l 386 375 l 382 354 l 368 313 l 222 0 l 14 0 l 257 493 z "},"Ч":{"ha":875,"x_min":76,"x_max":757,"o":"m 563 354 l 515 343 q 396 333 464 333 q 159 409 242 333 q 76 618 76 485 l 76 972 l 271 972 l 271 618 q 431 458 271 458 q 525 468 483 458 q 563 479 564 481 l 563 972 l 757 972 l 757 0 l 563 0 l 563 354 z "},"Ц":{"ha":931,"x_min":118,"x_max":875,"o":"m 729 -208 l 701 0 l 118 0 l 118 972 l 313 972 l 313 125 l 590 125 l 590 972 l 785 972 l 785 125 l 875 125 l 875 -208 l 729 -208 z "},"Ш":{"ha":1319,"x_min":118,"x_max":1201,"o":"m 118 0 l 118 972 l 313 972 l 313 125 l 563 125 l 563 972 l 757 972 l 757 125 l 1007 125 l 1007 972 l 1201 972 l 1201 0 l 118 0 z "},"Щ":{"ha":1347,"x_min":118,"x_max":1292,"o":"m 1146 -208 l 1118 0 l 118 0 l 118 972 l 313 972 l 313 125 l 563 125 l 563 972 l 757 972 l 757 125 l 1007 125 l 1007 972 l 1201 972 l 1201 125 l 1292 125 l 1292 -208 l 1146 -208 z "},"Џ":{"ha":917,"x_min":118,"x_max":799,"o":"m 389 -208 l 368 0 l 118 0 l 118 972 l 313 972 l 313 125 l 604 125 l 604 972 l 799 972 l 799 0 l 549 0 l 528 -208 l 389 -208 z "},"Ь":{"ha":826,"x_min":118,"x_max":778,"o":"m 118 972 l 313 972 l 313 625 l 403 625 q 687 546 596 625 q 778 313 778 467 q 687 79 778 158 q 403 0 596 0 l 118 0 l 118 972 m 403 125 q 541 169 499 125 q 583 313 583 213 q 541 456 583 413 q 403 500 499 500 l 313 500 l 313 125 l 403 125 z "},"Ъ":{"ha":903,"x_min":14,"x_max":854,"o":"m 194 847 l 14 847 l 14 972 l 389 972 l 389 625 l 479 625 q 763 546 672 625 q 854 313 854 467 q 779 93 854 171 q 544 3 704 15 q 499 0 514 0 l 194 0 l 194 847 m 479 125 q 617 169 575 125 q 660 313 660 213 q 617 456 660 413 q 479 500 575 500 l 389 500 l 389 125 l 479 125 z "},"Ы":{"ha":1188,"x_min":118,"x_max":1069,"o":"m 118 972 l 313 972 l 313 625 l 389 625 q 673 546 582 625 q 764 313 764 467 q 673 79 764 158 q 389 0 582 0 l 118 0 l 118 972 m 875 0 l 875 972 l 1069 972 l 1069 0 l 875 0 m 389 125 q 527 169 485 125 q 569 313 569 213 q 527 456 569 413 q 389 500 485 500 l 313 500 l 313 125 l 389 125 z "},"Љ":{"ha":1264,"x_min":7,"x_max":1236,"o":"m 104 -14 q 38 -4 69 -14 l 7 7 l 21 118 l 35 118 l 47 114 l 69 111 q 132 222 126 111 l 174 972 l 764 972 l 764 625 l 861 625 q 1145 546 1054 625 q 1236 313 1236 467 q 1145 79 1236 158 q 861 0 1054 0 l 569 0 l 569 847 l 361 847 l 326 222 q 264 46 319 106 q 104 -14 208 -14 m 861 125 q 999 169 957 125 q 1042 313 1042 213 q 999 456 1042 413 q 861 500 957 500 l 764 500 l 764 125 l 861 125 z "},"Њ":{"ha":1278,"x_min":118,"x_max":1250,"o":"m 118 972 l 313 972 l 313 597 l 583 597 l 583 972 l 778 972 l 778 597 l 875 597 q 1250 299 1250 597 q 875 0 1250 0 l 583 0 l 583 472 l 313 472 l 313 0 l 118 0 l 118 972 m 875 125 q 1013 167 969 125 q 1056 299 1056 210 q 1013 430 1056 388 q 875 472 969 472 l 778 472 l 778 125 l 875 125 z "},"Ѕ":{"ha":743,"x_min":49,"x_max":694,"o":"m 347 -14 q 122 24 213 -14 q 49 63 75 42 l 111 174 l 125 174 q 175 142 143 158 q 333 111 242 111 q 458 149 415 111 q 500 250 500 186 q 476 320 500 290 q 417 372 453 350 q 318 422 381 393 q 182 495 235 461 q 92 585 129 529 q 56 722 56 640 q 94 856 56 796 q 207 951 133 917 q 382 986 281 986 q 594 947 504 986 q 667 910 635 932 l 604 799 l 590 799 q 543 829 575 811 q 396 861 476 861 q 292 823 335 861 q 250 736 250 785 q 274 666 250 696 q 333 615 297 636 q 432 564 369 593 q 568 491 515 525 q 658 401 621 457 q 694 264 694 346 q 655 120 694 183 q 537 22 615 57 q 347 -14 458 -14 z "},"Є":{"ha":743,"x_min":69,"x_max":715,"o":"m 458 -14 q 169 107 269 -14 q 69 486 69 228 q 167 865 69 743 q 444 986 265 986 q 633 947 550 986 q 701 910 671 932 l 639 799 l 625 799 q 581 829 610 813 q 458 861 519 861 q 324 792 374 861 q 264 556 275 724 l 576 556 l 576 431 l 264 431 q 326 182 275 253 q 472 111 378 111 q 594 142 536 111 q 639 174 625 160 l 653 174 l 715 63 q 647 24 688 40 q 458 -14 567 -14 z "},"Э":{"ha":743,"x_min":28,"x_max":674,"o":"m 285 -14 q 96 24 176 -14 q 28 63 56 40 l 90 174 l 104 174 q 149 142 118 160 q 271 111 207 111 q 417 182 365 111 q 479 431 468 253 l 167 431 l 167 556 l 479 556 q 419 792 468 724 q 285 861 369 861 q 163 829 224 861 q 118 799 133 813 l 104 799 l 42 910 q 110 947 72 932 q 299 986 193 986 q 576 865 478 986 q 674 486 674 743 q 574 107 674 228 q 285 -14 474 -14 z "},"І":{"ha":431,"x_min":118,"x_max":313,"o":"m 118 0 l 118 972 l 313 972 l 313 0 l 118 0 z "},"Ї":{"ha":431,"x_min":-18,"x_max":447,"o":"m 118 0 l 118 972 l 313 972 l 313 0 l 118 0 m 79 1069 q 11 1099 40 1069 q -18 1167 -18 1128 q 11 1235 -18 1206 q 79 1264 40 1264 q 147 1235 118 1264 q 176 1167 176 1206 q 147 1099 176 1128 q 79 1069 118 1069 m 350 1069 q 282 1099 311 1069 q 253 1167 253 1128 q 282 1235 253 1206 q 350 1264 311 1264 q 418 1235 389 1264 q 447 1167 447 1206 q 418 1099 447 1128 q 350 1069 389 1069 z "},"Ј":{"ha":625,"x_min":0,"x_max":521,"o":"m 208 -14 q 63 17 138 -14 q 0 49 22 33 l 56 167 l 69 167 q 108 139 94 147 q 194 111 151 111 q 326 264 326 111 l 326 972 l 521 972 l 521 264 q 439 61 521 136 q 208 -14 357 -14 z "},"Ћ":{"ha":931,"x_min":0,"x_max":861,"o":"m 181 847 l 0 847 l 0 972 l 611 972 l 611 847 l 375 847 l 375 618 q 422 628 406 624 q 542 639 481 639 q 778 563 696 639 q 861 354 861 488 l 861 0 l 667 0 l 667 354 q 507 514 667 514 q 413 503 460 514 l 375 493 l 375 0 l 181 0 l 181 847 z "},"Ю":{"ha":1194,"x_min":118,"x_max":1125,"o":"m 771 -14 q 522 97 615 -14 q 417 431 428 208 l 313 431 l 313 0 l 118 0 l 118 972 l 313 972 l 313 556 l 417 556 q 522 878 428 769 q 771 986 615 986 q 1030 863 935 986 q 1125 486 1125 740 q 1030 109 1125 232 q 771 -14 935 -14 m 771 111 q 885 198 839 111 q 931 486 931 285 q 885 774 931 688 q 771 861 839 861 q 657 774 703 861 q 611 486 611 688 q 657 198 611 285 q 771 111 703 111 z "},"Я":{"ha":847,"x_min":35,"x_max":729,"o":"m 160 -14 q 65 -4 101 -14 q 35 7 40 4 l 49 118 l 56 118 l 64 114 q 82 111 75 111 q 114 122 103 111 q 132 160 125 133 l 167 278 q 242 385 186 343 q 292 410 265 401 q 186 450 229 421 q 112 532 142 479 q 82 665 82 585 q 457 972 82 972 l 729 972 l 729 0 l 535 0 l 535 361 l 472 361 q 404 340 428 361 q 368 271 381 319 l 328 125 q 266 26 311 65 q 160 -14 221 -14 m 535 486 l 535 847 l 457 847 q 319 804 363 847 q 276 667 276 761 q 319 529 276 572 q 457 486 363 486 l 535 486 z "},"Ђ":{"ha":931,"x_min":0,"x_max":861,"o":"m 604 -42 q 519 -28 561 -42 q 486 -14 497 -21 l 507 97 l 521 97 q 540 90 531 92 q 590 83 564 83 q 646 111 625 83 q 667 194 667 139 l 667 354 q 507 514 667 514 q 413 503 460 514 l 375 493 l 375 0 l 181 0 l 181 847 l 0 847 l 0 972 l 611 972 l 611 847 l 375 847 l 375 618 q 422 628 406 624 q 542 639 481 639 q 778 563 696 639 q 861 354 861 488 l 861 194 q 792 24 861 89 q 604 -42 724 -42 z "},"Ѣ":{"ha":915,"x_min":21,"x_max":867,"o":"m 492 625 q 776 546 685 625 q 867 313 867 467 q 776 79 867 158 q 492 0 685 0 l 207 0 l 207 736 l 21 736 l 21 861 l 207 861 l 207 1014 l 401 1014 l 401 861 l 646 861 l 646 736 l 401 736 l 401 625 l 492 625 m 492 125 q 630 169 588 125 q 672 313 672 213 q 630 456 672 413 q 492 500 588 500 l 401 500 l 401 125 l 492 125 z "},"Ѫ":{"ha":1250,"x_min":35,"x_max":1215,"o":"m 153 -14 q 65 -4 101 -14 l 35 7 l 49 118 l 56 118 l 64 114 q 82 111 75 111 q 132 160 121 111 l 174 354 q 256 472 192 433 q 442 518 319 510 l 165 972 l 1071 972 l 794 519 q 985 476 915 513 q 1076 354 1056 440 l 1118 160 q 1168 111 1129 111 q 1194 118 1183 111 l 1201 118 l 1215 7 q 1158 -10 1185 -6 q 1097 -14 1132 -14 q 982 25 1026 -14 q 924 125 938 64 l 875 347 q 840 417 864 396 q 771 438 817 438 l 722 438 l 722 0 l 528 0 l 528 438 l 479 438 q 410 417 433 438 q 375 347 386 396 l 326 125 q 268 25 313 64 q 153 -14 224 -14 m 621 507 l 626 507 l 832 847 l 411 847 l 621 507 z "},"Ѳ":{"ha":875,"x_min":69,"x_max":806,"o":"m 438 986 q 708 865 611 986 q 806 486 806 743 q 708 108 806 229 q 438 -14 611 -14 q 167 108 264 -14 q 69 486 69 229 q 167 865 69 743 q 438 986 264 986 m 438 861 q 320 790 367 861 q 265 549 274 718 l 610 549 q 555 790 601 718 q 438 861 508 861 m 438 111 q 555 183 508 111 q 610 424 601 254 l 265 424 q 320 183 274 254 q 438 111 367 111 z "},"Ѵ":{"ha":822,"x_min":21,"x_max":843,"o":"m 21 972 l 215 972 l 389 333 q 397 295 394 313 q 401 265 399 278 l 407 229 l 413 229 l 417 264 q 422 297 418 275 q 431 333 426 318 l 524 750 q 599 929 550 872 q 746 986 647 986 q 792 982 772 986 q 843 965 811 978 l 829 854 l 822 854 q 793 863 807 863 q 742 833 765 863 q 704 750 718 804 l 507 0 l 299 0 l 21 972 z "},"Ғ":{"ha":715,"x_min":26,"x_max":701,"o":"m 701 847 l 313 847 l 313 549 l 471 549 l 471 424 l 313 424 l 313 0 l 118 0 l 118 424 l 26 424 l 26 549 l 118 549 l 118 972 l 701 972 l 701 847 z "},"Ҕ":{"ha":847,"x_min":118,"x_max":799,"o":"m 479 569 q 716 494 633 569 q 799 285 799 418 l 799 97 q 730 -74 799 -8 q 542 -139 661 -139 q 424 -111 469 -139 l 444 0 l 458 0 q 528 -14 486 -14 q 583 14 563 -14 q 604 97 604 42 l 604 285 q 444 444 604 444 q 350 433 397 444 l 313 424 l 313 0 l 118 0 l 118 972 l 701 972 l 701 847 l 313 847 l 313 549 l 360 558 q 479 569 418 569 z "},"Җ":{"ha":1250,"x_min":35,"x_max":1215,"o":"m 1215 7 l 1215 -208 l 1069 -208 l 1043 -7 q 965 41 994 6 q 924 125 935 76 l 875 347 q 840 417 864 396 q 771 438 817 438 l 722 438 l 722 0 l 528 0 l 528 438 l 479 438 q 410 417 433 438 q 375 347 386 396 l 326 125 q 268 25 313 64 q 153 -14 224 -14 q 65 -4 101 -14 l 35 7 l 49 118 l 56 118 l 64 114 q 82 111 75 111 q 132 160 121 111 l 174 354 q 264 481 193 439 q 333 507 299 501 q 271 532 300 514 q 188 653 207 572 l 153 813 q 104 861 142 861 q 85 857 101 861 q 76 854 76 854 l 69 854 l 56 965 l 89 975 q 174 986 131 986 q 289 947 244 986 q 347 847 333 908 l 389 660 q 424 584 400 606 q 500 563 447 563 l 528 563 l 528 972 l 722 972 l 722 563 l 750 563 q 826 584 803 563 q 861 660 850 606 l 903 847 q 961 947 917 908 q 1076 986 1006 986 q 1161 975 1119 986 l 1194 965 l 1181 854 l 1174 854 q 1165 857 1174 854 q 1146 861 1149 861 q 1097 813 1108 861 l 1063 653 q 979 532 1043 572 q 917 507 950 514 q 986 481 951 501 q 1076 354 1057 439 l 1118 160 q 1168 111 1129 111 q 1194 118 1183 111 l 1201 118 l 1215 7 z "},"Ҙ":{"ha":743,"x_min":21,"x_max":681,"o":"m 681 264 q 622 92 681 161 q 444 -1 564 22 l 444 -208 l 299 -208 l 272 -12 q 93 24 171 -8 q 21 63 51 40 l 83 174 l 97 174 q 144 142 111 160 q 292 111 208 111 q 440 152 394 111 q 486 278 486 193 q 442 403 486 363 q 306 444 399 444 l 174 444 l 174 569 l 306 569 q 424 608 383 569 q 465 715 465 646 q 299 861 465 861 q 164 829 231 861 q 118 799 135 814 l 104 799 l 42 910 q 113 947 74 931 q 313 986 199 986 q 572 915 483 986 q 660 729 660 844 q 565 551 660 614 q 472 514 524 524 q 576 472 531 504 q 681 264 681 401 z "},"Қ":{"ha":854,"x_min":118,"x_max":819,"o":"m 819 7 l 819 -208 l 674 -208 l 647 -7 q 569 41 599 6 q 528 125 539 76 l 479 347 q 444 417 468 396 q 375 438 421 438 l 313 438 l 313 0 l 118 0 l 118 972 l 313 972 l 313 563 l 354 563 q 431 584 407 563 q 465 660 454 606 l 507 847 q 565 947 521 908 q 681 986 610 986 q 765 975 724 986 l 799 965 l 785 854 l 778 854 q 769 857 778 854 q 750 861 753 861 q 701 813 713 861 l 667 653 q 583 532 647 572 q 521 507 554 514 q 590 481 556 501 q 681 354 661 439 l 722 160 q 772 111 733 111 l 790 114 l 799 118 l 806 118 l 819 7 z "},"Ҝ":{"ha":896,"x_min":118,"x_max":861,"o":"m 861 7 l 831 -4 q 743 -14 794 -14 q 628 25 672 -14 q 569 125 583 64 l 521 347 q 495 404 513 385 q 440 432 478 424 l 440 278 l 360 278 l 360 438 l 313 438 l 313 0 l 118 0 l 118 972 l 313 972 l 313 563 l 354 563 l 360 563 l 360 694 l 440 694 l 440 572 q 484 601 469 581 q 507 660 499 622 l 549 847 q 607 947 563 908 q 722 986 651 986 q 807 975 765 986 l 840 965 l 826 854 l 819 854 q 811 857 819 854 q 792 861 794 861 q 743 813 754 861 l 708 653 q 625 532 692 574 q 563 507 596 514 q 632 481 597 501 q 722 354 703 439 l 764 160 q 814 111 775 111 l 832 114 l 840 118 l 847 118 l 861 7 z "},"Ҡ":{"ha":1042,"x_min":14,"x_max":1007,"o":"m 1007 7 l 976 -4 q 889 -14 940 -14 q 774 25 818 -14 q 715 125 729 64 l 667 347 q 632 417 656 396 q 563 438 608 438 l 500 438 l 500 0 l 306 0 l 306 847 l 14 847 l 14 972 l 500 972 l 500 563 l 542 563 q 618 584 594 563 q 653 660 642 606 l 694 847 q 753 947 708 908 q 868 986 797 986 q 953 975 911 986 l 986 965 l 972 854 l 965 854 q 957 857 965 854 q 938 861 940 861 q 889 813 900 861 l 854 653 q 771 532 835 572 q 708 507 742 514 q 778 481 743 501 q 868 354 849 439 l 910 160 q 960 111 921 111 l 978 114 l 986 118 l 993 118 l 1007 7 z "},"Ң":{"ha":917,"x_min":118,"x_max":889,"o":"m 799 125 l 889 125 l 889 -208 l 743 -208 l 715 0 l 604 0 l 604 431 l 313 431 l 313 0 l 118 0 l 118 972 l 313 972 l 313 556 l 604 556 l 604 972 l 799 972 l 799 125 z "},"Ԥ":{"ha":917,"x_min":118,"x_max":889,"o":"m 799 125 l 889 125 l 889 -208 l 743 -208 l 715 0 l 604 0 l 604 847 l 313 847 l 313 0 l 118 0 l 118 972 l 799 972 l 799 125 z "},"Ҫ":{"ha":743,"x_min":69,"x_max":715,"o":"m 715 63 q 647 24 688 40 q 525 -10 596 -1 l 525 -208 l 379 -208 l 351 -3 q 69 486 69 58 q 167 865 69 743 q 444 986 265 986 q 633 947 550 986 q 701 910 671 932 l 639 799 l 625 799 q 581 829 610 813 q 458 861 519 861 q 315 776 367 861 q 264 486 264 692 q 317 195 264 279 q 472 111 371 111 q 594 142 536 111 q 639 174 625 160 l 653 174 l 715 63 z "},"Ү":{"ha":792,"x_min":0,"x_max":792,"o":"m 299 319 l 0 972 l 201 972 l 383 535 l 397 493 l 401 472 l 407 472 l 411 493 l 425 535 l 601 972 l 792 972 l 493 319 l 493 0 l 299 0 l 299 319 z "},"Ұ":{"ha":792,"x_min":0,"x_max":792,"o":"m 508 354 l 621 354 l 621 229 l 493 229 l 493 0 l 299 0 l 299 229 l 176 229 l 176 354 l 283 354 l 0 972 l 201 972 l 383 535 l 397 493 l 401 472 l 407 472 l 411 493 l 425 535 l 601 972 l 792 972 l 508 354 z "},"Ҷ":{"ha":875,"x_min":76,"x_max":847,"o":"m 847 125 l 847 -208 l 701 -208 l 674 0 l 563 0 l 563 354 l 515 343 q 396 333 464 333 q 159 409 242 333 q 76 618 76 485 l 76 972 l 271 972 l 271 618 q 431 458 271 458 q 525 468 483 458 q 563 479 564 481 l 563 972 l 757 972 l 757 125 l 847 125 z "},"Ҹ":{"ha":875,"x_min":76,"x_max":757,"o":"m 757 972 l 757 0 l 563 0 l 563 354 l 515 343 q 464 336 490 338 l 464 194 l 383 194 l 383 333 q 156 413 235 336 q 76 618 76 489 l 76 972 l 271 972 l 271 618 q 383 463 271 483 l 383 611 l 464 611 l 464 460 q 525 468 500 463 q 563 479 564 481 l 563 972 l 757 972 z "},"Һ":{"ha":875,"x_min":118,"x_max":799,"o":"m 313 618 l 360 629 q 479 639 411 639 q 716 563 633 639 q 799 354 799 488 l 799 0 l 604 0 l 604 354 q 444 514 604 514 q 350 504 392 514 q 313 493 311 492 l 313 0 l 118 0 l 118 972 l 313 972 l 313 618 z "},"Ӏ":{"ha":431,"x_min":118,"x_max":313,"o":"m 118 0 l 118 972 l 313 972 l 313 0 l 118 0 z "},"Ӂ":{"ha":1250,"x_min":35,"x_max":1215,"o":"m 153 -14 q 65 -4 101 -14 l 35 7 l 49 118 l 56 118 l 64 114 q 82 111 75 111 q 132 160 121 111 l 174 354 q 264 481 193 439 q 333 507 299 501 q 271 532 300 514 q 188 653 207 572 l 153 813 q 104 861 142 861 q 85 857 101 861 q 76 854 76 854 l 69 854 l 56 965 l 89 975 q 174 986 131 986 q 289 947 244 986 q 347 847 333 908 l 389 660 q 424 584 400 606 q 500 563 447 563 l 528 563 l 528 972 l 722 972 l 722 563 l 750 563 q 826 584 803 563 q 861 660 850 606 l 903 847 q 961 947 917 908 q 1076 986 1006 986 q 1161 975 1119 986 l 1194 965 l 1181 854 l 1174 854 q 1165 857 1174 854 q 1146 861 1149 861 q 1097 813 1108 861 l 1063 653 q 979 532 1043 572 q 917 507 950 514 q 986 481 951 501 q 1076 354 1057 439 l 1118 160 q 1168 111 1129 111 q 1194 118 1183 111 l 1201 118 l 1215 7 q 1158 -10 1185 -6 q 1097 -14 1132 -14 q 982 25 1026 -14 q 924 125 938 64 l 875 347 q 840 417 864 396 q 771 438 817 438 l 722 438 l 722 0 l 528 0 l 528 438 l 479 438 q 410 417 433 438 q 375 347 386 396 l 326 125 q 268 25 313 64 q 153 -14 224 -14 m 625 1042 q 457 1091 511 1042 q 403 1236 403 1140 l 556 1236 q 625 1139 556 1139 q 694 1236 694 1139 l 847 1236 q 793 1091 847 1140 q 625 1042 739 1042 z "},"Ӌ":{"ha":875,"x_min":76,"x_max":757,"o":"m 757 972 l 757 0 l 646 0 l 618 -208 l 472 -208 l 472 125 l 563 125 l 563 354 l 515 343 q 396 333 464 333 q 159 409 242 333 q 76 618 76 485 l 76 972 l 271 972 l 271 618 q 431 458 271 458 q 525 468 483 458 q 563 479 564 481 l 563 972 l 757 972 z "},"Ӑ":{"ha":833,"x_min":21,"x_max":813,"o":"m 21 0 l 306 972 l 528 972 l 813 0 l 618 0 l 556 222 l 278 222 l 215 0 l 21 0 m 521 347 l 438 639 q 429 676 433 654 q 424 707 425 697 l 419 743 l 414 743 l 408 707 q 402 673 406 694 q 396 639 399 651 l 313 347 l 521 347 m 417 1042 q 249 1091 303 1042 q 194 1236 194 1140 l 347 1236 q 417 1139 347 1139 q 486 1236 486 1139 l 639 1236 q 585 1091 639 1140 q 417 1042 531 1042 z "},"Ӓ":{"ha":833,"x_min":21,"x_max":813,"o":"m 21 0 l 306 972 l 528 972 l 813 0 l 618 0 l 556 222 l 278 222 l 215 0 l 21 0 m 521 347 l 438 639 q 429 676 433 654 q 424 707 425 697 l 419 743 l 414 743 l 408 707 q 402 673 406 694 q 396 639 399 651 l 313 347 l 521 347 m 281 1069 q 213 1099 242 1069 q 183 1167 183 1128 q 213 1235 183 1206 q 281 1264 242 1264 q 349 1235 319 1264 q 378 1167 378 1206 q 349 1099 378 1128 q 281 1069 319 1069 m 551 1069 q 483 1099 513 1069 q 454 1167 454 1128 q 483 1235 454 1206 q 551 1264 513 1264 q 619 1235 590 1264 q 649 1167 649 1206 q 619 1099 649 1128 q 551 1069 590 1069 z "},"Ӗ":{"ha":736,"x_min":118,"x_max":701,"o":"m 118 0 l 118 972 l 701 972 l 701 847 l 313 847 l 313 569 l 618 569 l 618 444 l 313 444 l 313 125 l 701 125 l 701 0 l 118 0 m 435 1042 q 267 1091 321 1042 q 213 1236 213 1140 l 365 1236 q 435 1139 365 1139 q 504 1236 504 1139 l 657 1236 q 603 1091 657 1140 q 435 1042 549 1042 z "},"Ә":{"ha":846,"x_min":69,"x_max":776,"o":"m 401 986 q 681 860 585 986 q 776 486 776 733 q 682 111 776 238 q 418 -15 588 -15 q 163 108 256 -15 q 69 467 69 231 l 69 497 l 128 556 l 601 556 q 547 784 601 707 q 382 861 492 861 q 260 839 321 861 q 164 783 199 817 l 144 783 l 93 867 q 239 958 165 929 q 401 986 313 986 m 418 111 q 601 431 601 111 l 235 431 q 418 111 235 111 z "},"Ӝ":{"ha":1250,"x_min":35,"x_max":1215,"o":"m 153 -14 q 65 -4 101 -14 l 35 7 l 49 118 l 56 118 l 64 114 q 82 111 75 111 q 132 160 121 111 l 174 354 q 264 481 193 439 q 333 507 299 501 q 271 532 300 514 q 188 653 207 572 l 153 813 q 104 861 142 861 q 85 857 101 861 q 76 854 76 854 l 69 854 l 56 965 l 89 975 q 174 986 131 986 q 289 947 244 986 q 347 847 333 908 l 389 660 q 424 584 400 606 q 500 563 447 563 l 528 563 l 528 972 l 722 972 l 722 563 l 750 563 q 826 584 803 563 q 861 660 850 606 l 903 847 q 961 947 917 908 q 1076 986 1006 986 q 1161 975 1119 986 l 1194 965 l 1181 854 l 1174 854 q 1165 857 1174 854 q 1146 861 1149 861 q 1097 813 1108 861 l 1063 653 q 979 532 1043 572 q 917 507 950 514 q 986 481 951 501 q 1076 354 1057 439 l 1118 160 q 1168 111 1129 111 q 1194 118 1183 111 l 1201 118 l 1215 7 q 1158 -10 1185 -6 q 1097 -14 1132 -14 q 982 25 1026 -14 q 924 125 938 64 l 875 347 q 840 417 864 396 q 771 438 817 438 l 722 438 l 722 0 l 528 0 l 528 438 l 479 438 q 410 417 433 438 q 375 347 386 396 l 326 125 q 268 25 313 64 q 153 -14 224 -14 m 489 1069 q 421 1099 450 1069 q 392 1167 392 1128 q 421 1235 392 1206 q 489 1264 450 1264 q 557 1235 528 1264 q 586 1167 586 1206 q 557 1099 586 1128 q 489 1069 528 1069 m 760 1069 q 692 1099 721 1069 q 663 1167 663 1128 q 692 1235 663 1206 q 760 1264 721 1264 q 828 1235 799 1264 q 857 1167 857 1206 q 828 1099 857 1128 q 760 1069 799 1069 z "},"Ӟ":{"ha":743,"x_min":21,"x_max":681,"o":"m 306 -14 q 93 24 181 -14 q 21 63 51 40 l 83 174 l 97 174 q 144 142 111 160 q 292 111 208 111 q 440 152 394 111 q 486 278 486 193 q 442 403 486 363 q 306 444 399 444 l 174 444 l 174 569 l 306 569 q 424 608 383 569 q 465 715 465 646 q 299 861 465 861 q 164 829 231 861 q 118 799 135 814 l 104 799 l 42 910 q 113 947 74 931 q 313 986 199 986 q 572 915 483 986 q 660 729 660 844 q 565 551 660 614 q 472 514 524 524 q 576 472 531 504 q 681 264 681 401 q 588 60 681 133 q 306 -14 496 -14 m 167 1069 q 99 1099 128 1069 q 69 1167 69 1128 q 99 1235 69 1206 q 167 1264 128 1264 q 235 1235 206 1264 q 264 1167 264 1206 q 235 1099 264 1128 q 167 1069 206 1069 m 438 1069 q 369 1099 399 1069 q 340 1167 340 1128 q 369 1235 340 1206 q 438 1264 399 1264 q 506 1235 476 1264 q 535 1167 535 1206 q 506 1099 535 1128 q 438 1069 476 1069 z "},"Ӣ":{"ha":917,"x_min":118,"x_max":799,"o":"m 118 972 l 313 972 l 313 424 q 308 363 313 417 l 306 332 l 311 332 q 321 363 318 356 q 347 424 338 404 l 611 972 l 799 972 l 799 0 l 604 0 l 604 549 q 607 610 604 574 l 611 640 l 606 640 q 596 610 599 617 q 569 549 586 583 l 306 0 l 118 0 l 118 972 m 257 1069 l 257 1194 l 660 1194 l 660 1069 l 257 1069 z "},"Ӥ":{"ha":917,"x_min":118,"x_max":799,"o":"m 118 972 l 313 972 l 313 424 q 308 363 313 417 l 306 332 l 311 332 q 321 363 318 356 q 347 424 338 404 l 611 972 l 799 972 l 799 0 l 604 0 l 604 549 q 607 610 604 574 l 611 640 l 606 640 q 596 610 599 617 q 569 549 586 583 l 306 0 l 118 0 l 118 972 m 322 1069 q 254 1099 283 1069 q 225 1167 225 1128 q 254 1235 225 1206 q 322 1264 283 1264 q 390 1235 361 1264 q 419 1167 419 1206 q 390 1099 419 1128 q 322 1069 361 1069 m 593 1069 q 525 1099 554 1069 q 496 1167 496 1128 q 525 1235 496 1206 q 593 1264 554 1264 q 661 1235 632 1264 q 690 1167 690 1206 q 661 1099 690 1128 q 593 1069 632 1069 z "},"Ӧ":{"ha":875,"x_min":69,"x_max":806,"o":"m 438 -14 q 167 108 264 -14 q 69 486 69 229 q 167 865 69 743 q 438 986 264 986 q 708 865 611 986 q 806 486 806 743 q 708 108 806 229 q 438 -14 611 -14 m 438 111 q 563 197 514 111 q 611 486 611 283 q 563 775 611 689 q 438 861 514 861 q 313 775 361 861 q 264 486 264 689 q 313 197 264 283 q 438 111 361 111 m 301 1069 q 233 1099 263 1069 q 204 1167 204 1128 q 233 1235 204 1206 q 301 1264 263 1264 q 369 1235 340 1264 q 399 1167 399 1206 q 369 1099 399 1128 q 301 1069 340 1069 m 572 1069 q 504 1099 533 1069 q 475 1167 475 1128 q 504 1235 475 1206 q 572 1264 533 1264 q 640 1235 611 1264 q 669 1167 669 1206 q 640 1099 669 1128 q 572 1069 611 1069 z "},"Ө":{"ha":875,"x_min":69,"x_max":806,"o":"m 438 986 q 708 865 611 986 q 806 486 806 743 q 708 108 806 229 q 438 -14 611 -14 q 167 108 264 -14 q 69 486 69 229 q 167 865 69 743 q 438 986 264 986 m 438 861 q 320 790 367 861 q 265 549 274 718 l 610 549 q 555 790 601 718 q 438 861 508 861 m 438 111 q 555 183 508 111 q 610 424 601 254 l 265 424 q 320 183 274 254 q 438 111 367 111 z "},"Ӯ":{"ha":799,"x_min":14,"x_max":785,"o":"m 264 -21 q 150 0 204 -21 q 104 21 125 8 l 153 139 l 167 139 q 190 121 181 125 q 250 104 217 104 q 310 127 285 104 q 347 188 335 150 l 368 257 l 311 257 l 14 972 l 215 972 l 396 507 q 415 436 407 475 q 421 403 418 425 l 426 403 q 429 436 426 414 q 434 467 431 446 q 444 507 438 488 l 583 972 l 785 972 l 535 188 q 436 36 504 93 q 264 -21 368 -21 m 199 1069 l 199 1194 l 601 1194 l 601 1069 l 199 1069 z "},"Ӱ":{"ha":799,"x_min":14,"x_max":785,"o":"m 264 -21 q 150 0 204 -21 q 104 21 125 8 l 153 139 l 167 139 q 190 121 181 125 q 250 104 217 104 q 310 127 285 104 q 347 188 335 150 l 368 257 l 311 257 l 14 972 l 215 972 l 396 507 q 415 436 407 475 q 421 403 418 425 l 426 403 q 429 436 426 414 q 434 467 431 446 q 444 507 438 488 l 583 972 l 785 972 l 535 188 q 436 36 504 93 q 264 -21 368 -21 m 264 1069 q 196 1099 225 1069 q 167 1167 167 1128 q 196 1235 167 1206 q 264 1264 225 1264 q 332 1235 303 1264 q 361 1167 361 1206 q 332 1099 361 1128 q 264 1069 303 1069 m 535 1069 q 467 1099 496 1069 q 438 1167 438 1128 q 467 1235 438 1206 q 535 1264 496 1264 q 603 1235 574 1264 q 632 1167 632 1206 q 603 1099 632 1128 q 535 1069 574 1069 z "},"Ӳ":{"ha":799,"x_min":14,"x_max":785,"o":"m 264 -21 q 150 0 204 -21 q 104 21 125 8 l 153 139 l 167 139 q 190 121 181 125 q 250 104 217 104 q 310 127 285 104 q 347 188 335 150 l 368 257 l 311 257 l 14 972 l 215 972 l 396 507 q 415 436 407 475 q 421 403 418 425 l 426 403 q 429 436 426 414 q 434 467 431 446 q 444 507 438 488 l 583 972 l 785 972 l 535 188 q 436 36 504 93 q 264 -21 368 -21 m 240 1042 l 303 1250 l 456 1250 l 331 1042 l 240 1042 m 456 1042 l 518 1250 l 671 1250 l 546 1042 l 456 1042 z "},"Ӵ":{"ha":875,"x_min":76,"x_max":757,"o":"m 563 354 l 515 343 q 396 333 464 333 q 159 409 242 333 q 76 618 76 485 l 76 972 l 271 972 l 271 618 q 431 458 271 458 q 525 468 483 458 q 563 479 564 481 l 563 972 l 757 972 l 757 0 l 563 0 l 563 354 m 274 1069 q 206 1099 235 1069 q 176 1167 176 1128 q 206 1235 176 1206 q 274 1264 235 1264 q 342 1235 313 1264 q 371 1167 371 1206 q 342 1099 371 1128 q 274 1069 313 1069 m 544 1069 q 476 1099 506 1069 q 447 1167 447 1128 q 476 1235 447 1206 q 544 1264 506 1264 q 613 1235 583 1264 q 642 1167 642 1206 q 613 1099 642 1128 q 544 1069 583 1069 z "},"Ӷ":{"ha":715,"x_min":118,"x_max":701,"o":"m 701 847 l 313 847 l 313 125 l 403 125 l 403 -208 l 257 -208 l 229 0 l 118 0 l 118 972 l 701 972 l 701 847 z "},"Ӹ":{"ha":1188,"x_min":118,"x_max":1069,"o":"m 118 972 l 313 972 l 313 625 l 389 625 q 673 546 582 625 q 764 313 764 467 q 673 79 764 158 q 389 0 582 0 l 118 0 l 118 972 m 875 0 l 875 972 l 1069 972 l 1069 0 l 875 0 m 389 125 q 527 169 485 125 q 569 313 569 213 q 527 456 569 413 q 389 500 485 500 l 313 500 l 313 125 l 389 125 m 458 1069 q 390 1099 419 1069 q 361 1167 361 1128 q 390 1235 361 1206 q 458 1264 419 1264 q 526 1235 497 1264 q 556 1167 556 1206 q 526 1099 556 1128 q 458 1069 497 1069 m 729 1069 q 661 1099 690 1069 q 632 1167 632 1128 q 661 1235 632 1206 q 729 1264 690 1264 q 797 1235 768 1264 q 826 1167 826 1206 q 797 1099 826 1128 q 729 1069 768 1069 z "},"Ԛ":{"ha":875,"x_min":69,"x_max":806,"o":"m 590 -229 q 460 -199 517 -229 q 372 -117 403 -169 q 340 0 340 -65 q 69 486 69 65 q 167 865 69 743 q 438 986 264 986 q 708 865 611 986 q 806 486 806 743 q 535 0 806 65 q 556 -77 535 -50 q 604 -104 576 -104 q 640 -97 629 -104 q 651 -90 642 -97 l 665 -90 l 701 -201 q 672 -215 692 -208 q 590 -229 631 -229 m 438 111 q 563 197 514 111 q 611 486 611 283 q 563 775 611 689 q 438 861 514 861 q 313 775 361 861 q 264 486 264 689 q 313 197 264 283 q 438 111 361 111 z "},"Ԝ":{"ha":1231,"x_min":38,"x_max":1185,"o":"m 38 972 l 232 972 l 371 361 q 379 307 376 335 l 382 278 l 388 278 l 390 307 q 399 361 393 335 l 553 972 l 689 972 l 843 361 q 851 307 850 333 l 854 278 l 860 278 l 863 307 q 871 361 864 333 l 1010 972 l 1185 972 l 949 0 l 774 0 l 628 604 q 619 663 622 626 l 617 694 l 611 694 l 608 663 q 600 604 606 626 l 454 0 l 274 0 l 38 972 z "},"а":{"ha":750,"x_min":56,"x_max":660,"o":"m 313 -14 q 123 45 190 -14 q 56 201 56 104 q 131 365 56 306 q 368 424 207 424 l 465 424 l 465 444 q 433 551 465 518 q 333 583 401 583 q 226 556 275 583 q 188 528 207 546 l 174 528 l 111 639 q 176 674 144 661 q 347 708 267 708 q 515 674 444 708 q 623 581 586 640 q 660 444 660 521 l 660 0 l 521 0 l 507 83 l 500 83 q 453 35 476 53 q 313 -14 394 -14 m 347 118 q 432 160 390 118 q 465 201 451 179 l 465 299 l 368 299 q 250 201 250 299 q 276 141 250 164 q 347 118 301 118 z "},"б":{"ha":771,"x_min":69,"x_max":708,"o":"m 389 -14 q 153 72 236 -14 q 69 319 69 158 l 69 451 q 111 723 69 619 q 237 881 153 826 q 458 958 321 935 l 667 993 l 694 847 l 486 813 q 331 764 388 796 q 248 678 274 732 q 222 535 222 624 q 424 653 286 653 q 630 565 551 653 q 708 319 708 478 q 625 72 708 158 q 389 -14 542 -14 m 389 111 q 480 161 446 111 q 514 319 514 211 q 480 472 514 424 q 389 521 446 521 q 298 472 332 521 q 264 319 264 424 q 298 161 264 211 q 389 111 332 111 z "},"в":{"ha":736,"x_min":97,"x_max":688,"o":"m 97 694 l 375 694 q 589 643 518 694 q 660 514 660 592 q 586 390 660 433 q 514 361 556 372 q 600 332 563 353 q 663 274 639 308 q 688 188 688 240 q 613 51 688 103 q 375 0 538 0 l 97 0 l 97 694 m 375 417 q 440 438 415 417 q 465 493 465 460 q 440 548 465 526 q 375 569 415 569 l 292 569 l 292 417 l 375 417 m 375 125 q 464 147 435 125 q 493 208 493 169 q 464 269 493 247 q 375 292 435 292 l 292 292 l 292 125 l 375 125 z "},"г":{"ha":597,"x_min":97,"x_max":583,"o":"m 97 0 l 97 694 l 583 694 l 583 569 l 292 569 l 292 0 l 97 0 z "},"ѓ":{"ha":597,"x_min":97,"x_max":583,"o":"m 97 0 l 97 694 l 583 694 l 583 569 l 292 569 l 292 0 l 97 0 m 326 764 l 389 972 l 576 972 l 438 764 l 326 764 z "},"ґ":{"ha":597,"x_min":97,"x_max":583,"o":"m 97 0 l 97 694 l 431 694 l 451 833 l 583 833 l 583 569 l 292 569 l 292 0 l 97 0 z "},"д":{"ha":833,"x_min":7,"x_max":785,"o":"m 7 125 l 76 125 q 108 164 93 139 q 146 292 140 215 l 174 694 l 694 694 l 694 125 l 785 125 l 785 -194 l 639 -194 l 611 0 l 188 0 l 160 -194 l 7 -194 l 7 125 m 500 125 l 500 569 l 354 569 l 335 292 q 297 164 329 215 q 265 125 282 139 l 500 125 z "},"е":{"ha":722,"x_min":56,"x_max":667,"o":"m 403 -14 q 56 347 56 -14 q 136 617 56 525 q 361 708 217 708 q 585 619 504 708 q 667 361 667 531 l 667 326 l 625 285 l 250 285 q 417 111 250 111 q 524 139 475 111 q 563 167 543 149 l 576 167 l 639 56 q 572 21 600 32 q 403 -14 489 -14 m 472 410 q 440 538 472 493 q 361 583 407 583 q 283 538 315 583 q 250 410 250 493 l 472 410 z "},"ѐ":{"ha":722,"x_min":56,"x_max":667,"o":"m 403 -14 q 56 347 56 -14 q 136 617 56 525 q 361 708 217 708 q 585 619 504 708 q 667 361 667 531 l 667 326 l 625 285 l 250 285 q 417 111 250 111 q 524 139 475 111 q 563 167 543 149 l 576 167 l 639 56 q 572 21 600 32 q 403 -14 489 -14 m 472 410 q 440 538 472 493 q 361 583 407 583 q 283 538 315 583 q 250 410 250 493 l 472 410 m 306 764 l 167 972 l 354 972 l 417 764 l 306 764 z "},"ё":{"ha":722,"x_min":56,"x_max":667,"o":"m 403 -14 q 56 347 56 -14 q 136 617 56 525 q 361 708 217 708 q 585 619 504 708 q 667 361 667 531 l 667 326 l 625 285 l 250 285 q 417 111 250 111 q 524 139 475 111 q 563 167 543 149 l 576 167 l 639 56 q 572 21 600 32 q 403 -14 489 -14 m 472 410 q 440 538 472 493 q 361 583 407 583 q 283 538 315 583 q 250 410 250 493 l 472 410 m 225 792 q 157 821 186 792 q 128 889 128 850 q 157 957 128 928 q 225 986 186 986 q 293 957 264 986 q 322 889 322 928 q 293 821 322 850 q 225 792 264 792 m 496 792 q 428 821 457 792 q 399 889 399 850 q 428 957 399 928 q 496 986 457 986 q 564 957 535 986 q 593 889 593 928 q 564 821 593 850 q 496 792 535 792 z "},"ж":{"ha":1069,"x_min":28,"x_max":1042,"o":"m 139 -14 q 60 -4 96 -14 q 44 1 53 -1 q 28 7 36 3 l 49 118 l 56 118 l 64 114 q 83 111 78 111 q 104 121 94 111 q 118 146 114 131 l 146 257 q 224 343 160 313 q 285 361 249 357 q 231 378 256 368 q 160 451 174 403 l 132 549 q 118 574 128 564 q 97 583 108 583 q 78 579 94 583 q 69 576 69 576 l 63 576 l 42 688 q 74 697 67 694 q 153 708 115 708 q 313 597 283 708 l 347 472 q 371 431 356 444 q 417 417 386 417 l 438 417 l 438 694 l 632 694 l 632 417 l 653 417 q 699 431 683 417 q 722 472 714 444 l 757 597 q 917 708 786 708 q 996 697 954 708 q 1028 688 1003 694 l 1007 576 l 1000 576 q 992 579 1000 576 q 972 583 975 583 q 951 574 961 583 q 938 549 942 564 l 910 451 q 839 378 896 404 q 785 361 814 368 q 846 343 821 357 q 924 257 910 313 l 951 146 q 965 121 956 131 q 986 111 975 111 q 1006 114 992 111 l 1014 118 l 1021 118 l 1042 7 q 1025 1 1033 3 q 1010 -4 1017 -1 q 931 -14 974 -14 q 822 16 861 -14 q 771 97 783 46 l 736 236 q 713 278 728 264 q 667 292 697 292 l 632 292 l 632 0 l 438 0 l 438 292 l 403 292 q 357 278 372 292 q 333 236 342 264 l 299 97 q 247 16 286 46 q 139 -14 208 -14 z "},"з":{"ha":646,"x_min":21,"x_max":597,"o":"m 292 -14 q 92 21 179 -14 q 21 56 58 33 l 83 167 l 97 167 q 140 139 119 149 q 278 111 193 111 q 403 201 403 111 q 285 292 403 292 l 167 292 l 167 417 l 285 417 q 363 440 336 417 q 389 507 389 464 q 360 563 389 542 q 271 583 331 583 q 151 556 200 583 q 111 528 129 543 l 97 528 l 35 639 q 103 674 74 663 q 285 708 193 708 q 510 657 438 708 q 583 521 583 606 q 503 389 583 433 q 424 361 465 369 q 510 331 474 353 q 597 181 597 276 q 524 39 597 92 q 292 -14 450 -14 z "},"и":{"ha":806,"x_min":97,"x_max":708,"o":"m 97 694 l 292 694 l 292 354 q 289 297 292 328 l 286 271 l 292 271 q 300 297 293 282 q 326 354 313 331 l 521 694 l 708 694 l 708 0 l 514 0 l 514 340 q 517 397 514 367 l 519 424 l 514 424 q 506 397 513 413 q 479 340 497 374 l 285 0 l 97 0 l 97 694 z "},"й":{"ha":806,"x_min":97,"x_max":708,"o":"m 97 694 l 292 694 l 292 354 q 289 297 292 328 l 286 271 l 292 271 q 300 297 293 282 q 326 354 313 331 l 521 694 l 708 694 l 708 0 l 514 0 l 514 340 q 517 397 514 367 l 519 424 l 514 424 q 506 397 513 413 q 479 340 497 374 l 285 0 l 97 0 l 97 694 m 403 764 q 235 813 289 764 q 181 958 181 863 l 333 958 q 403 861 333 861 q 472 958 472 861 l 625 958 q 571 813 625 863 q 403 764 517 764 z "},"ѝ":{"ha":806,"x_min":97,"x_max":708,"o":"m 97 694 l 292 694 l 292 354 q 289 297 292 328 l 286 271 l 292 271 q 300 297 293 282 q 326 354 313 331 l 521 694 l 708 694 l 708 0 l 514 0 l 514 340 q 517 397 514 367 l 519 424 l 514 424 q 506 397 513 413 q 479 340 497 374 l 285 0 l 97 0 l 97 694 m 347 764 l 208 972 l 396 972 l 458 764 l 347 764 z "},"к":{"ha":750,"x_min":97,"x_max":722,"o":"m 611 -14 q 503 16 542 -14 q 451 97 464 46 l 417 236 q 393 278 408 264 q 347 292 378 292 l 292 292 l 292 0 l 97 0 l 97 694 l 292 694 l 292 417 l 333 417 q 379 431 364 417 q 403 472 394 444 l 438 597 q 597 708 467 708 q 676 697 635 708 q 708 688 683 694 l 688 576 l 681 576 q 672 579 681 576 q 653 583 656 583 q 632 574 642 583 q 618 549 622 564 l 590 451 q 519 378 576 404 q 465 361 494 368 q 526 343 501 357 q 604 257 590 313 l 632 146 q 646 121 636 131 q 667 111 656 111 q 686 114 672 111 l 694 118 l 701 118 l 722 7 q 706 1 714 3 q 690 -4 697 -1 q 611 -14 654 -14 z "},"ќ":{"ha":750,"x_min":97,"x_max":722,"o":"m 611 -14 q 503 16 542 -14 q 451 97 464 46 l 417 236 q 393 278 408 264 q 347 292 378 292 l 292 292 l 292 0 l 97 0 l 97 694 l 292 694 l 292 417 l 333 417 q 379 431 364 417 q 403 472 394 444 l 438 597 q 597 708 467 708 q 676 697 635 708 q 708 688 683 694 l 688 576 l 681 576 q 672 579 681 576 q 653 583 656 583 q 632 574 642 583 q 618 549 622 564 l 590 451 q 519 378 576 404 q 465 361 494 368 q 526 343 501 357 q 604 257 590 313 l 632 146 q 646 121 636 131 q 667 111 656 111 q 686 114 672 111 l 694 118 l 701 118 l 722 7 q 706 1 714 3 q 690 -4 697 -1 q 611 -14 654 -14 m 319 764 l 382 972 l 569 972 l 431 764 l 319 764 z "},"л":{"ha":785,"x_min":7,"x_max":688,"o":"m 104 -14 q 38 -4 69 -14 l 7 7 l 21 118 l 35 118 l 43 114 q 63 111 57 111 q 103 138 86 111 q 125 222 121 164 l 153 694 l 688 694 l 688 0 l 493 0 l 493 569 l 333 569 l 313 222 q 104 -14 299 -14 z "},"м":{"ha":1014,"x_min":97,"x_max":917,"o":"m 97 694 l 292 694 l 479 347 q 497 301 493 317 l 504 278 l 510 278 l 517 301 q 535 347 525 332 l 722 694 l 917 694 l 917 0 l 722 0 l 722 306 q 725 363 722 332 l 728 389 l 722 389 l 713 363 q 688 306 701 331 l 583 111 l 431 111 l 326 306 q 300 363 310 335 q 292 389 293 378 l 286 389 l 289 363 q 292 306 292 332 l 292 0 l 97 0 l 97 694 z "},"н":{"ha":806,"x_min":97,"x_max":708,"o":"m 97 0 l 97 694 l 292 694 l 292 417 l 514 417 l 514 694 l 708 694 l 708 0 l 514 0 l 514 292 l 292 292 l 292 0 l 97 0 z "},"о":{"ha":750,"x_min":56,"x_max":694,"o":"m 375 -14 q 138 76 221 -14 q 56 347 56 167 q 138 618 56 528 q 375 708 221 708 q 612 618 529 708 q 694 347 694 528 q 612 76 694 167 q 375 -14 529 -14 m 375 111 q 500 347 500 111 q 375 583 500 583 q 250 347 250 583 q 375 111 250 111 z "},"п":{"ha":806,"x_min":97,"x_max":708,"o":"m 97 0 l 97 694 l 708 694 l 708 0 l 514 0 l 514 569 l 292 569 l 292 0 l 97 0 z "},"р":{"ha":778,"x_min":97,"x_max":722,"o":"m 97 694 l 236 694 l 250 611 l 257 611 q 304 660 271 632 q 444 708 369 708 q 646 616 569 708 q 722 347 722 524 q 644 78 722 169 q 431 -14 565 -14 q 329 7 374 -14 q 292 28 307 15 l 292 -222 l 236 -278 l 97 -278 l 97 694 m 396 111 q 493 165 458 111 q 528 347 528 219 q 495 522 528 468 q 410 576 463 576 q 322 535 364 576 q 292 493 308 518 l 292 153 q 321 132 307 140 q 396 111 354 111 z "},"с":{"ha":660,"x_min":56,"x_max":632,"o":"m 396 -14 q 56 347 56 -14 q 139 618 56 528 q 382 708 222 708 q 551 674 461 708 q 618 639 579 663 l 556 528 l 542 528 q 503 556 522 546 q 396 583 454 583 q 288 530 325 583 q 250 347 250 476 q 289 164 250 217 q 410 111 328 111 q 517 139 468 111 q 556 167 536 149 l 569 167 l 632 56 q 565 21 593 32 q 396 -14 482 -14 z "},"т":{"ha":625,"x_min":14,"x_max":611,"o":"m 215 0 l 215 569 l 14 569 l 14 694 l 611 694 l 611 569 l 410 569 l 410 0 l 215 0 z "},"у":{"ha":701,"x_min":26,"x_max":688,"o":"m 201 -292 q 93 -271 146 -292 q 49 -250 67 -262 l 97 -132 l 111 -132 q 133 -150 125 -146 q 188 -167 160 -167 q 249 -142 221 -167 q 289 -69 276 -117 l 308 0 l 256 0 l 26 694 l 208 694 l 347 243 q 356 194 353 221 l 358 167 l 364 167 l 367 194 q 375 243 369 221 l 493 694 l 688 694 l 458 -69 q 201 -292 389 -292 z "},"ў":{"ha":701,"x_min":26,"x_max":688,"o":"m 201 -292 q 93 -271 146 -292 q 49 -250 67 -262 l 97 -132 l 111 -132 q 133 -150 125 -146 q 188 -167 160 -167 q 249 -142 221 -167 q 289 -69 276 -117 l 308 0 l 256 0 l 26 694 l 208 694 l 347 243 q 356 194 353 221 l 358 167 l 364 167 l 367 194 q 375 243 369 221 l 493 694 l 688 694 l 458 -69 q 201 -292 389 -292 m 351 764 q 183 813 238 764 q 129 958 129 863 l 282 958 q 351 861 282 861 q 421 958 421 861 l 574 958 q 519 813 574 863 q 351 764 465 764 z "},"ф":{"ha":986,"x_min":56,"x_max":931,"o":"m 396 -14 q 56 347 56 -3 q 396 708 56 697 l 396 917 l 451 972 l 590 972 l 590 708 q 931 347 931 697 q 590 -14 931 -3 l 590 -278 l 396 -278 l 396 -14 m 396 583 q 288 524 325 578 q 250 347 250 471 q 288 170 250 224 q 396 111 325 117 l 396 583 m 590 111 q 699 170 661 117 q 736 347 736 224 q 699 524 736 471 q 590 583 661 578 l 590 111 z "},"х":{"ha":681,"x_min":14,"x_max":667,"o":"m 222 354 l 21 694 l 222 694 l 319 514 q 328 492 325 501 q 335 475 332 482 l 338 458 l 343 458 l 346 475 q 351 492 347 481 q 361 514 354 504 l 458 694 l 660 694 l 458 354 l 667 0 l 465 0 l 361 188 q 351 210 354 199 q 346 225 347 221 q 343 243 343 236 l 338 243 q 335 225 338 236 q 319 188 332 214 l 215 0 l 14 0 l 222 354 z "},"ч":{"ha":764,"x_min":69,"x_max":667,"o":"m 472 243 q 440 232 469 242 q 340 222 401 222 q 138 285 206 222 q 69 465 69 349 l 69 694 l 264 694 l 264 465 q 292 377 264 407 q 375 347 321 347 q 447 357 418 347 q 472 368 469 367 l 472 694 l 667 694 l 667 0 l 472 0 l 472 243 z "},"ц":{"ha":833,"x_min":97,"x_max":785,"o":"m 639 -194 l 611 0 l 97 0 l 97 694 l 292 694 l 292 125 l 500 125 l 500 694 l 694 694 l 694 125 l 785 125 l 785 -194 l 639 -194 z "},"ш":{"ha":1139,"x_min":97,"x_max":1042,"o":"m 97 0 l 97 694 l 292 694 l 292 125 l 472 125 l 472 694 l 667 694 l 667 125 l 847 125 l 847 694 l 1042 694 l 1042 0 l 97 0 z "},"щ":{"ha":1181,"x_min":97,"x_max":1132,"o":"m 986 -194 l 958 0 l 97 0 l 97 694 l 292 694 l 292 125 l 472 125 l 472 694 l 667 694 l 667 125 l 847 125 l 847 694 l 1042 694 l 1042 125 l 1132 125 l 1132 -194 l 986 -194 z "},"џ":{"ha":806,"x_min":97,"x_max":708,"o":"m 333 -194 l 313 0 l 97 0 l 97 694 l 292 694 l 292 125 l 514 125 l 514 694 l 708 694 l 708 0 l 493 0 l 472 -194 l 333 -194 z "},"ь":{"ha":722,"x_min":97,"x_max":694,"o":"m 97 694 l 292 694 l 292 472 l 382 472 q 622 413 549 472 q 694 236 694 354 q 622 59 694 118 q 382 0 549 0 l 97 0 l 97 694 m 382 125 q 470 153 440 125 q 500 236 500 182 q 470 319 500 290 q 382 347 440 347 l 292 347 l 292 125 l 382 125 z "},"ъ":{"ha":806,"x_min":14,"x_max":778,"o":"m 181 569 l 14 569 l 14 694 l 375 694 l 375 472 l 465 472 q 705 413 632 472 q 778 236 778 354 q 715 68 778 126 q 514 1 653 10 q 472 0 499 0 l 181 0 l 181 569 m 465 125 q 553 153 524 125 q 583 236 583 182 q 553 319 583 290 q 465 347 524 347 l 375 347 l 375 125 l 465 125 z "},"ы":{"ha":1076,"x_min":97,"x_max":979,"o":"m 97 694 l 292 694 l 292 472 l 368 472 q 608 413 535 472 q 681 236 681 354 q 608 59 681 118 q 368 0 535 0 l 97 0 l 97 694 m 785 0 l 785 694 l 979 694 l 979 0 l 785 0 m 368 125 q 456 153 426 125 q 486 236 486 182 q 456 319 486 290 q 368 347 426 347 l 292 347 l 292 125 l 368 125 z "},"љ":{"ha":1111,"x_min":7,"x_max":1083,"o":"m 104 -14 q 38 -4 69 -14 l 7 7 l 21 118 l 35 118 l 43 114 q 63 111 57 111 q 103 138 86 111 q 125 222 121 164 l 153 694 l 681 694 l 681 472 l 771 472 q 1010 413 938 472 q 1083 236 1083 354 q 1010 59 1083 118 q 771 0 938 0 l 486 0 l 486 569 l 333 569 l 313 222 q 104 -14 299 -14 m 771 125 q 859 153 829 125 q 889 236 889 182 q 859 319 889 290 q 771 347 829 347 l 681 347 l 681 125 l 771 125 z "},"њ":{"ha":1125,"x_min":97,"x_max":1097,"o":"m 97 694 l 292 694 l 292 444 l 500 444 l 500 694 l 694 694 l 694 444 l 785 444 q 1024 388 950 444 q 1097 222 1097 331 q 1024 57 1097 114 q 785 0 950 0 l 500 0 l 500 319 l 292 319 l 292 0 l 97 0 l 97 694 m 785 125 q 872 152 842 125 q 903 222 903 179 q 872 292 903 265 q 785 319 842 319 l 694 319 l 694 125 l 785 125 z "},"ѕ":{"ha":674,"x_min":42,"x_max":632,"o":"m 326 -14 q 121 21 217 -14 q 42 56 85 33 l 104 167 l 118 167 q 168 139 144 150 q 306 111 226 111 q 406 133 375 111 q 438 189 438 154 q 403 242 438 222 q 296 283 368 261 q 172 331 219 308 q 90 394 125 353 q 56 500 56 436 q 129 651 56 593 q 347 708 203 708 q 536 674 435 708 q 611 639 571 661 l 549 528 l 535 528 q 488 556 510 546 q 361 583 429 583 q 278 563 307 583 q 250 514 250 543 q 284 463 250 482 q 392 419 318 443 q 514 373 465 396 q 597 308 563 350 q 632 203 632 267 q 557 44 632 103 q 326 -14 482 -14 z "},"є":{"ha":660,"x_min":56,"x_max":632,"o":"m 396 -14 q 56 347 56 -14 q 139 618 56 528 q 382 708 222 708 q 551 674 461 708 q 618 639 579 663 l 556 528 l 542 528 q 503 556 522 546 q 396 583 454 583 q 301 546 335 583 q 257 417 268 508 l 493 417 l 493 292 l 250 292 q 300 151 261 192 q 410 111 339 111 q 517 139 468 111 q 556 167 536 149 l 569 167 l 632 56 q 565 21 593 32 q 396 -14 482 -14 z "},"э":{"ha":660,"x_min":28,"x_max":604,"o":"m 264 -14 q 93 21 176 -14 q 28 56 61 33 l 90 167 l 104 167 q 143 139 124 149 q 250 111 192 111 q 360 151 321 111 q 410 292 399 192 l 167 292 l 167 417 l 403 417 q 358 546 392 508 q 264 583 325 583 q 157 556 206 583 q 118 528 138 546 l 104 528 l 42 639 q 107 674 75 661 q 278 708 197 708 q 521 618 438 708 q 604 347 604 528 q 264 -14 604 -14 z "},"і":{"ha":389,"x_min":90,"x_max":299,"o":"m 194 785 q 122 816 153 785 q 90 889 90 847 q 122 962 90 931 q 194 993 153 993 q 267 962 236 993 q 299 889 299 931 q 267 816 299 847 q 194 785 236 785 m 97 0 l 97 694 l 292 694 l 292 0 l 97 0 z "},"ї":{"ha":417,"x_min":14,"x_max":479,"o":"m 97 0 l 97 694 l 292 694 l 292 0 l 97 0 m 111 792 q 43 821 72 792 q 14 889 14 850 q 43 957 14 928 q 111 986 72 986 q 179 957 150 986 q 208 889 208 928 q 179 821 208 850 q 111 792 150 792 m 382 792 q 314 821 343 792 q 285 889 285 850 q 314 957 285 928 q 382 986 343 986 q 450 957 421 986 q 479 889 479 928 q 450 821 479 850 q 382 792 421 792 z "},"ј":{"ha":417,"x_min":-104,"x_max":326,"o":"m 222 785 q 149 816 181 785 q 118 889 118 847 q 149 962 118 931 q 222 993 181 993 q 295 962 264 993 q 326 889 326 931 q 295 816 326 847 q 222 785 264 785 m 49 -278 q -60 -257 -7 -278 q -104 -236 -86 -249 l -56 -118 l -42 -118 q -19 -136 -28 -132 q 35 -153 7 -153 q 125 -42 125 -153 l 125 694 l 319 694 l 319 -42 q 248 -213 319 -149 q 49 -278 176 -278 z "},"ћ":{"ha":813,"x_min":35,"x_max":722,"o":"m 111 694 l 35 694 l 35 819 l 111 819 l 111 917 l 167 972 l 306 972 l 306 819 l 479 819 l 479 694 l 306 694 l 306 563 q 346 593 319 576 q 458 625 401 625 q 653 556 585 625 q 722 361 722 488 l 722 0 l 528 0 l 528 361 q 500 460 528 426 q 424 493 472 493 q 336 451 378 493 q 306 410 322 435 l 306 0 l 111 0 l 111 694 z "},"ю":{"ha":1042,"x_min":97,"x_max":986,"o":"m 681 -14 q 467 67 543 -14 q 375 292 392 147 l 292 292 l 292 0 l 97 0 l 97 694 l 292 694 l 292 417 l 375 417 q 467 632 392 556 q 681 708 543 708 q 906 617 825 708 q 986 347 986 525 q 906 78 986 169 q 681 -14 825 -14 m 681 111 q 763 164 733 111 q 792 347 792 217 q 763 531 792 478 q 681 583 733 583 q 599 531 628 583 q 569 347 569 478 q 599 164 569 217 q 681 111 628 111 z "},"я":{"ha":757,"x_min":35,"x_max":660,"o":"m 146 -14 q 67 -4 103 -14 q 51 1 60 -1 q 35 7 43 3 l 56 118 l 63 118 l 71 114 q 90 111 85 111 q 111 121 101 111 q 125 146 121 131 l 146 222 q 208 286 158 265 q 257 299 232 294 q 167 329 206 307 q 101 388 126 353 q 76 479 76 424 q 151 637 76 579 q 382 694 226 694 l 660 694 l 660 0 l 465 0 l 465 250 l 403 250 q 333 194 347 250 l 306 97 q 146 -14 274 -14 m 465 375 l 465 569 l 382 569 q 271 472 271 569 q 382 375 271 375 l 465 375 z "},"ђ":{"ha":806,"x_min":35,"x_max":722,"o":"m 465 -194 q 381 -181 422 -194 q 347 -167 358 -174 l 368 -56 l 382 -56 q 401 -62 392 -61 q 451 -69 425 -69 q 507 -42 486 -69 q 528 42 528 -14 l 528 361 q 500 460 528 426 q 424 493 472 493 q 336 451 378 493 q 306 410 322 435 l 306 0 l 111 0 l 111 694 l 35 694 l 35 819 l 111 819 l 111 917 l 167 972 l 306 972 l 306 819 l 479 819 l 479 694 l 306 694 l 306 563 q 346 593 319 576 q 458 625 401 625 q 653 556 585 625 q 722 361 722 488 l 722 42 q 653 -129 722 -64 q 465 -194 585 -194 z "},"ѣ":{"ha":750,"x_min":21,"x_max":722,"o":"m 410 472 q 649 413 576 472 q 722 236 722 354 q 649 59 722 118 q 410 0 576 0 l 125 0 l 125 569 l 21 569 l 21 694 l 125 694 l 125 972 l 319 972 l 319 694 l 535 694 l 535 569 l 319 569 l 319 472 l 410 472 m 410 125 q 498 153 468 125 q 528 236 528 182 q 498 319 528 290 q 410 347 468 347 l 319 347 l 319 125 l 410 125 z "},"ѫ":{"ha":1069,"x_min":28,"x_max":1042,"o":"m 139 -14 q 28 7 81 -14 l 49 118 l 56 118 q 83 111 65 111 q 104 121 94 111 q 118 146 114 131 l 146 257 q 217 340 160 314 q 376 374 274 367 l 144 694 l 919 694 l 688 372 q 852 340 794 367 q 924 257 910 314 l 951 146 q 966 120 956 129 q 990 111 976 111 q 1014 118 1004 111 l 1021 118 l 1042 7 q 931 -14 994 -14 q 822 16 861 -14 q 771 97 783 46 l 736 236 q 713 278 728 264 q 667 292 697 292 l 632 292 l 632 0 l 438 0 l 438 292 l 403 292 q 357 278 372 292 q 333 236 342 264 l 299 97 q 247 16 286 46 q 139 -14 208 -14 m 532 347 l 538 347 l 688 569 l 382 569 l 532 347 z "},"ѳ":{"ha":750,"x_min":56,"x_max":694,"o":"m 375 708 q 612 618 529 708 q 694 347 694 528 q 612 76 694 167 q 375 -14 529 -14 q 138 76 221 -14 q 56 347 56 167 q 138 618 56 528 q 375 708 221 708 m 375 583 q 253 410 268 583 l 497 410 q 375 583 482 583 m 375 111 q 497 285 482 111 l 253 285 q 375 111 268 111 z "},"ѵ":{"ha":717,"x_min":14,"x_max":738,"o":"m 14 694 l 208 694 l 333 264 q 342 215 339 243 l 344 188 l 350 188 l 353 215 q 361 264 356 242 l 407 474 q 490 656 435 601 q 642 710 546 710 q 692 705 671 710 q 738 689 714 700 l 711 578 l 703 578 q 669 585 690 585 q 592 474 625 585 l 451 0 l 243 0 l 14 694 z "},"ғ":{"ha":597,"x_min":10,"x_max":583,"o":"m 583 569 l 292 569 l 292 410 l 454 410 l 454 285 l 292 285 l 292 0 l 97 0 l 97 285 l 10 285 l 10 410 l 97 410 l 97 694 l 583 694 l 583 569 z "},"ҕ":{"ha":743,"x_min":97,"x_max":708,"o":"m 451 433 q 640 365 571 433 q 708 167 708 296 l 708 42 q 640 -129 708 -64 q 451 -194 571 -194 q 385 -185 418 -194 q 333 -167 351 -176 l 354 -56 l 368 -56 q 400 -65 378 -61 q 438 -69 422 -69 q 493 -42 472 -69 q 514 42 514 -14 l 514 167 q 406 300 514 300 q 292 275 357 300 l 292 0 l 97 0 l 97 694 l 583 694 l 583 569 l 292 569 l 292 406 q 451 433 379 433 z "},"җ":{"ha":1069,"x_min":28,"x_max":1042,"o":"m 1042 7 l 1042 -194 l 896 -194 l 869 -6 q 804 33 829 6 q 771 97 779 60 l 736 236 q 713 278 728 264 q 667 292 697 292 l 632 292 l 632 0 l 438 0 l 438 292 l 403 292 q 357 278 372 292 q 333 236 342 264 l 299 97 q 247 16 286 46 q 139 -14 208 -14 q 60 -4 96 -14 q 44 1 53 -1 q 28 7 36 3 l 49 118 l 56 118 l 64 114 q 83 111 78 111 q 104 121 94 111 q 118 146 114 131 l 146 257 q 224 343 160 313 q 285 361 249 357 q 231 378 256 368 q 160 451 174 403 l 132 549 q 118 574 128 564 q 97 583 108 583 q 78 579 94 583 q 69 576 69 576 l 63 576 l 42 688 q 74 697 67 694 q 153 708 115 708 q 313 597 283 708 l 347 472 q 371 431 356 444 q 417 417 386 417 l 438 417 l 438 694 l 632 694 l 632 417 l 653 417 q 699 431 683 417 q 722 472 714 444 l 757 597 q 917 708 786 708 q 996 697 954 708 q 1028 688 1003 694 l 1007 576 l 1000 576 q 992 579 1000 576 q 972 583 975 583 q 951 574 961 583 q 938 549 942 564 l 910 451 q 839 378 896 404 q 785 361 814 368 q 846 343 821 357 q 924 257 910 313 l 951 146 q 965 121 956 131 q 986 111 975 111 q 1006 114 992 111 l 1014 118 l 1021 118 l 1042 7 z "},"ҙ":{"ha":646,"x_min":21,"x_max":597,"o":"m 597 181 q 553 63 597 111 q 414 -3 508 15 l 414 -194 l 268 -194 l 242 -12 q 92 21 164 -6 q 21 56 58 33 l 83 167 l 97 167 q 140 139 119 149 q 278 111 193 111 q 403 201 403 111 q 285 292 403 292 l 167 292 l 167 417 l 285 417 q 363 440 336 417 q 389 507 389 464 q 360 563 389 542 q 271 583 331 583 q 151 556 200 583 q 111 528 129 543 l 97 528 l 35 639 q 103 674 74 663 q 285 708 193 708 q 510 657 438 708 q 583 521 583 606 q 503 389 583 433 q 424 361 465 369 q 510 331 474 353 q 597 181 597 276 z "},"қ":{"ha":750,"x_min":97,"x_max":722,"o":"m 722 7 l 722 -194 l 576 -194 l 550 -6 q 485 33 510 6 q 451 97 460 60 l 417 236 q 393 278 408 264 q 347 292 378 292 l 292 292 l 292 0 l 97 0 l 97 694 l 292 694 l 292 417 l 333 417 q 379 431 364 417 q 403 472 394 444 l 438 597 q 597 708 467 708 q 676 697 635 708 q 708 688 683 694 l 688 576 l 681 576 q 672 579 681 576 q 653 583 656 583 q 632 574 642 583 q 618 549 622 564 l 590 451 q 519 378 576 404 q 465 361 494 368 q 526 343 501 357 q 604 257 590 313 l 632 146 q 646 121 636 131 q 667 111 656 111 q 686 114 672 111 l 694 118 l 701 118 l 722 7 z "},"ҝ":{"ha":817,"x_min":97,"x_max":789,"o":"m 789 7 q 757 -4 771 0 q 678 -14 721 -14 q 569 16 608 -14 q 518 97 531 46 l 483 236 q 426 292 472 286 l 426 167 l 350 167 l 350 292 l 292 292 l 292 0 l 97 0 l 97 694 l 292 694 l 292 417 l 350 417 l 350 528 l 426 528 l 426 419 q 469 472 458 431 l 504 597 q 664 708 533 708 q 743 697 715 708 q 775 688 750 694 l 754 576 l 747 576 q 739 579 747 576 q 719 583 722 583 q 699 574 708 583 q 685 549 689 564 l 657 451 q 629 406 649 425 q 586 378 610 388 q 532 361 561 368 q 593 343 563 357 q 671 257 657 313 l 699 146 q 713 121 703 131 q 733 111 722 111 q 753 114 739 111 l 761 118 l 768 118 l 789 7 z "},"ҡ":{"ha":861,"x_min":14,"x_max":833,"o":"m 833 7 q 817 1 825 3 q 801 -4 808 -1 q 722 -14 765 -14 q 614 16 653 -14 q 563 97 575 46 l 528 236 q 504 278 519 264 q 458 292 489 292 l 403 292 l 403 0 l 208 0 l 208 569 l 14 569 l 14 694 l 403 694 l 403 417 l 444 417 q 490 431 475 417 q 514 472 506 444 l 549 597 q 708 708 578 708 q 788 697 746 708 q 819 688 794 694 l 799 576 l 792 576 q 783 579 792 576 q 764 583 767 583 q 743 574 753 583 q 729 549 733 564 l 701 451 q 631 378 688 404 q 576 361 606 367 q 638 343 613 357 q 715 257 701 313 l 743 146 q 757 121 747 131 q 778 111 767 111 q 797 114 783 111 l 806 118 l 813 118 l 833 7 z "},"ң":{"ha":806,"x_min":97,"x_max":799,"o":"m 708 125 l 799 125 l 799 -194 l 653 -194 l 625 0 l 514 0 l 514 292 l 292 292 l 292 0 l 97 0 l 97 694 l 292 694 l 292 417 l 514 417 l 514 694 l 708 694 l 708 125 z "},"ԥ":{"ha":806,"x_min":97,"x_max":799,"o":"m 708 125 l 799 125 l 799 -194 l 653 -194 l 625 0 l 514 0 l 514 569 l 292 569 l 292 0 l 97 0 l 97 694 l 708 694 l 708 125 z "},"ҫ":{"ha":660,"x_min":56,"x_max":632,"o":"m 632 56 q 565 21 593 32 q 463 -8 514 -1 l 463 -194 l 317 -194 l 289 -3 q 56 347 56 47 q 139 618 56 528 q 382 708 222 708 q 551 674 461 708 q 618 639 579 663 l 556 528 l 542 528 q 503 556 522 546 q 396 583 454 583 q 288 530 325 583 q 250 347 250 476 q 289 164 250 217 q 410 111 328 111 q 517 139 468 111 q 556 167 536 149 l 569 167 l 632 56 z "},"ү":{"ha":694,"x_min":14,"x_max":681,"o":"m 250 0 l 14 694 l 208 694 l 333 269 q 342 221 339 247 l 344 193 l 350 193 l 353 221 q 361 269 356 247 l 486 694 l 681 694 l 444 0 l 444 -222 l 389 -278 l 250 -278 l 250 0 z "},"ұ":{"ha":694,"x_min":14,"x_max":681,"o":"m 465 63 l 569 63 l 569 -62 l 444 -62 l 444 -222 l 389 -278 l 250 -278 l 250 -62 l 125 -62 l 125 63 l 229 63 l 14 694 l 208 694 l 333 269 q 342 221 339 247 l 344 193 l 350 193 l 353 221 q 361 269 356 247 l 486 694 l 681 694 l 465 63 z "},"ҷ":{"ha":764,"x_min":69,"x_max":757,"o":"m 757 125 l 757 -194 l 611 -194 l 583 0 l 472 0 l 472 243 q 440 232 469 242 q 340 222 401 222 q 138 285 206 222 q 69 465 69 349 l 69 694 l 264 694 l 264 465 q 292 377 264 407 q 375 347 321 347 q 447 357 418 347 q 472 368 469 367 l 472 694 l 667 694 l 667 125 l 757 125 z "},"ҹ":{"ha":764,"x_min":69,"x_max":667,"o":"m 667 694 l 667 0 l 472 0 l 472 243 q 440 232 469 242 q 410 226 431 229 l 410 113 l 333 113 l 333 222 q 135 286 201 224 q 69 465 69 349 l 69 694 l 264 694 l 264 465 q 333 353 264 375 l 333 474 l 410 474 l 410 349 l 447 357 q 472 368 469 367 l 472 694 l 667 694 z "},"һ":{"ha":799,"x_min":97,"x_max":708,"o":"m 97 917 l 153 972 l 292 972 l 292 646 q 332 676 306 660 q 444 708 388 708 q 640 640 571 708 q 708 444 708 571 l 708 0 l 514 0 l 514 444 q 486 543 514 510 q 410 576 458 576 q 322 535 364 576 q 292 493 308 518 l 292 0 l 97 0 l 97 917 z "},"ӏ":{"ha":389,"x_min":97,"x_max":292,"o":"m 97 0 l 97 917 l 153 972 l 292 972 l 292 0 l 97 0 z "},"ӂ":{"ha":1069,"x_min":28,"x_max":1042,"o":"m 139 -14 q 60 -4 96 -14 q 44 1 53 -1 q 28 7 36 3 l 49 118 l 56 118 l 64 114 q 83 111 78 111 q 104 121 94 111 q 118 146 114 131 l 146 257 q 224 343 160 313 q 285 361 249 357 q 231 378 256 368 q 160 451 174 403 l 132 549 q 118 574 128 564 q 97 583 108 583 q 78 579 94 583 q 69 576 69 576 l 63 576 l 42 688 q 74 697 67 694 q 153 708 115 708 q 313 597 283 708 l 347 472 q 371 431 356 444 q 417 417 386 417 l 438 417 l 438 694 l 632 694 l 632 417 l 653 417 q 699 431 683 417 q 722 472 714 444 l 757 597 q 917 708 786 708 q 996 697 954 708 q 1028 688 1003 694 l 1007 576 l 1000 576 q 992 579 1000 576 q 972 583 975 583 q 951 574 961 583 q 938 549 942 564 l 910 451 q 839 378 896 404 q 785 361 814 368 q 846 343 821 357 q 924 257 910 313 l 951 146 q 965 121 956 131 q 986 111 975 111 q 1006 114 992 111 l 1014 118 l 1021 118 l 1042 7 q 1025 1 1033 3 q 1010 -4 1017 -1 q 931 -14 974 -14 q 822 16 861 -14 q 771 97 783 46 l 736 236 q 713 278 728 264 q 667 292 697 292 l 632 292 l 632 0 l 438 0 l 438 292 l 403 292 q 357 278 372 292 q 333 236 342 264 l 299 97 q 247 16 286 46 q 139 -14 208 -14 m 535 764 q 367 813 421 764 q 313 958 313 863 l 465 958 q 535 861 465 861 q 604 958 604 861 l 757 958 q 703 813 757 863 q 535 764 649 764 z "},"ӌ":{"ha":764,"x_min":69,"x_max":667,"o":"m 667 694 l 667 0 l 556 0 l 528 -194 l 382 -194 l 382 125 l 472 125 l 472 243 q 440 232 469 242 q 340 222 401 222 q 138 285 206 222 q 69 465 69 349 l 69 694 l 264 694 l 264 465 q 292 377 264 407 q 375 347 321 347 q 447 357 418 347 q 472 368 469 367 l 472 694 l 667 694 z "},"ӑ":{"ha":750,"x_min":56,"x_max":660,"o":"m 313 -14 q 123 45 190 -14 q 56 201 56 104 q 131 365 56 306 q 368 424 207 424 l 465 424 l 465 444 q 433 551 465 518 q 333 583 401 583 q 226 556 275 583 q 188 528 207 546 l 174 528 l 111 639 q 176 674 144 661 q 347 708 267 708 q 515 674 444 708 q 623 581 586 640 q 660 444 660 521 l 660 0 l 521 0 l 507 83 l 500 83 q 453 35 476 53 q 313 -14 394 -14 m 347 118 q 432 160 390 118 q 465 201 451 179 l 465 299 l 368 299 q 250 201 250 299 q 276 141 250 164 q 347 118 301 118 m 375 764 q 207 813 261 764 q 153 958 153 863 l 306 958 q 375 861 306 861 q 444 958 444 861 l 597 958 q 543 813 597 863 q 375 764 489 764 z "},"ӓ":{"ha":750,"x_min":56,"x_max":660,"o":"m 313 -14 q 123 45 190 -14 q 56 201 56 104 q 131 365 56 306 q 368 424 207 424 l 465 424 l 465 444 q 433 551 465 518 q 333 583 401 583 q 226 556 275 583 q 188 528 207 546 l 174 528 l 111 639 q 176 674 144 661 q 347 708 267 708 q 515 674 444 708 q 623 581 586 640 q 660 444 660 521 l 660 0 l 521 0 l 507 83 l 500 83 q 453 35 476 53 q 313 -14 394 -14 m 347 118 q 432 160 390 118 q 465 201 451 179 l 465 299 l 368 299 q 250 201 250 299 q 276 141 250 164 q 347 118 301 118 m 239 792 q 171 821 200 792 q 142 889 142 850 q 171 957 142 928 q 239 986 200 986 q 307 957 278 986 q 336 889 336 928 q 307 821 336 850 q 239 792 278 792 m 510 792 q 442 821 471 792 q 413 889 413 850 q 442 957 413 928 q 510 986 471 986 q 578 957 549 986 q 607 889 607 928 q 578 821 607 850 q 510 792 549 792 z "},"ӗ":{"ha":722,"x_min":56,"x_max":667,"o":"m 403 -14 q 56 347 56 -14 q 136 617 56 525 q 361 708 217 708 q 585 619 504 708 q 667 361 667 531 l 667 326 l 625 285 l 250 285 q 417 111 250 111 q 524 139 475 111 q 563 167 543 149 l 576 167 l 639 56 q 572 21 600 32 q 403 -14 489 -14 m 472 410 q 440 538 472 493 q 361 583 407 583 q 283 538 315 583 q 250 410 250 493 l 472 410 m 361 764 q 193 813 247 764 q 139 958 139 863 l 292 958 q 361 861 292 861 q 431 958 431 861 l 583 958 q 529 813 583 863 q 361 764 475 764 z "},"ә":{"ha":722,"x_min":56,"x_max":667,"o":"m 319 708 q 667 347 667 708 q 586 78 667 169 q 361 -14 506 -14 q 137 75 218 -14 q 56 333 56 164 l 56 368 l 97 410 l 472 410 q 306 583 472 583 q 199 556 247 583 q 160 528 179 546 l 146 528 l 83 639 q 150 674 122 663 q 319 708 233 708 m 250 285 q 283 156 250 201 q 361 111 315 111 q 440 156 407 111 q 472 285 472 201 l 250 285 z "},"ӝ":{"ha":1069,"x_min":28,"x_max":1042,"o":"m 139 -14 q 60 -4 96 -14 q 44 1 53 -1 q 28 7 36 3 l 49 118 l 56 118 l 64 114 q 83 111 78 111 q 104 121 94 111 q 118 146 114 131 l 146 257 q 224 343 160 313 q 285 361 249 357 q 231 378 256 368 q 160 451 174 403 l 132 549 q 118 574 128 564 q 97 583 108 583 q 78 579 94 583 q 69 576 69 576 l 63 576 l 42 688 q 74 697 67 694 q 153 708 115 708 q 313 597 283 708 l 347 472 q 371 431 356 444 q 417 417 386 417 l 438 417 l 438 694 l 632 694 l 632 417 l 653 417 q 699 431 683 417 q 722 472 714 444 l 757 597 q 917 708 786 708 q 996 697 954 708 q 1028 688 1003 694 l 1007 576 l 1000 576 q 992 579 1000 576 q 972 583 975 583 q 951 574 961 583 q 938 549 942 564 l 910 451 q 839 378 896 404 q 785 361 814 368 q 846 343 821 357 q 924 257 910 313 l 951 146 q 965 121 956 131 q 986 111 975 111 q 1006 114 992 111 l 1014 118 l 1021 118 l 1042 7 q 1025 1 1033 3 q 1010 -4 1017 -1 q 931 -14 974 -14 q 822 16 861 -14 q 771 97 783 46 l 736 236 q 713 278 728 264 q 667 292 697 292 l 632 292 l 632 0 l 438 0 l 438 292 l 403 292 q 357 278 372 292 q 333 236 342 264 l 299 97 q 247 16 286 46 q 139 -14 208 -14 m 399 792 q 331 821 360 792 q 301 889 301 850 q 331 957 301 928 q 399 986 360 986 q 467 957 438 986 q 496 889 496 928 q 467 821 496 850 q 399 792 438 792 m 669 792 q 601 821 631 792 q 572 889 572 850 q 601 957 572 928 q 669 986 631 986 q 738 957 708 986 q 767 889 767 928 q 738 821 767 850 q 669 792 708 792 z "},"ӟ":{"ha":646,"x_min":21,"x_max":597,"o":"m 292 -14 q 92 21 179 -14 q 21 56 58 33 l 83 167 l 97 167 q 140 139 119 149 q 278 111 193 111 q 403 201 403 111 q 285 292 403 292 l 167 292 l 167 417 l 285 417 q 363 440 336 417 q 389 507 389 464 q 360 563 389 542 q 271 583 331 583 q 151 556 200 583 q 111 528 129 543 l 97 528 l 35 639 q 103 674 74 663 q 285 708 193 708 q 510 657 438 708 q 583 521 583 606 q 503 389 583 433 q 424 361 465 369 q 510 331 474 353 q 597 181 597 276 q 524 39 597 92 q 292 -14 450 -14 m 146 792 q 78 821 107 792 q 49 889 49 850 q 78 957 49 928 q 146 986 107 986 q 214 957 185 986 q 243 889 243 928 q 214 821 243 850 q 146 792 185 792 m 417 792 q 349 821 378 792 q 319 889 319 850 q 349 957 319 928 q 417 986 378 986 q 485 957 456 986 q 514 889 514 928 q 485 821 514 850 q 417 792 456 792 z "},"ӣ":{"ha":806,"x_min":97,"x_max":708,"o":"m 97 694 l 292 694 l 292 354 q 289 297 292 328 l 286 271 l 292 271 q 300 297 293 282 q 326 354 313 331 l 521 694 l 708 694 l 708 0 l 514 0 l 514 340 q 517 397 514 367 l 519 424 l 514 424 q 506 397 513 413 q 479 340 497 374 l 285 0 l 97 0 l 97 694 m 201 792 l 201 917 l 604 917 l 604 792 l 201 792 z "},"ӥ":{"ha":806,"x_min":97,"x_max":708,"o":"m 97 694 l 292 694 l 292 354 q 289 297 292 328 l 286 271 l 292 271 q 300 297 293 282 q 326 354 313 331 l 521 694 l 708 694 l 708 0 l 514 0 l 514 340 q 517 397 514 367 l 519 424 l 514 424 q 506 397 513 413 q 479 340 497 374 l 285 0 l 97 0 l 97 694 m 267 792 q 199 821 228 792 q 169 889 169 850 q 199 957 169 928 q 267 986 228 986 q 335 957 306 986 q 364 889 364 928 q 335 821 364 850 q 267 792 306 792 m 538 792 q 469 821 499 792 q 440 889 440 850 q 469 957 440 928 q 538 986 499 986 q 606 957 576 986 q 635 889 635 928 q 606 821 635 850 q 538 792 576 792 z "},"ӧ":{"ha":750,"x_min":56,"x_max":694,"o":"m 375 -14 q 138 76 221 -14 q 56 347 56 167 q 138 618 56 528 q 375 708 221 708 q 612 618 529 708 q 694 347 694 528 q 612 76 694 167 q 375 -14 529 -14 m 375 111 q 500 347 500 111 q 375 583 500 583 q 250 347 250 583 q 375 111 250 111 m 239 792 q 171 821 200 792 q 142 889 142 850 q 171 957 142 928 q 239 986 200 986 q 307 957 278 986 q 336 889 336 928 q 307 821 336 850 q 239 792 278 792 m 510 792 q 442 821 471 792 q 413 889 413 850 q 442 957 413 928 q 510 986 471 986 q 578 957 549 986 q 607 889 607 928 q 578 821 607 850 q 510 792 549 792 z "},"ө":{"ha":750,"x_min":56,"x_max":694,"o":"m 375 708 q 612 618 529 708 q 694 347 694 528 q 612 76 694 167 q 375 -14 529 -14 q 138 76 221 -14 q 56 347 56 167 q 138 618 56 528 q 375 708 221 708 m 375 583 q 253 410 268 583 l 497 410 q 375 583 482 583 m 375 111 q 497 285 482 111 l 253 285 q 375 111 268 111 z "},"ӯ":{"ha":701,"x_min":26,"x_max":688,"o":"m 201 -292 q 93 -271 146 -292 q 49 -250 67 -262 l 97 -132 l 111 -132 q 133 -150 125 -146 q 188 -167 160 -167 q 249 -142 221 -167 q 289 -69 276 -117 l 308 0 l 256 0 l 26 694 l 208 694 l 347 243 q 356 194 353 221 l 358 167 l 364 167 l 367 194 q 375 243 369 221 l 493 694 l 688 694 l 458 -69 q 201 -292 389 -292 m 150 792 l 150 917 l 553 917 l 553 792 l 150 792 z "},"ӱ":{"ha":701,"x_min":26,"x_max":688,"o":"m 201 -292 q 93 -271 146 -292 q 49 -250 67 -262 l 97 -132 l 111 -132 q 133 -150 125 -146 q 188 -167 160 -167 q 249 -142 221 -167 q 289 -69 276 -117 l 308 0 l 256 0 l 26 694 l 208 694 l 347 243 q 356 194 353 221 l 358 167 l 364 167 l 367 194 q 375 243 369 221 l 493 694 l 688 694 l 458 -69 q 201 -292 389 -292 m 215 792 q 147 821 176 792 q 118 889 118 850 q 147 957 118 928 q 215 986 176 986 q 283 957 254 986 q 313 889 313 928 q 283 821 313 850 q 215 792 254 792 m 486 792 q 418 821 447 792 q 389 889 389 850 q 418 957 389 928 q 486 986 447 986 q 554 957 525 986 q 583 889 583 928 q 554 821 583 850 q 486 792 525 792 z "},"ӳ":{"ha":701,"x_min":26,"x_max":688,"o":"m 201 -292 q 93 -271 146 -292 q 49 -250 67 -262 l 97 -132 l 111 -132 q 133 -150 125 -146 q 188 -167 160 -167 q 249 -142 221 -167 q 289 -69 276 -117 l 308 0 l 256 0 l 26 694 l 208 694 l 347 243 q 356 194 353 221 l 358 167 l 364 167 l 367 194 q 375 243 369 221 l 493 694 l 688 694 l 458 -69 q 201 -292 389 -292 m 192 764 l 254 972 l 407 972 l 282 764 l 192 764 m 407 764 l 469 972 l 622 972 l 497 764 l 407 764 z "},"ӵ":{"ha":764,"x_min":69,"x_max":667,"o":"m 472 243 q 440 232 469 242 q 340 222 401 222 q 138 285 206 222 q 69 465 69 349 l 69 694 l 264 694 l 264 465 q 292 377 264 407 q 375 347 321 347 q 447 357 418 347 q 472 368 469 367 l 472 694 l 667 694 l 667 0 l 472 0 l 472 243 m 246 792 q 178 821 207 792 q 149 889 149 850 q 178 957 149 928 q 246 986 207 986 q 314 957 285 986 q 343 889 343 928 q 314 821 343 850 q 246 792 285 792 m 517 792 q 449 821 478 792 q 419 889 419 850 q 449 957 419 928 q 517 986 478 986 q 585 957 556 986 q 614 889 614 928 q 585 821 614 850 q 517 792 556 792 z "},"ӷ":{"ha":597,"x_min":97,"x_max":583,"o":"m 583 569 l 292 569 l 292 125 l 382 125 l 382 -194 l 236 -194 l 208 0 l 97 0 l 97 694 l 583 694 l 583 569 z "},"ӹ":{"ha":1076,"x_min":97,"x_max":979,"o":"m 97 694 l 292 694 l 292 472 l 368 472 q 608 413 535 472 q 681 236 681 354 q 608 59 681 118 q 368 0 535 0 l 97 0 l 97 694 m 785 0 l 785 694 l 979 694 l 979 0 l 785 0 m 368 125 q 456 153 426 125 q 486 236 486 182 q 456 319 486 290 q 368 347 426 347 l 292 347 l 292 125 l 368 125 m 403 792 q 335 821 364 792 q 306 889 306 850 q 335 957 306 928 q 403 986 364 986 q 471 957 442 986 q 500 889 500 928 q 471 821 500 850 q 403 792 442 792 m 674 792 q 606 821 635 792 q 576 889 576 850 q 606 957 576 928 q 674 986 635 986 q 742 957 713 986 q 771 889 771 928 q 742 821 771 850 q 674 792 713 792 z "},"ԛ":{"ha":778,"x_min":56,"x_max":681,"o":"m 486 -222 l 486 28 q 447 7 467 14 q 347 -14 397 -14 q 134 78 213 -14 q 56 347 56 169 q 132 616 56 524 q 333 708 208 708 q 474 660 408 708 q 521 611 501 636 l 528 611 l 542 694 l 681 694 l 681 -278 l 542 -278 l 486 -222 m 382 111 q 457 132 424 111 q 486 153 472 140 l 486 493 q 456 535 469 518 q 368 576 414 576 q 283 522 315 576 q 250 347 250 468 q 285 165 250 219 q 382 111 319 111 z "},"ԝ":{"ha":1001,"x_min":21,"x_max":981,"o":"m 21 694 l 201 694 l 299 313 q 307 264 304 292 l 310 236 l 315 236 l 318 264 q 326 313 321 290 l 435 694 l 568 694 l 675 313 q 683 264 681 292 l 686 236 l 692 236 l 694 264 q 703 313 697 292 l 800 694 l 981 694 l 793 0 l 621 0 l 510 410 q 501 458 504 432 l 499 486 l 493 486 l 490 458 q 482 410 488 432 l 371 0 l 208 0 l 21 694 z "},"Ҥ":{"ha":1146,"x_min":118,"x_max":1132,"o":"m 1132 972 l 1132 847 l 799 847 l 799 0 l 604 0 l 604 431 l 313 431 l 313 0 l 118 0 l 118 972 l 313 972 l 313 556 l 604 556 l 604 972 l 1132 972 z "},"ҥ":{"ha":944,"x_min":97,"x_max":931,"o":"m 931 694 l 931 569 l 708 569 l 708 0 l 514 0 l 514 292 l 292 292 l 292 0 l 97 0 l 97 694 l 292 694 l 292 417 l 514 417 l 514 694 l 931 694 z "},"Ӕ":{"ha":1174,"x_min":-35,"x_max":1139,"o":"m -35 0 l 375 972 l 1139 972 l 1139 847 l 750 847 l 750 569 l 1056 569 l 1056 444 l 750 444 l 750 125 l 1139 125 l 1139 0 l 556 0 l 556 264 l 271 264 l 160 0 l -35 0 m 326 389 l 556 389 l 556 847 l 514 847 l 326 389 z "},"ӕ":{"ha":1132,"x_min":56,"x_max":1076,"o":"m 313 -14 q 123 45 190 -14 q 56 201 56 104 q 131 365 56 306 q 368 424 207 424 l 465 424 l 465 444 q 433 551 465 518 q 333 583 401 583 q 226 556 275 583 q 188 528 207 546 l 174 528 l 111 639 q 176 674 144 661 q 347 708 267 708 q 479 686 428 708 q 569 625 531 664 q 655 685 607 663 q 771 708 703 708 q 995 619 914 708 q 1076 361 1076 531 l 1076 326 l 1035 285 l 660 285 q 826 111 660 111 q 933 139 885 111 q 972 167 953 149 l 986 167 l 1049 56 q 982 21 1010 32 q 813 -14 899 -14 q 658 15 722 -14 q 556 86 593 44 q 457 15 517 44 q 313 -14 397 -14 m 882 410 q 849 538 882 493 q 771 583 817 583 q 692 538 725 583 q 660 410 660 493 l 882 410 m 347 118 q 432 160 390 118 q 465 201 451 179 l 465 299 l 368 299 q 250 201 250 299 q 276 141 250 164 q 347 118 301 118 z "},"¹":{"ha":438,"x_min":28,"x_max":410,"o":"m 49 500 l 49 611 l 146 611 l 146 826 l 76 792 l 28 861 l 160 972 l 313 972 l 313 611 l 410 611 l 410 500 l 49 500 z "},"²":{"ha":493,"x_min":49,"x_max":444,"o":"m 49 583 q 71 667 49 633 q 124 720 93 700 q 201 763 154 740 q 259 794 240 781 q 278 826 278 808 q 262 862 278 849 q 215 875 246 875 q 147 854 186 875 l 117 833 l 103 833 l 53 924 q 106 954 71 938 q 243 986 175 986 q 392 942 340 986 q 444 826 444 897 q 407 738 444 769 q 300 676 369 707 q 235 644 256 658 q 215 611 215 631 l 444 611 l 444 500 l 49 500 l 49 583 z "},"³":{"ha":501,"x_min":49,"x_max":453,"o":"m 239 486 q 101 517 168 486 q 49 549 67 535 l 99 639 l 113 639 q 143 618 125 629 q 211 597 176 597 q 256 610 240 597 q 272 646 272 624 q 256 681 272 668 q 204 694 239 694 l 113 694 l 113 778 l 258 861 l 71 861 l 71 972 l 418 972 l 418 854 l 286 785 q 408 739 364 779 q 453 639 453 699 q 428 565 453 600 q 354 508 403 529 q 239 486 306 486 z "},"⁴":{"ha":542,"x_min":35,"x_max":493,"o":"m 264 500 l 264 583 l 35 583 l 35 694 l 271 972 l 431 972 l 431 694 l 493 694 l 493 583 l 431 583 l 431 500 l 264 500 m 264 694 l 264 785 q 267 811 264 801 l 271 826 l 265 826 l 260 811 q 243 783 256 796 l 167 694 l 264 694 z "},"⁄":{"ha":653,"x_min":-139,"x_max":722,"o":"m -139 0 l 514 972 l 722 972 l 69 0 l -139 0 z "},"½":{"ha":1118,"x_min":35,"x_max":1056,"o":"m 56 500 l 56 611 l 153 611 l 153 826 l 83 792 l 35 861 l 181 972 l 319 972 l 319 611 l 417 611 l 417 500 l 56 500 m 146 0 l 799 972 l 1007 972 l 354 0 l 146 0 m 660 83 q 682 167 660 133 q 735 220 704 200 q 813 263 765 240 q 870 294 851 281 q 889 326 889 308 q 873 362 889 349 q 826 375 857 375 q 758 354 797 375 l 728 333 l 714 333 l 664 424 q 717 454 682 438 q 854 486 786 486 q 1003 442 951 486 q 1056 326 1056 397 q 1018 238 1056 269 q 911 176 981 207 q 847 144 867 158 q 826 111 826 131 l 1056 111 l 1056 0 l 660 0 l 660 83 z "},"¼":{"ha":1097,"x_min":35,"x_max":1049,"o":"m 56 500 l 56 611 l 153 611 l 153 826 l 83 792 l 35 861 l 181 972 l 319 972 l 319 611 l 417 611 l 417 500 l 56 500 m 146 0 l 799 972 l 1007 972 l 354 0 l 146 0 m 819 0 l 819 83 l 590 83 l 590 194 l 826 472 l 986 472 l 986 194 l 1049 194 l 1049 83 l 986 83 l 986 0 l 819 0 m 819 194 l 819 285 q 822 311 819 292 l 826 326 l 821 326 q 815 311 818 315 q 799 283 807 292 l 722 194 l 819 194 z "},"¾":{"ha":1078,"x_min":35,"x_max":1029,"o":"m 225 486 q 88 517 154 486 q 35 549 53 535 l 85 639 l 99 639 q 129 618 111 629 q 197 597 163 597 q 242 610 226 597 q 258 646 258 624 q 242 681 258 668 q 190 694 225 694 l 99 694 l 99 778 l 244 861 l 57 861 l 57 972 l 404 972 l 404 854 l 272 785 q 394 739 350 779 q 439 639 439 699 q 414 565 439 600 q 340 508 389 529 q 225 486 292 486 m 126 0 l 779 972 l 988 972 l 335 0 l 126 0 m 800 0 l 800 83 l 571 83 l 571 194 l 807 472 l 967 472 l 967 194 l 1029 194 l 1029 83 l 967 83 l 967 0 l 800 0 m 800 194 l 800 285 q 803 311 800 292 l 807 326 l 801 326 q 796 311 799 315 q 779 283 788 292 l 703 194 l 800 194 z "},"*":{"ha":611,"x_min":42,"x_max":569,"o":"m 243 458 l 243 607 l 104 528 l 42 639 l 175 715 l 42 792 l 104 903 l 243 822 l 243 972 l 368 972 l 368 822 l 507 903 l 569 792 l 436 715 l 569 639 l 507 528 l 368 607 l 368 458 l 243 458 z "},"\\":{"ha":625,"x_min":0,"x_max":625,"o":"m 431 0 l 0 972 l 194 972 l 625 0 l 431 0 z "},"·":{"ha":417,"x_min":104,"x_max":313,"o":"m 208 382 q 135 413 167 382 q 104 486 104 444 q 135 559 104 528 q 208 590 167 590 q 281 559 250 590 q 313 486 313 528 q 281 413 313 444 q 208 382 250 382 z "},"•":{"ha":597,"x_min":104,"x_max":493,"o":"m 299 236 q 160 292 215 236 q 104 431 104 347 q 160 569 104 514 q 299 625 215 625 q 438 569 382 625 q 493 431 493 514 q 438 292 493 347 q 299 236 382 236 z "},":":{"ha":306,"x_min":49,"x_max":257,"o":"m 153 500 q 80 531 111 500 q 49 604 49 563 q 80 677 49 646 q 153 708 111 708 q 226 677 194 708 q 257 604 257 646 q 226 531 257 563 q 153 500 194 500 m 153 -14 q 80 17 111 -14 q 49 90 49 49 q 80 163 49 132 q 153 194 111 194 q 226 163 194 194 q 257 90 257 132 q 226 17 257 49 q 153 -14 194 -14 z "},",":{"ha":306,"x_min":49,"x_max":257,"o":"m 63 -132 q 107 -99 89 -117 q 153 -14 153 -56 q 80 17 111 -14 q 49 90 49 49 q 78 163 49 132 q 146 194 108 194 q 225 162 193 194 q 257 76 257 129 q 181 -131 257 -49 q 104 -187 143 -168 l 63 -132 z "},"…":{"ha":917,"x_min":49,"x_max":868,"o":"m 153 -14 q 80 17 111 -14 q 49 90 49 49 q 80 163 49 132 q 153 194 111 194 q 226 163 194 194 q 257 90 257 132 q 226 17 257 49 q 153 -14 194 -14 m 458 -14 q 385 17 417 -14 q 354 90 354 49 q 385 163 354 132 q 458 194 417 194 q 531 163 500 194 q 563 90 563 132 q 531 17 563 49 q 458 -14 500 -14 m 764 -14 q 691 17 722 -14 q 660 90 660 49 q 691 163 660 132 q 764 194 722 194 q 837 163 806 194 q 868 90 868 132 q 837 17 868 49 q 764 -14 806 -14 z "},"!":{"ha":403,"x_min":90,"x_max":313,"o":"m 118 278 l 90 972 l 313 972 l 285 278 l 118 278 m 201 -14 q 128 17 160 -14 q 97 90 97 49 q 128 163 97 132 q 201 194 160 194 q 274 163 243 194 q 306 90 306 132 q 274 17 306 49 q 201 -14 243 -14 z "},"¡":{"ha":403,"x_min":90,"x_max":313,"o":"m 201 500 q 128 531 160 500 q 97 604 97 563 q 128 677 97 646 q 201 708 160 708 q 274 677 243 708 q 306 604 306 646 q 274 531 306 563 q 201 500 243 500 m 90 -278 l 118 417 l 285 417 l 313 -278 l 90 -278 z "},"#":{"ha":926,"x_min":21,"x_max":906,"o":"m 86 0 l 149 236 l 21 236 l 21 361 l 183 361 l 246 611 l 100 611 l 100 736 l 274 736 l 336 972 l 517 972 l 454 736 l 593 736 l 656 972 l 836 972 l 774 736 l 906 736 l 906 611 l 746 611 l 683 361 l 826 361 l 826 236 l 649 236 l 586 0 l 406 0 l 468 236 l 329 236 l 267 0 l 86 0 m 364 361 l 503 361 l 565 611 l 426 611 l 364 361 z "},".":{"ha":306,"x_min":49,"x_max":257,"o":"m 153 -14 q 80 17 111 -14 q 49 90 49 49 q 80 163 49 132 q 153 194 111 194 q 226 163 194 194 q 257 90 257 132 q 226 17 257 49 q 153 -14 194 -14 z "},"?":{"ha":681,"x_min":0,"x_max":632,"o":"m 181 319 q 200 422 181 378 q 248 494 219 465 q 322 558 276 522 q 409 642 381 604 q 438 736 438 679 q 394 826 438 792 q 271 861 351 861 q 124 829 190 861 q 76 799 92 811 l 63 799 l 0 910 q 72 947 32 932 q 285 986 163 986 q 544 914 457 986 q 632 722 632 842 q 610 610 632 657 q 556 534 588 564 q 472 467 524 504 q 388 394 414 424 q 361 319 361 364 l 361 278 l 181 278 l 181 319 m 271 -14 q 198 17 229 -14 q 167 90 167 49 q 198 163 167 132 q 271 194 229 194 q 344 163 313 194 q 375 90 375 132 q 344 17 375 49 q 271 -14 313 -14 z "},"¿":{"ha":681,"x_min":49,"x_max":681,"o":"m 410 500 q 337 531 368 500 q 306 604 306 563 q 337 677 306 646 q 410 708 368 708 q 483 677 451 708 q 514 604 514 646 q 483 531 514 563 q 410 500 451 500 m 396 -292 q 136 -219 224 -292 q 49 -28 49 -147 q 71 85 49 38 q 125 161 93 132 q 208 228 157 190 q 292 299 265 268 q 319 375 319 329 l 319 417 l 500 417 l 500 375 q 481 273 500 317 q 433 200 461 229 q 358 135 404 171 q 272 52 300 89 q 243 -42 243 15 q 286 -132 243 -97 q 410 -167 329 -167 q 557 -136 493 -167 q 604 -104 590 -118 l 618 -104 l 681 -215 q 608 -254 650 -237 q 396 -292 521 -292 z "},"\"":{"ha":528,"x_min":49,"x_max":479,"o":"m 83 632 l 49 972 l 236 972 l 201 632 l 83 632 m 326 632 l 292 972 l 479 972 l 444 632 l 326 632 z "},"'":{"ha":285,"x_min":49,"x_max":236,"o":"m 83 632 l 49 972 l 236 972 l 201 632 l 83 632 z "},";":{"ha":306,"x_min":49,"x_max":257,"o":"m 153 500 q 80 531 111 500 q 49 604 49 563 q 80 677 49 646 q 153 708 111 708 q 226 677 194 708 q 257 604 257 646 q 226 531 257 563 q 153 500 194 500 m 63 -132 q 107 -99 89 -117 q 153 -14 153 -56 q 80 17 111 -14 q 49 90 49 49 q 78 163 49 132 q 146 194 108 194 q 225 162 193 194 q 257 76 257 129 q 181 -131 257 -49 q 104 -187 143 -168 l 63 -132 z "},"/":{"ha":625,"x_min":0,"x_max":625,"o":"m 0 0 l 431 972 l 625 972 l 194 0 l 0 0 z "},"_":{"ha":542,"x_min":0,"x_max":542,"o":"m 0 -194 l 0 -56 l 542 -56 l 542 -194 l 0 -194 z "},"{":{"ha":465,"x_min":28,"x_max":451,"o":"m 403 -236 q 199 -181 267 -236 q 132 -28 132 -126 l 132 208 q 109 301 132 275 q 28 326 86 326 l 28 451 q 109 477 86 451 q 132 569 132 503 l 132 806 q 199 958 132 903 q 403 1014 267 1014 l 451 1014 l 451 889 l 403 889 q 349 865 371 889 q 326 806 326 842 l 326 569 q 264 417 326 463 q 201 389 239 396 q 264 361 236 383 q 326 208 326 310 l 326 -28 q 349 -87 326 -64 q 403 -111 371 -111 l 451 -111 l 451 -236 l 403 -236 z "},"}":{"ha":465,"x_min":14,"x_max":438,"o":"m 14 -111 l 63 -111 q 117 -87 94 -111 q 139 -28 139 -64 l 139 208 q 201 361 139 310 q 264 389 229 383 q 201 417 226 396 q 139 569 139 463 l 139 806 q 117 865 139 842 q 63 889 94 889 l 14 889 l 14 1014 l 63 1014 q 266 958 199 1014 q 333 806 333 903 l 333 569 q 356 477 333 503 q 438 451 379 451 l 438 326 q 356 301 379 326 q 333 208 333 275 l 333 -28 q 266 -181 333 -126 q 63 -236 199 -236 l 14 -236 l 14 -111 z "},"[":{"ha":465,"x_min":118,"x_max":451,"o":"m 118 -236 l 118 1014 l 451 1014 l 451 889 l 313 889 l 313 -111 l 451 -111 l 451 -236 l 118 -236 z "},"]":{"ha":465,"x_min":14,"x_max":347,"o":"m 14 -236 l 14 -111 l 153 -111 l 153 889 l 14 889 l 14 1014 l 347 1014 l 347 -236 l 14 -236 z "},"(":{"ha":444,"x_min":76,"x_max":444,"o":"m 368 -257 q 156 25 235 -146 q 76 389 76 196 q 156 753 76 582 q 368 1035 235 924 l 444 958 q 315 708 358 844 q 271 389 271 571 q 315 70 271 207 q 444 -181 358 -67 l 368 -257 z "},")":{"ha":444,"x_min":0,"x_max":368,"o":"m 0 -181 q 130 70 86 -67 q 174 389 174 207 q 130 708 174 571 q 0 958 86 844 l 76 1035 q 289 753 210 924 q 368 389 368 582 q 289 25 368 196 q 76 -257 210 -146 l 0 -181 z "},"—":{"ha":1028,"x_min":42,"x_max":986,"o":"m 42 333 l 42 472 l 986 472 l 986 333 l 42 333 z "},"–":{"ha":736,"x_min":42,"x_max":694,"o":"m 42 333 l 42 472 l 694 472 l 694 333 l 42 333 z "},"-":{"ha":625,"x_min":42,"x_max":583,"o":"m 42 389 l 42 528 l 583 528 l 583 389 l 42 389 z "},"­":{"ha":639,"x_min":49,"x_max":590,"o":"m 49 389 l 49 528 l 590 528 l 590 389 l 49 389 z "},"«":{"ha":722,"x_min":14,"x_max":694,"o":"m 326 -7 l 14 347 l 326 701 l 439 597 l 222 347 l 439 97 l 326 -7 m 583 56 l 326 347 l 583 639 l 694 535 l 535 347 l 694 160 l 583 56 z "},"»":{"ha":722,"x_min":28,"x_max":708,"o":"m 396 -7 l 283 97 l 500 347 l 283 597 l 396 701 l 708 347 l 396 -7 m 139 56 l 28 160 l 188 347 l 28 535 l 139 639 l 396 347 l 139 56 z "},"‹":{"ha":472,"x_min":0,"x_max":472,"o":"m 264 69 l 0 361 l 264 653 l 472 653 l 208 361 l 472 69 l 264 69 z "},"›":{"ha":472,"x_min":0,"x_max":472,"o":"m 0 69 l 264 361 l 0 653 l 208 653 l 472 361 l 208 69 l 0 69 z "},"„":{"ha":569,"x_min":49,"x_max":521,"o":"m 63 -132 q 107 -99 89 -117 q 153 -14 153 -56 q 80 17 111 -14 q 49 90 49 49 q 78 163 49 132 q 146 194 108 194 q 225 162 193 194 q 257 76 257 129 q 181 -131 257 -49 q 104 -187 143 -168 l 63 -132 m 326 -132 q 371 -99 353 -117 q 417 -14 417 -56 q 344 17 375 -14 q 313 90 313 49 q 342 163 313 132 q 410 194 372 194 q 489 162 457 194 q 521 76 521 129 q 444 -131 521 -49 q 368 -187 407 -168 l 326 -132 z "},"“":{"ha":569,"x_min":49,"x_max":521,"o":"m 160 604 q 81 637 113 604 q 49 722 49 669 q 125 929 49 850 q 201 986 160 967 l 243 931 q 197 897 215 915 q 153 813 153 856 q 226 781 194 813 q 257 708 257 750 q 227 635 257 667 q 160 604 197 604 m 424 604 q 344 637 376 604 q 313 722 313 669 q 389 929 313 850 q 465 986 424 967 l 507 931 q 461 897 479 915 q 417 813 417 856 q 490 781 458 813 q 521 708 521 750 q 491 635 521 667 q 424 604 461 604 z "},"”":{"ha":569,"x_min":49,"x_max":521,"o":"m 63 660 q 107 693 89 675 q 153 778 153 736 q 80 809 111 778 q 49 882 49 840 q 78 955 49 924 q 146 986 108 986 q 225 953 193 986 q 257 868 257 921 q 181 661 257 743 q 104 604 143 624 l 63 660 m 326 660 q 371 693 353 675 q 417 778 417 736 q 344 809 375 778 q 313 882 313 840 q 342 955 313 924 q 410 986 372 986 q 489 953 457 986 q 521 868 521 921 q 444 661 521 743 q 368 604 407 624 l 326 660 z "},"‘":{"ha":306,"x_min":49,"x_max":257,"o":"m 160 604 q 81 637 113 604 q 49 722 49 669 q 125 929 49 850 q 201 986 160 967 l 243 931 q 197 897 215 915 q 153 813 153 856 q 226 781 194 813 q 257 708 257 750 q 227 635 257 667 q 160 604 197 604 z "},"’":{"ha":306,"x_min":49,"x_max":257,"o":"m 63 660 q 107 693 89 675 q 153 778 153 736 q 80 809 111 778 q 49 882 49 840 q 78 955 49 924 q 146 986 108 986 q 225 953 193 986 q 257 868 257 921 q 181 661 257 743 q 104 604 143 624 l 63 660 z "},"‚":{"ha":306,"x_min":49,"x_max":257,"o":"m 63 -132 q 107 -99 89 -117 q 153 -14 153 -56 q 80 17 111 -14 q 49 90 49 49 q 78 163 49 132 q 146 194 108 194 q 225 162 193 194 q 257 76 257 129 q 181 -131 257 -49 q 104 -187 143 -168 l 63 -132 z "}," ":{"ha":417,"x_min":0,"x_max":0,"o":""},"¢":{"ha":660,"x_min":56,"x_max":632,"o":"m 285 0 q 112 112 168 26 q 56 347 56 197 q 285 694 56 640 l 285 778 l 465 778 l 465 701 q 575 663 524 686 q 618 639 599 651 l 556 528 l 542 528 q 503 556 522 546 q 396 583 454 583 q 288 530 325 583 q 250 347 250 476 q 289 164 250 217 q 410 111 328 111 q 517 139 468 111 q 556 167 536 149 l 569 167 l 632 56 q 585 29 611 43 q 465 -8 531 1 l 465 -97 l 285 -97 l 285 0 z "},"¤":{"ha":833,"x_min":28,"x_max":778,"o":"m 125 215 l 28 215 l 28 319 l 125 319 l 125 382 l 28 382 l 28 486 l 125 486 l 125 972 l 403 972 q 682 890 586 972 q 778 667 778 807 q 685 457 778 532 q 403 382 593 382 l 319 382 l 319 319 l 653 319 l 653 215 l 319 215 l 319 0 l 125 0 l 125 215 m 403 486 q 583 667 583 486 q 403 847 583 847 l 319 847 l 319 486 l 403 486 z "},"$":{"ha":743,"x_min":49,"x_max":694,"o":"m 271 -7 q 103 33 182 1 q 49 63 72 47 l 111 174 l 125 174 q 175 142 143 158 q 333 111 242 111 q 458 149 415 111 q 500 250 500 186 q 476 320 500 290 q 417 372 453 350 q 318 422 381 393 q 182 495 235 461 q 92 585 129 529 q 56 722 56 640 q 112 879 56 811 q 271 972 168 947 l 271 1069 l 458 1069 l 458 979 q 614 939 540 971 q 667 910 640 926 l 604 799 l 590 799 q 543 829 575 811 q 396 861 476 861 q 292 823 335 861 q 250 736 250 785 q 274 666 250 696 q 333 615 297 636 q 432 564 369 593 q 568 491 515 525 q 658 401 621 457 q 694 264 694 346 q 634 94 694 163 q 458 0 574 26 l 458 -97 l 271 -97 l 271 -7 z "},"€":{"ha":785,"x_min":14,"x_max":757,"o":"m 500 -14 q 118 347 165 -14 l 14 347 l 35 451 l 111 451 l 111 521 l 21 521 l 42 625 l 118 625 q 238 899 142 811 q 486 986 335 986 q 675 947 592 986 q 743 910 713 932 l 681 799 l 667 799 q 622 829 651 813 q 500 861 561 861 q 313 625 342 861 l 604 625 l 583 521 l 306 521 l 306 451 l 583 451 l 563 347 l 313 347 q 379 165 328 218 q 514 111 431 111 q 636 142 578 111 q 681 174 667 160 l 694 174 l 757 63 q 689 24 729 40 q 500 -14 608 -14 z "},"ƒ":{"ha":593,"x_min":-139,"x_max":669,"o":"m 10 -278 q -96 -257 -46 -278 q -139 -236 -122 -247 l -81 -118 l -67 -118 q -46 -136 -57 -131 q 7 -153 -25 -153 q 107 -42 97 -153 l 160 569 l 83 569 l 94 694 l 171 694 l 176 750 q 264 922 188 857 q 468 986 340 986 q 610 951 532 986 q 669 917 639 938 l 597 806 l 583 806 q 550 833 567 822 q 471 861 513 861 q 403 831 432 861 q 371 750 375 801 l 365 694 l 539 694 l 528 569 l 354 569 l 301 -42 q 215 -213 292 -149 q 10 -278 138 -278 z "},"₴":{"ha":760,"x_min":21,"x_max":739,"o":"m 553 521 q 483 476 517 496 l 457 460 l 443 451 l 739 451 l 739 347 l 307 347 q 258 222 258 293 q 299 135 258 165 q 401 106 339 106 q 520 123 458 106 q 633 174 582 140 l 647 174 l 710 63 q 385 -14 549 -14 q 144 47 238 -14 q 50 222 50 108 q 93 347 50 292 l 21 347 l 21 451 l 213 451 q 329 521 251 476 l 21 521 l 21 625 l 482 625 q 522 736 522 671 q 488 829 522 797 q 376 861 454 861 q 250 842 304 861 q 168 799 196 824 l 154 799 l 92 910 q 404 986 207 986 q 637 929 557 986 q 717 750 717 872 q 674 625 717 683 l 739 625 l 739 521 l 553 521 z "},"₽":{"ha":813,"x_min":14,"x_max":785,"o":"m 326 319 l 326 264 l 458 264 l 458 139 l 326 139 l 326 0 l 132 0 l 132 139 l 14 139 l 14 264 l 132 264 l 132 319 l 14 319 l 14 444 l 132 444 l 132 972 l 410 972 q 695 892 606 972 q 785 646 785 811 q 695 400 785 481 q 410 319 606 319 l 326 319 m 326 444 l 410 444 q 548 491 506 444 q 590 646 590 538 q 548 801 590 754 q 410 847 506 847 l 326 847 l 326 444 z "},"£":{"ha":701,"x_min":49,"x_max":688,"o":"m 49 125 q 100 172 81 147 q 153 333 153 239 l 153 444 l 76 444 l 76 569 l 153 569 l 153 750 q 186 871 153 817 q 281 956 219 925 q 424 986 342 986 q 600 947 519 986 q 667 910 638 931 l 604 799 l 590 799 q 547 829 578 810 q 438 861 492 861 q 372 832 396 861 q 347 750 347 803 l 347 569 l 521 569 l 521 444 l 347 444 l 347 333 q 294 172 347 239 q 243 125 275 147 l 688 125 l 688 0 l 49 0 l 49 125 z "},"₸":{"ha":708,"x_min":14,"x_max":694,"o":"m 14 868 l 14 972 l 694 972 l 694 868 l 14 868 m 257 0 l 257 674 l 14 674 l 14 799 l 694 799 l 694 674 l 451 674 l 451 0 l 257 0 z "},"₮":{"ha":708,"x_min":14,"x_max":694,"o":"m 694 847 l 451 847 l 451 608 l 629 653 l 629 549 l 451 504 l 451 435 l 629 479 l 629 375 l 451 331 l 451 0 l 257 0 l 257 281 l 81 236 l 81 340 l 257 385 l 257 454 l 81 410 l 81 514 l 257 558 l 257 847 l 14 847 l 14 972 l 694 972 l 694 847 z "},"¥":{"ha":792,"x_min":0,"x_max":792,"o":"m 299 236 l 104 236 l 104 354 l 278 354 l 250 417 l 104 417 l 104 535 l 201 535 l 0 972 l 201 972 l 375 563 l 389 521 l 393 500 l 399 500 l 403 521 q 408 540 404 526 q 417 563 413 553 l 590 972 l 792 972 l 590 535 l 688 535 l 688 417 l 542 417 l 514 354 l 688 354 l 688 236 l 493 236 l 493 0 l 299 0 l 299 236 z "},"∕":{"ha":625,"x_min":0,"x_max":625,"o":"m 0 0 l 431 972 l 625 972 l 194 0 l 0 0 z "},"+":{"ha":681,"x_min":42,"x_max":639,"o":"m 271 160 l 271 389 l 42 389 l 42 528 l 271 528 l 271 757 l 410 757 l 410 528 l 639 528 l 639 389 l 410 389 l 410 160 l 271 160 z "},"×":{"ha":611,"x_min":49,"x_max":563,"o":"m 146 201 l 49 299 l 208 458 l 49 618 l 146 715 l 306 556 l 465 715 l 563 618 l 403 458 l 563 299 l 465 201 l 306 361 l 146 201 z "},"÷":{"ha":653,"x_min":42,"x_max":611,"o":"m 326 597 q 253 628 285 597 q 222 701 222 660 q 253 774 222 743 q 326 806 285 806 q 399 774 368 806 q 431 701 431 743 q 399 628 431 660 q 326 597 368 597 m 42 389 l 42 528 l 611 528 l 611 389 l 42 389 m 326 111 q 253 142 285 111 q 222 215 222 174 q 253 288 222 257 q 326 319 285 319 q 399 288 368 319 q 431 215 431 257 q 399 142 431 174 q 326 111 368 111 z "},"=":{"ha":708,"x_min":49,"x_max":660,"o":"m 49 522 l 49 661 l 660 661 l 660 522 l 49 522 m 49 257 l 49 396 l 660 396 l 660 257 l 49 257 z "},">":{"ha":632,"x_min":49,"x_max":604,"o":"m 49 0 l 49 167 l 396 347 l 49 528 l 49 694 l 604 403 l 604 292 l 49 0 z "},"<":{"ha":632,"x_min":28,"x_max":583,"o":"m 583 0 l 28 292 l 28 403 l 583 694 l 583 528 l 236 347 l 583 167 l 583 0 z "},"±":{"ha":694,"x_min":49,"x_max":646,"o":"m 49 104 l 49 243 l 278 243 l 278 417 l 49 417 l 49 556 l 278 556 l 278 785 l 417 785 l 417 556 l 646 556 l 646 417 l 417 417 l 417 243 l 646 243 l 646 104 l 49 104 z "},"~":{"ha":692,"x_min":28,"x_max":664,"o":"m 478 313 q 399 327 431 313 q 329 369 367 342 q 283 400 301 390 q 242 410 265 410 q 195 391 217 410 q 161 353 174 372 q 146 326 149 333 l 133 326 l 28 417 q 102 528 49 479 q 214 576 156 576 q 293 562 261 576 q 363 519 325 547 q 408 489 390 499 q 450 479 426 479 q 497 498 475 479 q 531 536 518 517 q 546 563 543 556 l 558 563 l 664 472 q 588 360 640 408 q 478 313 536 313 z "},"¬":{"ha":694,"x_min":49,"x_max":646,"o":"m 493 319 l 493 444 l 49 444 l 49 583 l 646 583 l 646 319 l 493 319 z "},"µ":{"ha":806,"x_min":97,"x_max":708,"o":"m 97 694 l 292 694 l 292 250 q 319 151 292 185 q 396 118 347 118 q 483 160 442 118 q 514 201 497 176 l 514 694 l 708 694 l 708 0 l 569 0 l 556 83 l 549 83 q 510 35 535 57 q 389 -14 461 -14 q 319 7 350 -14 q 292 28 303 17 l 292 -222 l 236 -278 l 97 -278 l 97 694 z "},"%":{"ha":1181,"x_min":28,"x_max":1153,"o":"m 271 486 q 147 519 203 486 q 60 608 92 551 q 28 736 28 665 q 60 864 28 807 q 147 953 92 921 q 271 986 203 986 q 394 953 339 986 q 482 864 450 921 q 514 736 514 807 q 482 608 514 665 q 394 519 450 551 q 271 486 339 486 m 160 0 l 813 972 l 1021 972 l 368 0 l 160 0 m 271 597 q 326 631 304 597 q 347 736 347 664 q 326 842 347 808 q 271 875 304 875 q 194 736 194 875 q 271 597 194 597 m 910 -14 q 786 19 842 -14 q 699 108 731 51 q 667 236 667 165 q 699 364 667 307 q 786 453 731 421 q 910 486 842 486 q 1033 453 978 486 q 1121 364 1089 421 q 1153 236 1153 307 q 1121 108 1153 165 q 1033 19 1089 51 q 910 -14 978 -14 m 910 97 q 965 131 943 97 q 986 236 986 164 q 965 342 986 308 q 910 375 943 375 q 833 236 833 375 q 910 97 833 97 z "},"‰":{"ha":1667,"x_min":28,"x_max":1639,"o":"m 271 486 q 147 519 203 486 q 60 608 92 551 q 28 736 28 665 q 60 864 28 807 q 147 953 92 921 q 271 986 203 986 q 394 953 339 986 q 482 864 450 921 q 514 736 514 807 q 482 608 514 665 q 394 519 450 551 q 271 486 339 486 m 160 0 l 813 972 l 1021 972 l 368 0 l 160 0 m 271 597 q 326 631 304 597 q 347 736 347 664 q 326 842 347 808 q 271 875 304 875 q 194 736 194 875 q 271 597 194 597 m 882 -14 q 758 19 814 -14 q 671 108 703 51 q 639 236 639 165 q 671 364 639 307 q 758 453 703 421 q 882 486 814 486 q 1006 453 950 486 q 1093 364 1061 421 q 1125 236 1125 307 q 1093 108 1125 165 q 1006 19 1061 51 q 882 -14 950 -14 m 1396 -14 q 1272 19 1328 -14 q 1185 108 1217 51 q 1153 236 1153 165 q 1185 364 1153 307 q 1272 453 1217 421 q 1396 486 1328 486 q 1519 453 1464 486 q 1607 364 1575 421 q 1639 236 1639 307 q 1607 108 1639 165 q 1519 19 1575 51 q 1396 -14 1464 -14 m 882 97 q 937 131 915 97 q 958 236 958 164 q 937 342 958 308 q 882 375 915 375 q 806 236 806 375 q 882 97 806 97 m 1396 97 q 1451 131 1429 97 q 1472 236 1472 164 q 1451 342 1472 308 q 1396 375 1429 375 q 1319 236 1319 375 q 1396 97 1319 97 z "},"":{"ha":1757,"x_min":14,"x_max":1743,"o":"m 14 361 l 243 590 l 243 361 l 14 361 m 403 354 q 320 390 356 354 q 285 472 285 425 q 320 555 285 519 q 403 590 356 590 q 485 555 450 590 q 521 472 521 519 q 485 390 521 425 q 403 354 450 354 m 708 361 l 833 590 l 958 361 l 708 361 m 646 354 l 521 583 l 771 583 l 646 354 m 1201 389 l 1007 583 l 1201 583 l 1201 389 m 1474 389 l 1279 583 l 1474 583 l 1474 389 m 1618 354 l 1493 583 l 1743 583 l 1618 354 m 979 361 l 979 556 l 1174 361 l 979 361 m 1251 361 l 1251 556 l 1446 361 l 1251 361 z "},"@":{"ha":1333,"x_min":56,"x_max":1278,"o":"m 653 -167 q 344 -91 481 -167 q 132 118 208 -15 q 56 417 56 251 q 133 715 56 582 q 350 924 211 849 q 667 1000 489 1000 q 983 924 844 1000 q 1200 715 1122 849 q 1278 417 1278 582 q 1240 234 1278 311 q 1134 117 1201 157 q 979 76 1067 76 q 842 114 894 76 q 799 153 817 131 l 792 153 q 753 114 779 133 q 625 76 706 76 q 440 163 511 76 q 368 410 368 249 q 440 657 368 571 q 625 743 511 743 q 747 704 693 743 q 792 667 774 686 l 799 667 l 813 729 l 938 729 l 938 215 q 946 209 942 211 q 953 204 950 207 q 993 194 968 194 q 1078 247 1046 194 q 1111 417 1111 300 q 1052 651 1111 546 q 892 815 993 756 q 667 875 790 875 q 442 815 543 875 q 281 651 340 756 q 222 417 222 546 q 281 183 222 288 q 442 18 340 78 q 667 -42 543 -42 q 835 -11 760 -42 q 889 21 869 6 l 903 21 l 965 -90 q 888 -129 936 -111 q 653 -167 790 -167 m 660 201 q 732 218 703 201 q 757 236 744 224 l 757 556 q 729 586 749 567 q 660 618 692 618 q 549 410 549 618 q 581 250 549 299 q 660 201 613 201 z "},"&":{"ha":896,"x_min":28,"x_max":889,"o":"m 347 -14 q 177 21 250 -14 q 66 116 104 56 q 28 250 28 176 q 132 457 28 364 q 236 528 178 499 q 174 593 203 556 q 111 764 111 678 q 143 877 111 826 q 236 957 175 928 q 382 986 297 986 q 522 958 463 986 q 614 882 582 929 q 646 778 646 835 q 551 592 646 678 q 457 521 511 553 l 632 313 l 635 353 q 639 444 639 424 l 819 444 q 798 300 819 361 q 736 188 776 239 l 889 0 l 667 0 l 611 69 q 539 28 582 49 q 347 -14 447 -14 m 368 625 q 410 669 390 643 q 451 778 451 725 q 431 843 451 818 q 382 868 410 868 q 327 842 349 868 q 306 764 306 815 q 336 671 306 724 q 368 625 356 640 m 375 111 q 494 135 444 111 q 535 160 519 146 l 319 417 q 271 372 292 397 q 222 250 222 318 q 265 151 222 190 q 375 111 308 111 z "},"¶":{"ha":806,"x_min":14,"x_max":792,"o":"m 306 347 q 156 386 222 347 q 52 496 90 425 q 14 660 14 567 q 52 824 14 753 q 156 933 90 894 q 306 972 222 972 l 792 972 l 792 847 l 708 847 l 708 -278 l 542 -278 l 542 847 l 472 847 l 472 -278 l 306 -278 l 306 347 z "},"§":{"ha":750,"x_min":56,"x_max":694,"o":"m 347 -292 q 158 -253 249 -292 q 83 -214 114 -235 l 146 -103 l 160 -103 q 207 -135 178 -119 q 333 -167 268 -167 q 448 -136 410 -167 q 486 -56 486 -106 q 464 3 486 -22 q 408 44 442 28 q 315 86 375 61 q 181 151 233 121 q 92 232 129 181 q 56 361 56 283 q 114 519 56 456 q 174 563 139 546 q 121 603 144 578 q 69 736 69 657 q 149 917 69 849 q 375 986 228 986 q 571 947 481 986 q 646 910 613 931 l 583 799 l 569 799 q 521 829 546 815 q 389 861 454 861 q 298 830 332 861 q 264 750 264 799 q 306 672 264 701 q 435 607 347 643 q 569 543 518 572 q 658 463 621 514 q 694 333 694 411 q 635 175 694 240 q 576 132 607 146 q 628 92 606 117 q 681 -42 681 36 q 597 -224 681 -156 q 347 -292 513 -292 m 431 215 q 468 235 454 222 q 507 326 507 264 q 413 447 507 396 q 319 486 365 474 q 281 467 296 479 q 243 375 243 439 q 336 253 243 303 q 431 215 376 231 z "},"©":{"ha":1264,"x_min":56,"x_max":1208,"o":"m 632 -56 q 337 17 468 -56 q 131 213 206 89 q 56 486 56 338 q 131 759 56 635 q 337 956 206 883 q 632 1028 468 1028 q 927 956 796 1028 q 1133 759 1058 883 q 1208 486 1208 635 q 1133 213 1208 338 q 927 17 1058 89 q 632 -56 796 -56 m 632 69 q 842 123 749 69 q 989 272 936 176 q 1042 486 1042 367 q 989 701 1042 606 q 842 849 936 796 q 632 903 749 903 q 422 849 515 903 q 275 701 328 796 q 222 486 222 606 q 275 272 222 367 q 422 123 328 176 q 632 69 515 69 m 660 174 q 508 211 574 174 q 405 319 442 249 q 368 486 368 390 q 404 652 368 582 q 503 760 440 722 q 646 799 565 799 q 796 764 718 799 q 854 729 825 751 l 799 639 l 786 639 q 749 663 761 656 q 660 688 701 688 q 572 635 608 688 q 535 486 535 583 q 574 335 535 386 q 674 285 613 285 q 763 308 718 285 q 800 333 782 319 l 813 333 l 868 243 q 810 208 839 221 q 660 174 738 174 z "},"®":{"ha":1264,"x_min":56,"x_max":1208,"o":"m 632 -56 q 337 17 468 -56 q 131 213 206 89 q 56 486 56 338 q 131 759 56 635 q 337 956 206 883 q 632 1028 468 1028 q 927 956 796 1028 q 1133 759 1058 883 q 1208 486 1208 635 q 1133 213 1208 338 q 927 17 1058 89 q 632 -56 796 -56 m 632 69 q 842 123 749 69 q 989 272 936 176 q 1042 486 1042 367 q 989 701 1042 606 q 842 849 936 796 q 632 903 749 903 q 422 849 515 903 q 275 701 328 796 q 222 486 222 606 q 275 272 222 367 q 422 123 328 176 q 632 69 515 69 m 403 785 l 625 785 q 823 731 757 785 q 889 583 889 676 q 857 472 889 515 q 778 410 825 428 l 910 188 l 729 188 l 624 382 l 569 382 l 569 188 l 403 188 l 403 785 m 625 493 q 725 583 725 493 q 625 674 725 674 l 569 674 l 569 493 l 625 493 z "},"™":{"ha":1243,"x_min":14,"x_max":1188,"o":"m 167 444 l 167 861 l 14 861 l 14 972 l 486 972 l 486 861 l 333 861 l 333 444 l 167 444 m 535 972 l 701 972 l 839 736 q 848 714 844 724 q 854 697 851 704 l 858 681 l 864 681 l 868 697 q 873 715 869 703 q 883 736 876 726 l 1021 972 l 1188 972 l 1188 444 l 1021 444 l 1021 646 q 1022 700 1021 683 l 1025 729 l 1018 729 q 1010 700 1017 715 q 986 646 999 668 l 917 528 l 806 528 l 736 646 q 713 700 724 668 q 704 729 707 715 l 697 729 q 699 700 697 710 q 701 646 701 667 l 701 444 l 535 444 l 535 972 z "},"°":{"ha":611,"x_min":49,"x_max":563,"o":"m 306 514 q 117 579 186 514 q 49 750 49 644 q 117 921 49 856 q 306 986 186 986 q 494 921 425 986 q 563 750 563 856 q 494 579 563 644 q 306 514 425 514 m 306 625 q 376 658 349 625 q 403 750 403 690 q 376 843 403 811 q 306 875 349 875 q 235 843 263 875 q 208 750 208 811 q 235 658 208 690 q 306 625 263 625 z "},"|":{"ha":431,"x_min":118,"x_max":313,"o":"m 118 -278 l 118 972 l 313 972 l 313 -278 l 118 -278 z "},"¦":{"ha":431,"x_min":118,"x_max":313,"o":"m 118 431 l 118 972 l 313 972 l 313 431 l 118 431 m 118 -278 l 118 264 l 313 264 l 313 -278 l 118 -278 z "},"†":{"ha":639,"x_min":28,"x_max":611,"o":"m 222 -278 l 222 542 l 28 542 l 28 667 l 222 667 l 222 972 l 417 972 l 417 667 l 611 667 l 611 542 l 417 542 l 417 -278 l 222 -278 z "},"‡":{"ha":639,"x_min":28,"x_max":611,"o":"m 222 -278 l 222 14 l 28 14 l 28 139 l 222 139 l 222 556 l 28 556 l 28 681 l 222 681 l 222 972 l 417 972 l 417 681 l 611 681 l 611 556 l 417 556 l 417 139 l 611 139 l 611 14 l 417 14 l 417 -278 l 222 -278 z "},"№":{"ha":1389,"x_min":118,"x_max":1361,"o":"m 1118 486 q 994 519 1050 486 q 907 608 939 551 q 875 736 875 665 q 907 864 875 807 q 994 953 939 921 q 1118 986 1050 986 q 1242 953 1186 986 q 1329 864 1297 921 q 1361 736 1361 807 q 1329 608 1361 665 q 1242 519 1297 551 q 1118 486 1186 486 m 118 972 l 326 972 l 569 431 q 585 394 579 410 q 594 369 590 379 l 606 340 l 611 340 l 607 369 q 604 431 604 403 l 604 972 l 799 972 l 799 0 l 590 0 l 347 542 q 322 603 339 560 l 311 632 l 306 632 l 308 603 q 313 542 313 549 l 313 0 l 118 0 l 118 972 m 1118 597 q 1173 631 1151 597 q 1194 736 1194 664 q 1173 842 1194 808 q 1118 875 1151 875 q 1042 736 1042 875 q 1118 597 1042 597 m 910 292 l 910 417 l 1326 417 l 1326 292 l 910 292 z "},"^":{"ha":653,"x_min":0,"x_max":653,"o":"m 0 611 l 257 1000 l 396 1000 l 653 611 l 472 611 l 326 833 l 181 611 l 0 611 z "},"̈":{"ha":0,"x_min":-479,"x_max":-14,"o":"m -382 792 q -450 821 -421 792 q -479 889 -479 850 q -450 957 -479 928 q -382 986 -421 986 q -314 957 -343 986 q -285 889 -285 928 q -314 821 -285 850 q -382 792 -343 792 m -111 792 q -179 821 -150 792 q -208 889 -208 850 q -179 957 -208 928 q -111 986 -150 986 q -43 957 -72 986 q -14 889 -14 928 q -43 821 -14 850 q -111 792 -72 792 z "},"̇":{"ha":0,"x_min":-222,"x_max":-14,"o":"m -118 778 q -191 809 -160 778 q -222 882 -222 840 q -191 955 -222 924 q -118 986 -160 986 q -45 955 -76 986 q -14 882 -14 924 q -45 809 -14 840 q -118 778 -76 778 z "},"̀":{"ha":0,"x_min":-264,"x_max":-14,"o":"m -125 764 l -264 972 l -76 972 l -14 764 l -125 764 z "},"́":{"ha":0,"x_min":-264,"x_max":-14,"o":"m -264 764 l -201 972 l -14 972 l -153 764 l -264 764 z "},"̋":{"ha":0,"x_min":-444,"x_max":-14,"o":"m -444 764 l -382 972 l -229 972 l -354 764 l -444 764 m -229 764 l -167 972 l -14 972 l -139 764 l -229 764 z "},"̂":{"ha":0,"x_min":-458,"x_max":-14,"o":"m -458 778 l -306 964 l -167 964 l -14 778 l -146 778 l -236 875 l -326 778 l -458 778 z "},"̌":{"ha":0,"x_min":-458,"x_max":-14,"o":"m -306 786 l -458 972 l -326 972 l -236 875 l -146 972 l -14 972 l -167 786 l -306 786 z "},"̆":{"ha":0,"x_min":-458,"x_max":-14,"o":"m -236 778 q -404 827 -350 778 q -458 972 -458 876 l -306 972 q -236 875 -306 875 q -167 972 -167 875 l -14 972 q -68 827 -14 876 q -236 778 -122 778 z "},"̊":{"ha":0,"x_min":-319,"x_max":-14,"o":"m -167 757 q -276 799 -233 757 q -319 903 -319 840 q -276 1007 -319 965 q -167 1049 -233 1049 q -57 1007 -100 1049 q -14 903 -14 965 q -57 799 -14 840 q -167 757 -100 757 m -167 847 q -132 863 -146 847 q -118 903 -118 878 q -132 943 -118 928 q -167 958 -146 958 q -201 943 -187 958 q -215 903 -215 928 q -201 863 -215 878 q -167 847 -187 847 z "},"̃":{"ha":0,"x_min":-444,"x_max":-14,"o":"m -14 951 q -57 854 -19 896 q -146 813 -94 813 q -193 822 -174 813 q -240 849 -212 831 q -272 869 -260 863 q -299 875 -283 875 q -326 863 -314 875 q -346 837 -339 850 q -354 819 -353 824 l -367 819 l -444 861 q -401 958 -439 917 q -312 1000 -364 1000 q -265 991 -285 1000 q -218 964 -246 982 q -187 944 -199 950 q -160 938 -175 938 q -132 949 -144 938 q -111 976 -119 961 q -104 993 -103 992 l -92 993 l -14 951 z "},"̄":{"ha":0,"x_min":-417,"x_max":-14,"o":"m -417 792 l -417 917 l -14 917 l -14 792 l -417 792 z "},"̦":{"ha":0,"x_min":-194,"x_max":-14,"o":"m -174 -300 q -136 -267 -153 -286 q -97 -187 -97 -228 q -167 -163 -140 -187 q -194 -104 -194 -139 q -169 -40 -194 -67 q -111 -14 -144 -14 q -40 -42 -67 -14 q -14 -118 -14 -69 q -74 -293 -14 -217 q -132 -347 -99 -326 l -174 -300 z "},"̧":{"ha":0,"x_min":-285,"x_max":-14,"o":"m -167 -271 q -251 -257 -210 -271 q -285 -243 -274 -250 l -256 -174 l -243 -174 q -233 -180 -242 -175 q -210 -190 -225 -185 q -181 -194 -196 -194 q -145 -184 -158 -194 q -132 -153 -132 -174 q -145 -122 -132 -133 q -181 -111 -158 -111 l -250 -111 l -250 28 l -146 28 l -146 -35 q -51 -69 -89 -35 q -14 -153 -14 -104 q -55 -237 -14 -203 q -167 -271 -96 -271 z "},"̨":{"ha":0,"x_min":-278,"x_max":-14,"o":"m -125 -257 q -240 -224 -203 -257 q -278 -132 -278 -192 q -239 -37 -278 -82 q -200 0 -221 -15 l -56 0 q -104 -32 -82 -14 q -153 -111 -153 -71 q -137 -146 -153 -132 q -97 -160 -122 -160 q -62 -153 -79 -160 q -37 -139 -46 -146 q -26 -129 -28 -132 l -14 -129 l -14 -222 q -43 -240 -29 -235 q -125 -257 -79 -257 z "},"̵":{"ha":0,"x_min":-583,"x_max":-139,"o":"m -583 403 l -583 528 l -139 528 l -139 403 l -583 403 z "},"ʼ":{"ha":153,"x_min":-28,"x_max":153,"o":"m -7 769 q 31 803 14 783 q 69 882 69 842 q -1 906 26 882 q -28 965 -28 931 q -3 1029 -28 1003 q 56 1056 22 1056 q 126 1028 100 1056 q 153 951 153 1000 q 93 776 153 853 q 35 722 68 743 l -7 769 z "},"´":{"ha":278,"x_min":14,"x_max":264,"o":"m 14 764 l 76 972 l 264 972 l 125 764 l 14 764 z "},"˘":{"ha":472,"x_min":14,"x_max":458,"o":"m 236 778 q 68 827 122 778 q 14 972 14 876 l 167 972 q 236 875 167 875 q 306 972 306 875 l 458 972 q 404 827 458 876 q 236 778 350 778 z "},"ˇ":{"ha":472,"x_min":14,"x_max":458,"o":"m 167 786 l 14 972 l 146 972 l 236 875 l 326 972 l 458 972 l 306 786 l 167 786 z "},"¸":{"ha":299,"x_min":14,"x_max":285,"o":"m 132 -271 q 47 -257 89 -271 q 14 -243 25 -250 l 43 -174 l 56 -174 q 65 -180 57 -175 q 88 -190 74 -185 q 118 -194 103 -194 q 153 -184 140 -194 q 167 -153 167 -174 q 153 -122 167 -133 q 118 -111 140 -111 l 49 -111 l 49 28 l 153 28 l 153 -35 q 247 -69 210 -35 q 285 -153 285 -104 q 244 -237 285 -203 q 132 -271 203 -271 z "},"ˆ":{"ha":472,"x_min":14,"x_max":458,"o":"m 14 778 l 167 964 l 306 964 l 458 778 l 326 778 l 236 875 l 146 778 l 14 778 z "},"¨":{"ha":493,"x_min":14,"x_max":479,"o":"m 111 792 q 43 821 72 792 q 14 889 14 850 q 43 957 14 928 q 111 986 72 986 q 179 957 150 986 q 208 889 208 928 q 179 821 208 850 q 111 792 150 792 m 382 792 q 314 821 343 792 q 285 889 285 850 q 314 957 285 928 q 382 986 343 986 q 450 957 421 986 q 479 889 479 928 q 450 821 479 850 q 382 792 421 792 z "},"˙":{"ha":236,"x_min":14,"x_max":222,"o":"m 118 778 q 45 809 76 778 q 14 882 14 840 q 45 955 14 924 q 118 986 76 986 q 191 955 160 986 q 222 882 222 924 q 191 809 222 840 q 118 778 160 778 z "}}}
